SeymourReg.ufo
<glyph name="exclam" format="1">
  <advance width="585"/>
  <unicode hex="0021"/>
  <outline>
    <contour>
      <point x="388" y="490" type="curve" smooth="yes"/>
      <point x="421" y="609"/>
      <point x="472" y="954"/>
      <point x="504" y="1149" type="curve"/>
      <point x="525" y="1260"/>
      <point x="557" y="1454"/>
      <point x="565" y="1514" type="curve" smooth="yes"/>
      <point x="545" y="1517"/>
      <point x="522" y="1518"/>
      <point x="498" y="1518" type="curve" smooth="yes"/>
      <point x="476" y="1518"/>
      <point x="454" y="1518"/>
      <point x="433" y="1518" type="curve" smooth="yes"/>
      <point x="335" y="1503"/>
      <point x="243" y="1487"/>
      <point x="153" y="1476" type="curve" smooth="yes"/>
      <point x="147" y="1444"/>
      <point x="149" y="1409"/>
      <point x="152" y="1360" type="curve"/>
      <point x="207" y="567" type="line" smooth="yes"/>
      <point x="211" y="534"/>
      <point x="215" y="504"/>
      <point x="225" y="474" type="curve"/>
      <point x="281" y="481"/>
      <point x="333" y="486"/>
    </contour>
    <contour>
      <point x="497" y="351" type="curve" smooth="yes"/>
      <point x="477" y="351"/>
      <point x="459" y="351"/>
      <point x="440" y="350" type="curve" smooth="yes"/>
      <point x="330" y="338"/>
      <point x="226" y="327"/>
      <point x="123" y="318" type="curve"/>
      <point x="112" y="299"/>
      <point x="111" y="277"/>
      <point x="110" y="241" type="curve" smooth="yes"/>
      <point x="100" y="23" type="line"/>
      <point x="100" y="23"/>
      <point x="101" y="22"/>
      <point x="101" y="22" type="curve" smooth="yes"/>
      <point x="105" y="-30" type="line"/>
      <point x="125" y="-30"/>
      <point x="143" y="-30"/>
      <point x="162" y="-30" type="curve" smooth="yes"/>
      <point x="266" y="-13"/>
      <point x="377" y="-3"/>
      <point x="480" y="7" type="curve" smooth="yes"/>
      <point x="504" y="60"/>
      <point x="500" y="234"/>
      <point x="502" y="298" type="curve" smooth="yes"/>
      <point x="502" y="317"/>
      <point x="500" y="335"/>
    </contour>
  </outline>
</glyph>
<glyph name="percent" format="1">
  <advance width="2370"/>
  <unicode hex="0025"/>
  <outline>
    <contour>
      <point x="536" y="1349" type="curve" smooth="yes"/>
      <point x="644" y="1349"/>
      <point x="693" y="1230"/>
      <point x="693" y="1086" type="curve" smooth="yes"/>
      <point x="693" y="936"/>
      <point x="647" y="815"/>
      <point x="528" y="815" type="curve" smooth="yes"/>
      <point x="413" y="815"/>
      <point x="370" y="928"/>
      <point x="370" y="1076" type="curve" smooth="yes"/>
      <point x="370" y="1230"/>
      <point x="419" y="1349"/>
    </contour>
    <contour>
      <point x="526" y="622" type="curve" smooth="yes"/>
      <point x="801" y="622"/>
      <point x="960" y="830"/>
      <point x="960" y="1089" type="curve" smooth="yes"/>
      <point x="960" y="1317"/>
      <point x="825" y="1540"/>
      <point x="538" y="1540" type="curve" smooth="yes"/>
      <point x="246" y="1540"/>
      <point x="101" y="1319"/>
      <point x="101" y="1071" type="curve" smooth="yes"/>
      <point x="101" y="827"/>
      <point x="258" y="622"/>
    </contour>
    <contour>
      <point x="677" y="102" type="curve"/>
      <point x="706" y="95"/>
      <point x="736" y="90"/>
      <point x="770" y="87" type="curve"/>
      <point x="776" y="81"/>
      <point x="785" y="79"/>
      <point x="853" y="23" type="curve"/>
      <point x="889" y="22"/>
      <point x="922" y="21"/>
      <point x="954" y="21" type="curve" smooth="yes"/>
      <point x="982" y="71"/>
      <point x="1002" y="123"/>
      <point x="1029" y="179" type="curve" smooth="yes"/>
      <point x="1235" y="520"/>
      <point x="1440" y="860"/>
      <point x="1646" y="1201" type="curve" smooth="yes"/>
      <point x="1669" y="1252"/>
      <point x="1691" y="1303"/>
      <point x="1713" y="1354" type="curve" smooth="yes"/>
      <point x="1684" y="1356"/>
      <point x="1586" y="1401"/>
      <point x="1525" y="1426" type="curve" smooth="yes"/>
      <point x="1524" y="1427"/>
      <point x="1523" y="1427"/>
      <point x="1521" y="1427" type="curve" smooth="yes"/>
      <point x="1486" y="1427"/>
      <point x="1454" y="1423"/>
      <point x="1418" y="1414" type="curve" smooth="yes"/>
      <point x="1164" y="966"/>
      <point x="921" y="527"/>
    </contour>
    <contour>
      <point x="1905" y="678" type="curve" smooth="yes"/>
      <point x="2013" y="678"/>
      <point x="2062" y="559"/>
      <point x="2062" y="415" type="curve" smooth="yes"/>
      <point x="2062" y="265"/>
      <point x="2015" y="145"/>
      <point x="1897" y="145" type="curve" smooth="yes"/>
      <point x="1782" y="145"/>
      <point x="1739" y="257"/>
      <point x="1739" y="405" type="curve" smooth="yes"/>
      <point x="1739" y="559"/>
      <point x="1788" y="678"/>
    </contour>
    <contour>
      <point x="1895" y="-49" type="curve" smooth="yes"/>
      <point x="2170" y="-49"/>
      <point x="2329" y="159"/>
      <point x="2329" y="418" type="curve" smooth="yes"/>
      <point x="2329" y="646"/>
      <point x="2194" y="869"/>
      <point x="1907" y="869" type="curve" smooth="yes"/>
      <point x="1614" y="869"/>
      <point x="1470" y="649"/>
      <point x="1470" y="400" type="curve" smooth="yes"/>
      <point x="1470" y="156"/>
      <point x="1626" y="-49"/>
    </contour>
  </outline>
</glyph>
<glyph name="ampersand" format="1">
  <advance width="1665"/>
  <unicode hex="0026"/>
  <outline>
    <contour>
      <point x="1270" y="1159" type="curve" smooth="yes"/>
      <point x="1270" y="1357"/>
      <point x="1076" y="1448"/>
      <point x="908" y="1468" type="curve" smooth="yes"/>
      <point x="852" y="1473"/>
      <point x="797" y="1473"/>
      <point x="744" y="1469" type="curve" smooth="yes"/>
      <point x="480" y="1450"/>
      <point x="266" y="1326"/>
      <point x="266" y="1126" type="curve" smooth="yes"/>
      <point x="266" y="1022"/>
      <point x="331" y="912"/>
      <point x="439" y="793" type="curve"/>
      <point x="175" y="623"/>
      <point x="77" y="509"/>
      <point x="77" y="338" type="curve" smooth="yes"/>
      <point x="77" y="98"/>
      <point x="295" y="-23"/>
      <point x="533" y="-43" type="curve" smooth="yes"/>
      <point x="576" y="-47"/>
      <point x="619" y="-48"/>
      <point x="660" y="-47" type="curve" smooth="yes"/>
      <point x="827" y="-42"/>
      <point x="981" y="3"/>
      <point x="1148" y="100" type="curve"/>
      <point x="1279" y="4" type="line"/>
      <point x="1302" y="2"/>
      <point x="1325" y="1"/>
      <point x="1348" y="1" type="curve" smooth="yes"/>
      <point x="1408" y="1"/>
      <point x="1570" y="78"/>
      <point x="1632" y="116" type="curve" smooth="yes"/>
      <point x="1600" y="158"/>
      <point x="1516" y="225"/>
      <point x="1478" y="261" type="curve" smooth="yes"/>
      <point x="1425" y="314" type="line"/>
      <point x="1520" y="406"/>
      <point x="1633" y="552"/>
      <point x="1636" y="677" type="curve" smooth="yes"/>
      <point x="1571" y="700"/>
      <point x="1456" y="747"/>
      <point x="1370" y="755" type="curve"/>
      <point x="1330" y="695"/>
      <point x="1289" y="638"/>
      <point x="1245" y="582" type="curve"/>
      <point x="1232" y="558"/>
      <point x="1218" y="537"/>
      <point x="1203" y="511" type="curve"/>
      <point x="1179" y="528"/>
      <point x="1155" y="552"/>
      <point x="1131" y="576" type="curve"/>
      <point x="920" y="766" type="line"/>
      <point x="1120" y="900"/>
      <point x="1270" y="989"/>
    </contour>
    <contour>
      <point x="518" y="378" type="curve" smooth="yes"/>
      <point x="518" y="485"/>
      <point x="575" y="534"/>
      <point x="644" y="584" type="curve"/>
      <point x="928" y="300" type="line"/>
      <point x="850" y="239"/>
      <point x="764" y="222"/>
      <point x="700" y="222" type="curve" smooth="yes"/>
      <point x="588" y="222"/>
      <point x="518" y="280"/>
    </contour>
    <contour>
      <point x="630" y="1135" type="curve" smooth="yes"/>
      <point x="630" y="1206"/>
      <point x="698" y="1248"/>
      <point x="786" y="1248" type="curve" smooth="yes"/>
      <point x="858" y="1248"/>
      <point x="920" y="1220"/>
      <point x="920" y="1155" type="curve" smooth="yes"/>
      <point x="920" y="1082"/>
      <point x="859" y="1033"/>
      <point x="734" y="962" type="curve"/>
      <point x="669" y="1026"/>
      <point x="630" y="1080"/>
    </contour>
  </outline>
</glyph>
<glyph name="parenleft" format="1">
  <advance width="875"/>
  <unicode hex="0028"/>
  <outline>
    <contour>
      <point x="794" y="99" type="curve" smooth="yes"/>
      <point x="735" y="109"/>
      <point x="687" y="154"/>
      <point x="652" y="218" type="curve" smooth="yes"/>
      <point x="547" y="304"/>
      <point x="502" y="467"/>
      <point x="502" y="632" type="curve" smooth="yes"/>
      <point x="502" y="838"/>
      <point x="586" y="1046"/>
      <point x="708" y="1135" type="curve"/>
      <point x="748" y="1202"/>
      <point x="796" y="1246"/>
      <point x="855" y="1256" type="curve" smooth="yes"/>
      <point x="855" y="1384"/>
      <point x="845" y="1464"/>
      <point x="837" y="1500" type="curve"/>
      <point x="587" y="1490"/>
      <point x="387" y="1356"/>
      <point x="270" y="1215" type="curve" smooth="yes"/>
      <point x="123" y="1039"/>
      <point x="71" y="801"/>
      <point x="71" y="619" type="curve" smooth="yes"/>
      <point x="71" y="277"/>
      <point x="247" y="-45"/>
      <point x="629" y="-130" type="curve" smooth="yes"/>
      <point x="630" y="-130"/>
      <point x="630" y="-130"/>
      <point x="631" y="-130" type="curve" smooth="yes"/>
      <point x="675" y="-141"/>
      <point x="721" y="-145"/>
      <point x="769" y="-140" type="curve" smooth="yes"/>
      <point x="779" y="-55"/>
      <point x="794" y="10"/>
    </contour>
  </outline>
</glyph>
<glyph name="parenright" format="1">
  <advance width="877"/>
  <unicode hex="0029"/>
  <outline>
    <contour>
      <point x="103" y="-148" type="curve" smooth="yes"/>
      <point x="151" y="-148"/>
      <point x="194" y="-141"/>
      <point x="234" y="-130" type="curve" smooth="yes"/>
      <point x="657" y="-40"/>
      <point x="854" y="333"/>
      <point x="854" y="706" type="curve" smooth="yes"/>
      <point x="854" y="845"/>
      <point x="825" y="995"/>
      <point x="754" y="1123" type="curve" smooth="yes"/>
      <point x="654" y="1313"/>
      <point x="450" y="1490"/>
      <point x="154" y="1500" type="curve"/>
      <point x="146" y="1482"/>
      <point x="130" y="1422"/>
      <point x="113" y="1310" type="curve"/>
      <point x="113" y="1291"/>
      <point x="113" y="1271"/>
      <point x="113" y="1251" type="curve" smooth="yes"/>
      <point x="171" y="1244"/>
      <point x="219" y="1201"/>
      <point x="257" y="1135" type="curve" smooth="yes"/>
      <point x="361" y="1049"/>
      <point x="422" y="875"/>
      <point x="422" y="689" type="curve" smooth="yes"/>
      <point x="422" y="421"/>
      <point x="318" y="142"/>
      <point x="103" y="113" type="curve" smooth="yes"/>
      <point x="93" y="92"/>
      <point x="91" y="67"/>
      <point x="91" y="13" type="curve" smooth="yes"/>
      <point x="91" y="-26"/>
      <point x="92" y="-130"/>
    </contour>
  </outline>
</glyph>
<glyph name="asterisk" format="1">
  <advance width="1001"/>
  <unicode hex="002A"/>
  <outline>
    <contour>
      <point x="393" y="649" type="curve" smooth="yes"/>
      <point x="439" y="646"/>
      <point x="464" y="644"/>
      <point x="478" y="644" type="curve" smooth="yes"/>
      <point x="489" y="610"/>
      <point x="517" y="594"/>
      <point x="547" y="594" type="curve" smooth="yes"/>
      <point x="581" y="594"/>
      <point x="607" y="613"/>
      <point x="609" y="673" type="curve" smooth="yes"/>
      <point x="611" y="743"/>
      <point x="592" y="851"/>
      <point x="584" y="924" type="curve"/>
      <point x="644" y="867"/>
      <point x="756" y="757"/>
      <point x="809" y="740" type="curve" smooth="yes"/>
      <point x="813" y="740"/>
      <point x="816" y="742"/>
      <point x="819" y="745" type="curve" smooth="yes"/>
      <point x="894" y="832"/>
      <point x="901" y="821"/>
      <point x="907" y="833" type="curve" smooth="yes"/>
      <point x="932" y="833"/>
      <point x="952" y="854"/>
      <point x="952" y="879" type="curve"/>
      <point x="951" y="943"/>
      <point x="761" y="1028"/>
      <point x="651" y="1074" type="curve"/>
      <point x="852" y="1184"/>
      <point x="958" y="1200"/>
      <point x="958" y="1265" type="curve" smooth="yes"/>
      <point x="958" y="1294"/>
      <point x="927" y="1334"/>
      <point x="875" y="1372" type="curve" smooth="yes"/>
      <point x="859" y="1386"/>
      <point x="837" y="1411"/>
      <point x="816" y="1407" type="curve" smooth="yes"/>
      <point x="767" y="1389"/>
      <point x="673" y="1292"/>
      <point x="600" y="1218" type="curve"/>
      <point x="614" y="1301"/>
      <point x="642" y="1392"/>
      <point x="648" y="1467" type="curve" smooth="yes"/>
      <point x="651" y="1503"/>
      <point x="576" y="1507"/>
      <point x="539" y="1516" type="curve" smooth="yes"/>
      <point x="537" y="1548"/>
      <point x="511" y="1565"/>
      <point x="485" y="1565" type="curve"/>
      <point x="455" y="1564"/>
      <point x="428" y="1545"/>
      <point x="424" y="1493" type="curve" smooth="yes"/>
      <point x="420" y="1437"/>
      <point x="435" y="1328"/>
      <point x="443" y="1214" type="curve"/>
      <point x="382" y="1272"/>
      <point x="265" y="1385"/>
      <point x="217" y="1403" type="curve" smooth="yes"/>
      <point x="197" y="1408"/>
      <point x="174" y="1382"/>
      <point x="157" y="1368" type="curve" smooth="yes"/>
      <point x="104" y="1328"/>
      <point x="75" y="1290"/>
      <point x="75" y="1261" type="curve" smooth="yes"/>
      <point x="75" y="1197"/>
      <point x="218" y="1151"/>
      <point x="380" y="1074" type="curve"/>
      <point x="265" y="1027"/>
      <point x="80" y="938"/>
      <point x="80" y="879" type="curve" smooth="yes"/>
      <point x="80" y="854"/>
      <point x="101" y="833"/>
      <point x="126" y="833" type="curve"/>
      <point x="132" y="821"/>
      <point x="137" y="829"/>
      <point x="210" y="762" type="curve"/>
      <point x="212" y="759"/>
      <point x="215" y="757"/>
      <point x="219" y="757" type="curve" smooth="yes"/>
      <point x="268" y="775"/>
      <point x="368" y="866"/>
      <point x="426" y="920" type="curve"/>
      <point x="414" y="855"/>
      <point x="395" y="772"/>
      <point x="384" y="698" type="curve"/>
      <point x="382" y="674"/>
      <point x="386" y="657"/>
    </contour>
  </outline>
</glyph>
<glyph name="plus" format="1">
  <advance width="1040"/>
  <unicode hex="002B"/>
  <outline>
    <contour>
      <point x="67" y="467" type="curve" smooth="yes"/>
      <point x="99" y="457"/>
      <point x="150" y="455"/>
      <point x="219" y="455" type="curve" smooth="yes"/>
      <point x="266" y="455"/>
      <point x="322" y="455"/>
      <point x="385" y="455" type="curve"/>
      <point x="376" y="203" type="line"/>
      <point x="376" y="172"/>
      <point x="380" y="148"/>
      <point x="388" y="129" type="curve"/>
      <point x="475" y="129"/>
      <point x="589" y="128"/>
      <point x="670" y="128" type="curve" smooth="yes"/>
      <point x="683" y="162"/>
      <point x="689" y="208"/>
      <point x="693" y="288" type="curve"/>
      <point x="699" y="457" type="line"/>
      <point x="862" y="459" type="line"/>
      <point x="936" y="460"/>
      <point x="971" y="458"/>
      <point x="1011" y="475" type="curve"/>
      <point x="1016" y="574" type="line" smooth="yes"/>
      <point x="1020" y="650"/>
      <point x="1023" y="710"/>
      <point x="1023" y="749" type="curve"/>
      <point x="1007" y="759"/>
      <point x="982" y="762"/>
      <point x="961" y="762" type="curve" smooth="yes"/>
      <point x="902" y="762"/>
      <point x="804" y="759"/>
      <point x="709" y="759" type="curve"/>
      <point x="718" y="926"/>
      <point x="718" y="969"/>
      <point x="718" y="1024" type="curve" smooth="yes"/>
      <point x="718" y="1052"/>
      <point x="714" y="1072"/>
      <point x="705" y="1092" type="curve"/>
      <point x="603" y="1091" type="line"/>
      <point x="561" y="1091"/>
      <point x="517" y="1089"/>
      <point x="490" y="1089" type="curve" smooth="yes"/>
      <point x="468" y="1089"/>
      <point x="446" y="1090"/>
      <point x="425" y="1090" type="curve" smooth="yes"/>
      <point x="400" y="1037"/>
      <point x="404" y="952"/>
      <point x="399" y="818" type="curve" smooth="yes"/>
      <point x="398" y="757" type="line"/>
      <point x="159" y="756" type="line" smooth="yes"/>
      <point x="130" y="755"/>
      <point x="105" y="748"/>
      <point x="87" y="741" type="curve" smooth="yes"/>
      <point x="81" y="655"/>
      <point x="67" y="534"/>
    </contour>
  </outline>
</glyph>
<glyph name="comma" format="1">
  <advance width="570"/>
  <unicode hex="002C"/>
  <outline>
    <contour>
      <point x="99" y="-286" type="curve" smooth="yes"/>
      <point x="110" y="-289"/>
      <point x="128" y="-292"/>
      <point x="150" y="-296" type="curve" smooth="yes"/>
      <point x="216" y="-324"/>
      <point x="229" y="-324"/>
      <point x="255" y="-320" type="curve" smooth="yes"/>
      <point x="321" y="-301"/>
      <point x="475" y="-169"/>
      <point x="493" y="17" type="curve" smooth="yes"/>
      <point x="495" y="39"/>
      <point x="496" y="63"/>
      <point x="498" y="92" type="curve"/>
      <point x="506" y="291" type="line"/>
      <point x="506" y="309"/>
      <point x="506" y="327"/>
      <point x="504" y="344" type="curve" smooth="yes"/>
      <point x="489" y="346"/>
      <point x="473" y="346"/>
      <point x="456" y="346" type="curve" smooth="yes"/>
      <point x="348" y="346"/>
      <point x="229" y="346"/>
      <point x="118" y="346" type="curve"/>
      <point x="97" y="294"/>
      <point x="96" y="110"/>
      <point x="94" y="41" type="curve" smooth="yes"/>
      <point x="94" y="-9" type="line" smooth="yes"/>
      <point x="120" y="-16"/>
      <point x="184" y="-14"/>
      <point x="233" y="-14" type="curve"/>
      <point x="216" y="-69"/>
      <point x="193" y="-121"/>
      <point x="100" y="-172" type="curve" smooth="yes"/>
      <point x="100" y="-210"/>
      <point x="99" y="-249"/>
    </contour>
  </outline>
</glyph>
<glyph name="period" format="1">
  <advance width="581"/>
  <unicode hex="002E"/>
  <outline>
    <contour>
      <point x="501" y="340" type="line"/>
      <point x="483" y="349"/>
      <point x="462" y="351"/>
      <point x="439" y="351" type="curve" smooth="yes"/>
      <point x="336" y="350"/>
      <point x="222" y="350"/>
      <point x="117" y="350" type="curve"/>
      <point x="93" y="297"/>
      <point x="98" y="93"/>
      <point x="98" y="30" type="curve" smooth="yes"/>
      <point x="98" y="12"/>
      <point x="98" y="-5"/>
      <point x="99" y="-22" type="curve" smooth="yes"/>
      <point x="117" y="-22"/>
      <point x="136" y="-22"/>
      <point x="155" y="-22" type="curve" smooth="yes"/>
      <point x="265" y="-22"/>
      <point x="372" y="-21"/>
      <point x="475" y="-21" type="curve"/>
      <point x="486" y="-3"/>
      <point x="486" y="19"/>
      <point x="488" y="55" type="curve"/>
    </contour>
  </outline>
</glyph>
<glyph name="slash" format="1">
  <advance width="977"/>
  <unicode hex="002F"/>
  <outline>
    <contour>
      <point x="39" y="-9" type="curve" smooth="yes"/>
      <point x="76" y="-29"/>
      <point x="187" y="-49"/>
      <point x="239" y="-55" type="curve"/>
      <point x="280" y="-57"/>
      <point x="321" y="-58"/>
      <point x="361" y="-58" type="curve" smooth="yes"/>
      <point x="387" y="-16"/>
      <point x="402" y="36"/>
      <point x="423" y="89" type="curve" smooth="yes"/>
      <point x="1001" y="1489" type="line"/>
      <point x="964" y="1490"/>
      <point x="853" y="1521"/>
      <point x="788" y="1532" type="curve"/>
      <point x="739" y="1532"/>
      <point x="702" y="1529"/>
      <point x="656" y="1509" type="curve" smooth="yes"/>
      <point x="445" y="993"/>
      <point x="261" y="537"/>
      <point x="90" y="127" type="curve" smooth="yes"/>
      <point x="73" y="82"/>
      <point x="55" y="37"/>
    </contour>
  </outline>
</glyph>
<glyph name="zero" format="1">
  <advance width="1621"/>
  <unicode hex="0030"/>
  <outline>
    <contour>
      <point x="833" y="233" type="curve" smooth="yes"/>
      <point x="594" y="233"/>
      <point x="538" y="480"/>
      <point x="538" y="715" type="curve" smooth="yes"/>
      <point x="538" y="957"/>
      <point x="603" y="1219"/>
      <point x="849" y="1219" type="curve" smooth="yes"/>
      <point x="1075" y="1219"/>
      <point x="1142" y="956"/>
      <point x="1142" y="733" type="curve" smooth="yes"/>
      <point x="1142" y="495"/>
      <point x="1080" y="233"/>
    </contour>
    <contour>
      <point x="829" y="-49" type="curve" smooth="yes"/>
      <point x="1324" y="-49"/>
      <point x="1573" y="296"/>
      <point x="1573" y="734" type="curve" smooth="yes"/>
      <point x="1573" y="1119"/>
      <point x="1361" y="1496"/>
      <point x="853" y="1496" type="curve" smooth="yes"/>
      <point x="333" y="1496"/>
      <point x="104" y="1120"/>
      <point x="104" y="701" type="curve" smooth="yes"/>
      <point x="104" y="290"/>
      <point x="347" y="-49"/>
    </contour>
  </outline>
</glyph>
<glyph name="one" format="1">
  <advance width="793"/>
  <unicode hex="0031"/>
  <outline>
    <contour>
      <point x="671" y="36" type="line"/>
      <point x="686" y="74"/>
      <point x="691" y="114"/>
      <point x="692" y="175" type="curve" smooth="yes"/>
      <point x="719" y="1329" type="line"/>
      <point x="719" y="1370"/>
      <point x="718" y="1408"/>
      <point x="717" y="1445" type="curve" smooth="yes"/>
      <point x="690" y="1448"/>
      <point x="663" y="1449"/>
      <point x="634" y="1449" type="curve" smooth="yes"/>
      <point x="551" y="1449"/>
      <point x="455" y="1430"/>
      <point x="371" y="1422" type="curve" smooth="yes"/>
      <point x="225" y="1370" type="line"/>
      <point x="194" y="1357"/>
      <point x="162" y="1344"/>
      <point x="131" y="1331" type="curve"/>
      <point x="131" y="1278"/>
      <point x="131" y="1225"/>
      <point x="131" y="1172" type="curve"/>
      <point x="182" y="1197"/>
      <point x="245" y="1215"/>
      <point x="307" y="1221" type="curve"/>
      <point x="280" y="475"/>
      <point x="280" y="289"/>
      <point x="280" y="105" type="curve" smooth="yes"/>
      <point x="280" y="89"/>
      <point x="289" y="85"/>
      <point x="299" y="85" type="curve" smooth="yes"/>
      <point x="302" y="55"/>
      <point x="306" y="24"/>
      <point x="309" y="-5" type="curve" smooth="yes"/>
    </contour>
  </outline>
</glyph>
<glyph name="two" format="1">
  <advance width="1204"/>
  <unicode hex="0032"/>
  <outline>
    <contour>
      <point x="112" y="203" type="curve" smooth="yes"/>
      <point x="112" y="126"/>
      <point x="132" y="57"/>
      <point x="189" y="-2" type="curve" smooth="yes"/>
      <point x="414" y="-2"/>
      <point x="587" y="-1"/>
      <point x="876" y="0" type="curve"/>
      <point x="938" y="2"/>
      <point x="1003" y="0"/>
      <point x="1070" y="12" type="curve"/>
      <point x="1075" y="39"/>
      <point x="1125" y="166"/>
      <point x="1137" y="216" type="curve"/>
      <point x="1137" y="243"/>
      <point x="1143" y="280"/>
      <point x="1143" y="315" type="curve" smooth="yes"/>
      <point x="1116" y="321"/>
      <point x="1081" y="325"/>
      <point x="1039" y="325" type="curve" smooth="yes"/>
      <point x="941" y="325"/>
      <point x="774" y="311"/>
      <point x="698" y="311" type="curve" smooth="yes"/>
      <point x="669" y="311"/>
      <point x="640" y="311"/>
      <point x="613" y="311" type="curve"/>
      <point x="757" y="392"/>
      <point x="1034" y="697"/>
      <point x="1090" y="887" type="curve"/>
      <point x="1105" y="928"/>
      <point x="1116" y="970"/>
      <point x="1120" y="1014" type="curve" smooth="yes"/>
      <point x="1125" y="1054"/>
      <point x="1124" y="1092"/>
      <point x="1118" y="1130" type="curve" smooth="yes"/>
      <point x="1087" y="1340"/>
      <point x="886" y="1495"/>
      <point x="630" y="1495" type="curve" smooth="yes"/>
      <point x="345" y="1495"/>
      <point x="144" y="1370"/>
      <point x="141" y="1223" type="curve"/>
      <point x="141" y="1218"/>
      <point x="112" y="1129"/>
      <point x="112" y="1083" type="curve" smooth="yes"/>
      <point x="112" y="1061"/>
      <point x="114" y="1036"/>
      <point x="127" y="1018" type="curve" smooth="yes"/>
      <point x="150" y="1018"/>
      <point x="175" y="1020"/>
      <point x="201" y="1024" type="curve" smooth="yes"/>
      <point x="274" y="1046"/>
      <point x="350" y="1056"/>
      <point x="424" y="1056" type="curve" smooth="yes"/>
      <point x="422" y="1065"/>
      <point x="422" y="1073"/>
      <point x="422" y="1081" type="curve"/>
      <point x="457" y="1147"/>
      <point x="539" y="1175"/>
      <point x="607" y="1153" type="curve" smooth="yes"/>
      <point x="668" y="1142"/>
      <point x="719" y="1092"/>
      <point x="719" y="994" type="curve" smooth="yes"/>
      <point x="719" y="812"/>
      <point x="344" y="481"/>
      <point x="154" y="264" type="curve"/>
      <point x="128" y="236"/>
      <point x="112" y="216"/>
    </contour>
  </outline>
</glyph>
<glyph name="five" format="1">
  <advance width="1287"/>
  <unicode hex="0035"/>
  <outline>
    <contour>
      <point x="543" y="249" type="curve" smooth="yes"/>
      <point x="497" y="249"/>
      <point x="458" y="255"/>
      <point x="413" y="261" type="curve" smooth="yes"/>
      <point x="366" y="274"/>
      <point x="324" y="296"/>
      <point x="323" y="342" type="curve"/>
      <point x="96" y="218" type="line"/>
      <point x="96" y="119"/>
      <point x="235" y="5"/>
      <point x="412" y="-34" type="curve" smooth="yes"/>
      <point x="482" y="-44"/>
      <point x="558" y="-47"/>
      <point x="639" y="-40" type="curve" smooth="yes"/>
      <point x="1022" y="-17"/>
      <point x="1235" y="195"/>
      <point x="1235" y="496" type="curve" smooth="yes"/>
      <point x="1235" y="767"/>
      <point x="1058" y="965"/>
      <point x="763" y="985" type="curve" smooth="yes"/>
      <point x="686" y="988"/>
      <point x="597" y="966"/>
      <point x="523" y="934" type="curve"/>
      <point x="527" y="1033"/>
      <point x="541" y="1096"/>
      <point x="572" y="1153" type="curve" smooth="yes"/>
      <point x="663" y="1153"/>
      <point x="758" y="1152"/>
      <point x="851" y="1152" type="curve" smooth="yes"/>
      <point x="946" y="1152"/>
      <point x="1044" y="1157"/>
      <point x="1105" y="1196" type="curve" smooth="yes"/>
      <point x="1115" y="1254"/>
      <point x="1140" y="1371"/>
      <point x="1141" y="1400" type="curve" smooth="yes"/>
      <point x="1142" y="1403"/>
      <point x="1143" y="1405"/>
      <point x="1143" y="1408" type="curve" smooth="yes"/>
      <point x="1143" y="1439"/>
      <point x="1141" y="1466"/>
      <point x="1137" y="1491" type="curve"/>
      <point x="836" y="1476"/>
      <point x="542" y="1465"/>
      <point x="242" y="1452" type="curve"/>
      <point x="226" y="1239"/>
      <point x="194" y="1021"/>
      <point x="194" y="808" type="curve" smooth="yes"/>
      <point x="194" y="777"/>
      <point x="196" y="748"/>
      <point x="200" y="721" type="curve" smooth="yes"/>
      <point x="229" y="706"/>
      <point x="261" y="692"/>
      <point x="296" y="680" type="curve" smooth="yes"/>
      <point x="330" y="667"/>
      <point x="365" y="654"/>
      <point x="403" y="642" type="curve" smooth="yes"/>
      <point x="433" y="642"/>
      <point x="524" y="696"/>
      <point x="646" y="684" type="curve" smooth="yes"/>
      <point x="747" y="673"/>
      <point x="812" y="586"/>
      <point x="812" y="454" type="curve" smooth="yes"/>
      <point x="812" y="311"/>
      <point x="711" y="249"/>
    </contour>
  </outline>
</glyph>
<glyph name="six" format="1">
  <advance width="1381"/>
  <unicode hex="0036"/>
  <outline>
    <contour>
      <point x="1004" y="1240" type="curve" smooth="yes"/>
      <point x="1072" y="1246"/>
      <point x="1137" y="1251"/>
      <point x="1201" y="1255" type="curve" smooth="yes"/>
      <point x="1201" y="1376"/>
      <point x="1027" y="1512"/>
      <point x="761" y="1512" type="curve" smooth="yes"/>
      <point x="515" y="1512"/>
      <point x="167" y="1159"/>
      <point x="124" y="771" type="curve" smooth="yes"/>
      <point x="106" y="730"/>
      <point x="94" y="685"/>
      <point x="94" y="637" type="curve" smooth="yes"/>
      <point x="94" y="158"/>
      <point x="356" y="-49"/>
      <point x="718" y="-49" type="curve" smooth="yes"/>
      <point x="1141" y="-49"/>
      <point x="1341" y="197"/>
      <point x="1341" y="495" type="curve" smooth="yes"/>
      <point x="1341" y="731"/>
      <point x="1178" y="977"/>
      <point x="837" y="977" type="curve" smooth="yes"/>
      <point x="757" y="977"/>
      <point x="668" y="958"/>
      <point x="592" y="927" type="curve"/>
      <point x="612" y="1114"/>
      <point x="709" y="1206"/>
      <point x="820" y="1240" type="curve" smooth="yes"/>
      <point x="891" y="1274"/>
      <point x="977" y="1283"/>
    </contour>
    <contour>
      <point x="753" y="726" type="curve" smooth="yes"/>
      <point x="866" y="726"/>
      <point x="911" y="643"/>
      <point x="926" y="549" type="curve" smooth="yes"/>
      <point x="930" y="527"/>
      <point x="931" y="504"/>
      <point x="931" y="478" type="curve" smooth="yes"/>
      <point x="928" y="355"/>
      <point x="877" y="220"/>
      <point x="728" y="220" type="curve" smooth="yes"/>
      <point x="597" y="220"/>
      <point x="549" y="329"/>
      <point x="533" y="423" type="curve" smooth="yes"/>
      <point x="525" y="470"/>
      <point x="523" y="525"/>
      <point x="527" y="579" type="curve" smooth="yes"/>
      <point x="529" y="603"/>
      <point x="533" y="630"/>
      <point x="537" y="639" type="curve" smooth="yes"/>
      <point x="547" y="666"/>
      <point x="634" y="726"/>
    </contour>
  </outline>
</glyph>
<glyph name="seven" format="1">
  <advance width="1132"/>
  <unicode hex="0037"/>
  <outline>
    <contour>
      <point x="1140" y="1453" type="curve" smooth="yes"/>
      <point x="873" y="1453"/>
      <point x="668" y="1452"/>
      <point x="314" y="1450" type="curve" smooth="yes"/>
      <point x="264" y="1450"/>
      <point x="220" y="1449"/>
      <point x="167" y="1435" type="curve"/>
      <point x="144" y="1357"/>
      <point x="122" y="1291"/>
      <point x="100" y="1212" type="curve"/>
      <point x="100" y="1184"/>
      <point x="94" y="1149"/>
      <point x="94" y="1115" type="curve" smooth="yes"/>
      <point x="132" y="1106"/>
      <point x="179" y="1105"/>
      <point x="235" y="1105" type="curve" smooth="yes"/>
      <point x="306" y="1105"/>
      <point x="401" y="1105"/>
      <point x="488" y="1105" type="curve"/>
      <point x="693" y="1106" type="line"/>
      <point x="442" y="560" type="line" smooth="yes"/>
      <point x="322" y="288"/>
      <point x="221" y="59"/>
      <point x="169" y="-42" type="curve" smooth="yes"/>
      <point x="209" y="-51"/>
      <point x="254" y="-58"/>
      <point x="305" y="-58" type="curve" smooth="yes"/>
      <point x="378" y="-58"/>
      <point x="481" y="-43"/>
      <point x="566" y="-32" type="curve" smooth="yes"/>
      <point x="653" y="119"/>
      <point x="780" y="418"/>
      <point x="938" y="785" type="curve"/>
      <point x="1143" y="1258" type="line"/>
      <point x="1152" y="1279"/>
      <point x="1157" y="1293"/>
      <point x="1157" y="1303" type="curve" smooth="yes"/>
      <point x="1157" y="1357"/>
      <point x="1151" y="1408"/>
    </contour>
  </outline>
</glyph>
<glyph name="eight" format="1">
  <advance width="1393"/>
  <unicode hex="0038"/>
  <outline>
    <contour>
      <point x="1277" y="1108" type="curve" smooth="yes"/>
      <point x="1277" y="1322"/>
      <point x="1053" y="1496"/>
      <point x="757" y="1496" type="curve" smooth="yes"/>
      <point x="408" y="1496"/>
      <point x="168" y="1317"/>
      <point x="168" y="1064" type="curve" smooth="yes"/>
      <point x="168" y="918"/>
      <point x="240" y="819"/>
      <point x="353" y="750" type="curve"/>
      <point x="189" y="648"/>
      <point x="91" y="528"/>
      <point x="91" y="371" type="curve" smooth="yes"/>
      <point x="91" y="119"/>
      <point x="352" y="-49"/>
      <point x="691" y="-49" type="curve" smooth="yes"/>
      <point x="1059" y="-49"/>
      <point x="1339" y="136"/>
      <point x="1339" y="404" type="curve" smooth="yes"/>
      <point x="1339" y="610"/>
      <point x="1221" y="722"/>
      <point x="1076" y="801" type="curve"/>
      <point x="1201" y="875"/>
      <point x="1277" y="984"/>
    </contour>
    <contour>
      <point x="932" y="391" type="curve" smooth="yes"/>
      <point x="932" y="313"/>
      <point x="878" y="166"/>
      <point x="726" y="166" type="curve" smooth="yes"/>
      <point x="578" y="166"/>
      <point x="515" y="285"/>
      <point x="515" y="391" type="curve" smooth="yes"/>
      <point x="515" y="472"/>
      <point x="543" y="601"/>
      <point x="654" y="636" type="curve" smooth="yes"/>
      <point x="809" y="601"/>
      <point x="932" y="508"/>
    </contour>
    <contour>
      <point x="546" y="1100" type="curve" smooth="yes"/>
      <point x="546" y="1177"/>
      <point x="599" y="1273"/>
      <point x="722" y="1273" type="curve" smooth="yes"/>
      <point x="848" y="1273"/>
      <point x="899" y="1184"/>
      <point x="899" y="1100" type="curve" smooth="yes"/>
      <point x="899" y="1030"/>
      <point x="871" y="917"/>
      <point x="781" y="889" type="curve" smooth="yes"/>
      <point x="642" y="921"/>
      <point x="546" y="1003"/>
    </contour>
  </outline>
</glyph>
<glyph name="nine" format="1">
  <advance width="1400"/>
  <unicode hex="0039"/>
  <outline>
    <contour>
      <point x="1362" y="817" type="curve" smooth="yes"/>
      <point x="1362" y="1221"/>
      <point x="1145" y="1461"/>
      <point x="850" y="1487" type="curve" smooth="yes"/>
      <point x="796" y="1493"/>
      <point x="741" y="1493"/>
      <point x="687" y="1489" type="curve" smooth="yes"/>
      <point x="372" y="1464"/>
      <point x="90" y="1275"/>
      <point x="90" y="952" type="curve" smooth="yes"/>
      <point x="90" y="662"/>
      <point x="326" y="452"/>
      <point x="623" y="452" type="curve" smooth="yes"/>
      <point x="710" y="452"/>
      <point x="803" y="470"/>
      <point x="884" y="498" type="curve"/>
      <point x="873" y="313"/>
      <point x="793" y="228"/>
      <point x="683" y="189" type="curve" smooth="yes"/>
      <point x="624" y="168"/>
      <point x="537" y="173"/>
      <point x="525" y="230" type="curve" smooth="yes"/>
      <point x="458" y="226"/>
      <point x="394" y="223"/>
      <point x="330" y="219" type="curve" smooth="yes"/>
      <point x="330" y="110"/>
      <point x="487" y="-53"/>
      <point x="738" y="-69" type="curve" smooth="yes"/>
      <point x="777" y="-71"/>
      <point x="813" y="-67"/>
      <point x="848" y="-60" type="curve" smooth="yes"/>
      <point x="885" y="-52"/>
      <point x="918" y="-38"/>
      <point x="948" y="-20" type="curve" smooth="yes"/>
      <point x="1157" y="164"/>
      <point x="1362" y="441"/>
    </contour>
    <contour>
      <point x="735" y="724" type="curve" smooth="yes"/>
      <point x="564" y="724"/>
      <point x="511" y="847"/>
      <point x="511" y="985" type="curve" smooth="yes"/>
      <point x="511" y="1110"/>
      <point x="559" y="1247"/>
      <point x="722" y="1247" type="curve" smooth="yes"/>
      <point x="884" y="1247"/>
      <point x="922" y="1094"/>
      <point x="930" y="973" type="curve" smooth="yes"/>
      <point x="932" y="946"/>
      <point x="932" y="920"/>
      <point x="932" y="894" type="curve" smooth="yes"/>
      <point x="930" y="851"/>
      <point x="925" y="796"/>
      <point x="915" y="755" type="curve"/>
      <point x="900" y="750"/>
      <point x="821" y="724"/>
    </contour>
  </outline>
</glyph>
<glyph name="colon" format="1">
  <advance width="624"/>
  <unicode hex="003A"/>
  <outline>
    <contour>
      <point x="541" y="1118" type="line"/>
      <point x="517" y="1127"/>
      <point x="490" y="1129"/>
      <point x="461" y="1129" type="curve" smooth="yes"/>
      <point x="363" y="1129"/>
      <point x="257" y="1128"/>
      <point x="157" y="1128" type="curve"/>
      <point x="133" y="1081"/>
      <point x="138" y="882"/>
      <point x="138" y="823" type="curve" smooth="yes"/>
      <point x="138" y="800"/>
      <point x="138" y="778"/>
      <point x="138" y="756" type="curve" smooth="yes"/>
      <point x="163" y="756"/>
      <point x="188" y="756"/>
      <point x="213" y="756" type="curve" smooth="yes"/>
      <point x="317" y="756"/>
      <point x="417" y="757"/>
      <point x="515" y="757" type="curve"/>
      <point x="526" y="780"/>
      <point x="526" y="807"/>
      <point x="528" y="849" type="curve"/>
    </contour>
    <contour>
      <point x="532" y="389" type="line"/>
      <point x="514" y="397"/>
      <point x="493" y="399"/>
      <point x="470" y="399" type="curve" smooth="yes"/>
      <point x="367" y="399"/>
      <point x="253" y="399"/>
      <point x="148" y="399" type="curve"/>
      <point x="124" y="346"/>
      <point x="129" y="142"/>
      <point x="129" y="78" type="curve" smooth="yes"/>
      <point x="129" y="61"/>
      <point x="129" y="44"/>
      <point x="130" y="27" type="curve" smooth="yes"/>
      <point x="148" y="27"/>
      <point x="167" y="27"/>
      <point x="186" y="27" type="curve" smooth="yes"/>
      <point x="296" y="27"/>
      <point x="403" y="28"/>
      <point x="506" y="28" type="curve"/>
      <point x="517" y="45"/>
      <point x="517" y="68"/>
      <point x="519" y="103" type="curve"/>
    </contour>
  </outline>
</glyph>
<glyph name="semicolon" format="1">
  <advance width="603"/>
  <unicode hex="003B"/>
  <outline>
    <contour>
      <point x="125" y="-236" type="curve" smooth="yes"/>
      <point x="136" y="-240"/>
      <point x="154" y="-243"/>
      <point x="176" y="-246" type="curve" smooth="yes"/>
      <point x="242" y="-274"/>
      <point x="255" y="-274"/>
      <point x="281" y="-271" type="curve" smooth="yes"/>
      <point x="347" y="-250"/>
      <point x="501" y="-121"/>
      <point x="519" y="67" type="curve" smooth="yes"/>
      <point x="521" y="89"/>
      <point x="522" y="112"/>
      <point x="524" y="141" type="curve"/>
      <point x="532" y="340" type="line"/>
      <point x="532" y="359"/>
      <point x="532" y="377"/>
      <point x="530" y="393" type="curve" smooth="yes"/>
      <point x="515" y="395"/>
      <point x="499" y="396"/>
      <point x="482" y="396" type="curve" smooth="yes"/>
      <point x="374" y="396"/>
      <point x="255" y="395"/>
      <point x="144" y="395" type="curve"/>
      <point x="123" y="344"/>
      <point x="122" y="159"/>
      <point x="120" y="90" type="curve" smooth="yes"/>
      <point x="120" y="41" type="line" smooth="yes"/>
      <point x="146" y="34"/>
      <point x="210" y="36"/>
      <point x="259" y="36" type="curve"/>
      <point x="242" y="-20"/>
      <point x="219" y="-71"/>
      <point x="126" y="-123" type="curve" smooth="yes"/>
      <point x="126" y="-161"/>
      <point x="125" y="-199"/>
    </contour>
    <contour>
      <point x="533" y="1118" type="line"/>
      <point x="510" y="1126"/>
      <point x="482" y="1129"/>
      <point x="453" y="1129" type="curve" smooth="yes"/>
      <point x="356" y="1128"/>
      <point x="249" y="1128"/>
      <point x="150" y="1128" type="curve"/>
      <point x="125" y="1081"/>
      <point x="130" y="881"/>
      <point x="130" y="823" type="curve" smooth="yes"/>
      <point x="130" y="800"/>
      <point x="130" y="778"/>
      <point x="131" y="756" type="curve" smooth="yes"/>
      <point x="155" y="755"/>
      <point x="180" y="755"/>
      <point x="205" y="755" type="curve" smooth="yes"/>
      <point x="310" y="755"/>
      <point x="409" y="756"/>
      <point x="507" y="757" type="curve"/>
      <point x="518" y="780"/>
      <point x="518" y="807"/>
      <point x="520" y="848" type="curve"/>
    </contour>
  </outline>
</glyph>
<glyph name="equal" format="1">
  <advance width="1074"/>
  <unicode hex="003D"/>
  <outline>
    <contour>
      <point x="984" y="441" type="curve"/>
      <point x="961" y="451"/>
      <point x="930" y="453"/>
      <point x="902" y="453" type="curve" smooth="yes"/>
      <point x="838" y="453"/>
      <point x="717" y="449"/>
      <point x="590" y="449" type="curve"/>
      <point x="248" y="447" type="line" smooth="yes"/>
      <point x="212" y="447"/>
      <point x="186" y="438"/>
      <point x="156" y="432" type="curve"/>
      <point x="145" y="353"/>
      <point x="131" y="249"/>
      <point x="131" y="188" type="curve" smooth="yes"/>
      <point x="154" y="177"/>
      <point x="194" y="175"/>
      <point x="253" y="175" type="curve" smooth="yes"/>
      <point x="413" y="175"/>
      <point x="642" y="177"/>
      <point x="865" y="180" type="curve"/>
      <point x="905" y="180"/>
      <point x="931" y="185"/>
      <point x="958" y="195" type="curve"/>
      <point x="969" y="283" type="line" smooth="yes"/>
      <point x="978" y="348"/>
      <point x="984" y="402"/>
    </contour>
    <contour>
      <point x="984" y="897" type="curve"/>
      <point x="957" y="908"/>
      <point x="923" y="910"/>
      <point x="891" y="910" type="curve" smooth="yes"/>
      <point x="818" y="910"/>
      <point x="690" y="906"/>
      <point x="555" y="906" type="curve"/>
      <point x="259" y="904" type="line" smooth="yes"/>
      <point x="219" y="904"/>
      <point x="190" y="895"/>
      <point x="156" y="889" type="curve"/>
      <point x="145" y="810"/>
      <point x="131" y="706"/>
      <point x="131" y="645" type="curve" smooth="yes"/>
      <point x="158" y="634"/>
      <point x="202" y="632"/>
      <point x="265" y="632" type="curve" smooth="yes"/>
      <point x="417" y="632"/>
      <point x="639" y="634"/>
      <point x="853" y="637" type="curve"/>
      <point x="898" y="637"/>
      <point x="927" y="641"/>
      <point x="958" y="652" type="curve"/>
      <point x="969" y="766" type="line" smooth="yes"/>
      <point x="978" y="822"/>
      <point x="984" y="867"/>
    </contour>
  </outline>
</glyph>
<glyph name="at" format="1">
  <advance width="1780"/>
  <unicode hex="0040"/>
  <outline>
    <contour>
      <point x="1047" y="486" type="curve"/>
      <point x="1014" y="463"/>
      <point x="982" y="448"/>
      <point x="958" y="448" type="curve" smooth="yes"/>
      <point x="902" y="448"/>
      <point x="870" y="496"/>
      <point x="870" y="605" type="curve" smooth="yes"/>
      <point x="870" y="660"/>
      <point x="891" y="836"/>
      <point x="997" y="836" type="curve" smooth="yes"/>
      <point x="1034" y="836"/>
      <point x="1068" y="810"/>
      <point x="1088" y="791" type="curve"/>
      <point x="1085" y="747"/>
      <point x="1076" y="678"/>
    </contour>
    <contour>
      <point x="1079" y="348" type="curve"/>
      <point x="1164" y="231"/>
      <point x="1264" y="184"/>
      <point x="1377" y="184" type="curve" smooth="yes"/>
      <point x="1596" y="184"/>
      <point x="1789" y="457"/>
      <point x="1789" y="737" type="curve" smooth="yes"/>
      <point x="1789" y="1138"/>
      <point x="1543" y="1478"/>
      <point x="1115" y="1478" type="curve" smooth="yes"/>
      <point x="578" y="1478"/>
      <point x="121" y="1083"/>
      <point x="121" y="499" type="curve" smooth="yes"/>
      <point x="121" y="42"/>
      <point x="459" y="-176"/>
      <point x="1008" y="-176" type="curve" smooth="yes"/>
      <point x="1048" y="-176"/>
      <point x="1061" y="-165"/>
      <point x="1085" y="-44" type="curve"/>
      <point x="1096" y="7"/>
      <point x="1102" y="40"/>
      <point x="1102" y="64" type="curve" smooth="yes"/>
      <point x="1102" y="103"/>
      <point x="1089" y="110"/>
      <point x="1066" y="110" type="curve" smooth="yes"/>
      <point x="663" y="110"/>
      <point x="454" y="241"/>
      <point x="454" y="569" type="curve" smooth="yes"/>
      <point x="454" y="773"/>
      <point x="601" y="1181"/>
      <point x="1026" y="1181" type="curve" smooth="yes"/>
      <point x="1366" y="1181"/>
      <point x="1520" y="971"/>
      <point x="1520" y="738" type="curve" smooth="yes"/>
      <point x="1520" y="470"/>
      <point x="1438" y="384"/>
      <point x="1385" y="384" type="curve" smooth="yes"/>
      <point x="1347" y="384"/>
      <point x="1315" y="439"/>
      <point x="1315" y="511" type="curve" smooth="yes"/>
      <point x="1315" y="520"/>
      <point x="1315" y="530"/>
      <point x="1316" y="537" type="curve" smooth="yes"/>
      <point x="1382" y="1019" type="line"/>
      <point x="1302" y="1019"/>
      <point x="1233" y="1018"/>
      <point x="1164" y="1029" type="curve"/>
      <point x="1127" y="1026"/>
      <point x="1136" y="1022"/>
      <point x="1125" y="971" type="curve"/>
      <point x="1082" y="1010"/>
      <point x="1032" y="1037"/>
      <point x="972" y="1037" type="curve" smooth="yes"/>
      <point x="767" y="1037"/>
      <point x="575" y="853"/>
      <point x="575" y="585" type="curve" smooth="yes"/>
      <point x="575" y="374"/>
      <point x="723" y="242"/>
      <point x="882" y="242" type="curve" smooth="yes"/>
      <point x="947" y="242"/>
      <point x="1015" y="275"/>
    </contour>
  </outline>
</glyph>
<glyph name="A" format="1">
  <advance width="1626"/>
  <unicode hex="0041"/>
  <outline>
    <contour>
      <point x="56" y="33" type="curve"/>
      <point x="122" y="13"/>
      <point x="197" y="-7"/>
      <point x="291" y="-28" type="curve" smooth="yes"/>
      <point x="329" y="-28"/>
      <point x="367" y="-28"/>
      <point x="406" y="-28" type="curve" smooth="yes"/>
      <point x="444" y="25"/>
      <point x="497" y="169"/>
      <point x="531" y="257" type="curve"/>
      <point x="670" y="256" type="line" smooth="yes"/>
      <point x="684" y="256"/>
      <point x="704" y="255"/>
      <point x="721" y="255" type="curve" smooth="yes"/>
      <point x="787" y="255"/>
      <point x="831" y="257"/>
      <point x="914" y="257" type="curve" smooth="yes"/>
      <point x="966" y="257"/>
      <point x="1024" y="255"/>
      <point x="1065" y="249" type="curve"/>
      <point x="1086" y="174"/>
      <point x="1109" y="128"/>
      <point x="1132" y="62" type="curve"/>
      <point x="1144" y="33"/>
      <point x="1157" y="4"/>
      <point x="1169" y="-25" type="curve" smooth="yes"/>
      <point x="1200" y="-28"/>
      <point x="1233" y="-28"/>
      <point x="1268" y="-28" type="curve" smooth="yes"/>
      <point x="1276" y="-28"/>
      <point x="1310" y="-17"/>
      <point x="1339" y="-6" type="curve"/>
      <point x="1522" y="26" type="line" smooth="yes"/>
      <point x="1556" y="27"/>
      <point x="1588" y="29"/>
      <point x="1617" y="31" type="curve" smooth="yes"/>
      <point x="1602" y="71"/>
      <point x="1574" y="107"/>
      <point x="1548" y="184" type="curve"/>
      <point x="1397" y="562"/>
      <point x="1234" y="1004"/>
      <point x="1088" y="1348" type="curve"/>
      <point x="1072" y="1387"/>
      <point x="1054" y="1425"/>
      <point x="1035" y="1461" type="curve" smooth="yes"/>
      <point x="1002" y="1466"/>
      <point x="967" y="1465"/>
      <point x="933" y="1465" type="curve" smooth="yes"/>
      <point x="809" y="1465"/>
      <point x="704" y="1434"/>
      <point x="645" y="1421" type="curve"/>
      <point x="532" y="1165"/>
      <point x="394" y="826"/>
      <point x="273" y="538" type="curve"/>
      <point x="274" y="538"/>
      <point x="178" y="537"/>
      <point x="179" y="534" type="curve"/>
      <point x="164" y="463"/>
      <point x="174" y="386"/>
      <point x="181" y="320" type="curve"/>
      <point x="138" y="221"/>
      <point x="97" y="121"/>
    </contour>
    <contour>
      <point x="817" y="993" type="curve"/>
      <point x="867" y="815"/>
      <point x="919" y="672"/>
      <point x="969" y="525" type="curve"/>
      <point x="640" y="525" type="line"/>
      <point x="654" y="556"/>
      <point x="665" y="589"/>
      <point x="678" y="620" type="curve"/>
      <point x="710" y="703"/>
      <point x="764" y="829"/>
    </contour>
  </outline>
</glyph>
<glyph name="B" format="1">
  <advance width="1557"/>
  <unicode hex="0042"/>
  <outline>
    <contour>
      <point x="253" y="13" type="curve"/>
      <point x="363" y="-11"/>
      <point x="597" y="-52"/>
      <point x="688" y="-52" type="curve" smooth="yes"/>
      <point x="1060" y="-52"/>
      <point x="1432" y="202"/>
      <point x="1432" y="538" type="curve" smooth="yes"/>
      <point x="1432" y="685"/>
      <point x="1354" y="730"/>
      <point x="1225" y="824" type="curve"/>
      <point x="1316" y="888"/>
      <point x="1422" y="984"/>
      <point x="1422" y="1093" type="curve" smooth="yes"/>
      <point x="1422" y="1346"/>
      <point x="1186" y="1468"/>
      <point x="894" y="1468" type="curve" smooth="yes"/>
      <point x="686" y="1468"/>
      <point x="445" y="1413"/>
      <point x="243" y="1304" type="curve"/>
      <point x="204" y="1208"/>
      <point x="165" y="1122"/>
      <point x="129" y="1018" type="curve" smooth="yes"/>
      <point x="127" y="1013"/>
      <point x="126" y="1007"/>
      <point x="126" y="1001" type="curve" smooth="yes"/>
      <point x="126" y="985"/>
      <point x="133" y="969"/>
      <point x="150" y="969" type="curve" smooth="yes"/>
      <point x="190" y="969"/>
      <point x="290" y="1009"/>
      <point x="301" y="1009" type="curve"/>
      <point x="302" y="1009" type="line"/>
      <point x="273" y="703"/>
      <point x="241" y="347"/>
      <point x="220" y="60" type="curve" smooth="yes"/>
      <point x="220" y="56"/>
      <point x="219" y="56"/>
      <point x="219" y="52" type="curve" smooth="yes"/>
      <point x="219" y="35"/>
      <point x="226" y="20"/>
    </contour>
    <contour>
      <point x="714" y="1110" type="curve"/>
      <point x="783" y="1134"/>
      <point x="842" y="1146"/>
      <point x="893" y="1146" type="curve" smooth="yes"/>
      <point x="982" y="1146"/>
      <point x="1031" y="1086"/>
      <point x="1031" y="977" type="curve" smooth="yes"/>
      <point x="1031" y="900"/>
      <point x="923" y="847"/>
      <point x="851" y="820" type="curve"/>
      <point x="809" y="753" type="line" smooth="yes"/>
      <point x="772" y="693"/>
      <point x="749" y="660"/>
      <point x="749" y="643" type="curve" smooth="yes"/>
      <point x="749" y="627"/>
      <point x="752" y="616"/>
      <point x="771" y="613" type="curve" smooth="yes"/>
      <point x="822" y="605"/>
      <point x="1047" y="582"/>
      <point x="1047" y="468" type="curve" smooth="yes"/>
      <point x="1047" y="284"/>
      <point x="788" y="233"/>
      <point x="629" y="233" type="curve"/>
      <point x="648" y="449"/>
      <point x="663" y="795"/>
    </contour>
  </outline>
</glyph>
<glyph name="C" format="1">
  <advance width="1475"/>
  <unicode hex="0043"/>
  <outline>
    <contour>
      <point x="96" y="699" type="curve" smooth="yes"/>
      <point x="96" y="248"/>
      <point x="406" y="-49"/>
      <point x="842" y="-49" type="curve" smooth="yes"/>
      <point x="1001" y="-49"/>
      <point x="1155" y="-22"/>
      <point x="1273" y="55" type="curve"/>
      <point x="1306" y="76"/>
      <point x="1333" y="189"/>
      <point x="1356" y="268" type="curve" smooth="yes"/>
      <point x="1379" y="311"/>
      <point x="1394" y="352"/>
      <point x="1404" y="396" type="curve" smooth="yes"/>
      <point x="1343" y="412"/>
      <point x="1282" y="427"/>
      <point x="1223" y="442" type="curve" smooth="yes"/>
      <point x="1142" y="331"/>
      <point x="1087" y="247"/>
      <point x="884" y="247" type="curve" smooth="yes"/>
      <point x="622" y="247"/>
      <point x="540" y="466"/>
      <point x="540" y="709" type="curve" smooth="yes"/>
      <point x="540" y="969"/>
      <point x="654" y="1186"/>
      <point x="915" y="1186" type="curve" smooth="yes"/>
      <point x="1115" y="1186"/>
      <point x="1194" y="1054"/>
      <point x="1248" y="958" type="curve" smooth="yes"/>
      <point x="1281" y="965"/>
      <point x="1314" y="972"/>
      <point x="1346" y="980" type="curve" smooth="yes"/>
      <point x="1384" y="988"/>
      <point x="1416" y="1001"/>
      <point x="1445" y="1013" type="curve" smooth="yes"/>
      <point x="1432" y="1103"/>
      <point x="1407" y="1229"/>
      <point x="1386" y="1281" type="curve" smooth="yes"/>
      <point x="1386" y="1284"/>
      <point x="1386" y="1284"/>
      <point x="1386" y="1284" type="curve" smooth="yes"/>
      <point x="1296" y="1408"/>
      <point x="1139" y="1484"/>
      <point x="893" y="1484" type="curve" smooth="yes"/>
      <point x="427" y="1484"/>
      <point x="96" y="1161"/>
    </contour>
  </outline>
</glyph>
<glyph name="D" format="1">
  <advance width="1638"/>
  <unicode hex="0044"/>
  <outline>
    <contour>
      <point x="120" y="1292" type="curve" smooth="yes"/>
      <point x="141" y="1216"/>
      <point x="180" y="1148"/>
      <point x="212" y="1079" type="curve"/>
      <point x="206" y="871" type="line"/>
      <point x="198" y="659"/>
      <point x="194" y="385"/>
      <point x="182" y="217" type="curve"/>
      <point x="163" y="182"/>
      <point x="145" y="147"/>
      <point x="126" y="112" type="curve" smooth="yes"/>
      <point x="125" y="110"/>
      <point x="125" y="108"/>
      <point x="125" y="105" type="curve" smooth="yes"/>
      <point x="125" y="60"/>
      <point x="127" y="16"/>
      <point x="134" y="-23" type="curve"/>
      <point x="419" y="-23" type="line" smooth="yes"/>
      <point x="527" y="-23"/>
      <point x="637" y="-21"/>
      <point x="747" y="-15" type="curve" smooth="yes"/>
      <point x="1229" y="15"/>
      <point x="1602" y="283"/>
      <point x="1602" y="776" type="curve" smooth="yes"/>
      <point x="1602" y="1188"/>
      <point x="1306" y="1461"/>
      <point x="791" y="1461" type="curve" smooth="yes"/>
      <point x="677" y="1461"/>
      <point x="649" y="1454"/>
      <point x="612" y="1421" type="curve" smooth="yes"/>
      <point x="522" y="1396"/>
      <point x="367" y="1326"/>
      <point x="302" y="1306" type="curve" smooth="yes"/>
      <point x="238" y="1299"/>
      <point x="177" y="1292"/>
    </contour>
    <contour>
      <point x="611" y="1124" type="curve"/>
      <point x="701" y="1178" type="line"/>
      <point x="706" y="1182"/>
      <point x="715" y="1186"/>
      <point x="723" y="1186" type="curve" smooth="yes"/>
      <point x="1026" y="1186"/>
      <point x="1165" y="1035"/>
      <point x="1165" y="737" type="curve" smooth="yes"/>
      <point x="1165" y="352"/>
      <point x="982" y="248"/>
      <point x="581" y="254" type="curve"/>
      <point x="582" y="398" type="line" smooth="yes"/>
      <point x="588" y="580"/>
      <point x="600" y="882"/>
    </contour>
  </outline>
</glyph>
<glyph name="E" format="1">
  <advance width="1398"/>
  <unicode hex="0045"/>
  <outline>
    <contour>
      <point x="118" y="7" type="curve"/>
      <point x="286" y="-16"/>
      <point x="722" y="-23"/>
      <point x="965" y="-23" type="curve" smooth="yes"/>
      <point x="1033" y="-23"/>
      <point x="1094" y="-22"/>
      <point x="1148" y="0" type="curve"/>
      <point x="1208" y="25"/>
      <point x="1289" y="91"/>
      <point x="1333" y="93" type="curve"/>
      <point x="1333" y="265" type="line"/>
      <point x="566" y="265" type="line"/>
      <point x="579" y="588" type="line"/>
      <point x="855" y="589" type="line"/>
      <point x="933" y="590"/>
      <point x="969" y="589"/>
      <point x="1012" y="605" type="curve" smooth="yes"/>
      <point x="1067" y="649"/>
      <point x="1125" y="695"/>
      <point x="1166" y="712" type="curve" smooth="yes"/>
      <point x="1167" y="761"/>
      <point x="1167" y="809"/>
      <point x="1167" y="857" type="curve" smooth="yes"/>
      <point x="1131" y="867"/>
      <point x="1088" y="870"/>
      <point x="1048" y="870" type="curve" smooth="yes"/>
      <point x="926" y="870"/>
      <point x="760" y="867"/>
      <point x="592" y="865" type="curve"/>
      <point x="599" y="979"/>
      <point x="598" y="1078"/>
      <point x="605" y="1163" type="curve"/>
      <point x="862" y="1166"/>
      <point x="1135" y="1161"/>
      <point x="1316" y="1186" type="curve"/>
      <point x="1336" y="1309" type="line"/>
      <point x="1343" y="1325"/>
      <point x="1350" y="1340"/>
      <point x="1354" y="1353" type="curve" smooth="yes"/>
      <point x="1360" y="1448" type="line"/>
      <point x="1319" y="1461"/>
      <point x="1266" y="1461"/>
      <point x="1224" y="1461" type="curve" smooth="yes"/>
      <point x="758" y="1445" type="line"/>
      <point x="325" y="1445" type="line"/>
      <point x="268" y="1418"/>
      <point x="164" y="1325"/>
      <point x="123" y="1310" type="curve" smooth="yes"/>
      <point x="123" y="1225"/>
      <point x="134" y="1146"/>
      <point x="163" y="1070" type="curve" smooth="yes"/>
      <point x="172" y="1070"/>
      <point x="182" y="1070"/>
      <point x="195" y="1071" type="curve"/>
      <point x="196" y="1071"/>
      <point x="196" y="1071"/>
      <point x="197" y="1071" type="curve"/>
      <point x="186" y="804" type="line"/>
      <point x="164" y="735"/>
      <point x="125" y="648"/>
      <point x="125" y="601" type="curve" smooth="yes"/>
      <point x="125" y="591"/>
      <point x="142" y="589"/>
      <point x="178" y="588" type="curve"/>
      <point x="178" y="549"/>
      <point x="176" y="495"/>
      <point x="174" y="423" type="curve" smooth="yes"/>
      <point x="167" y="207" type="line"/>
      <point x="144" y="127"/>
      <point x="113" y="45"/>
    </contour>
  </outline>
</glyph>
<glyph name="F" format="1">
  <advance width="1322"/>
  <unicode hex="0046"/>
  <outline>
    <contour>
      <point x="121" y="1310" type="curve" smooth="yes"/>
      <point x="121" y="1241"/>
      <point x="132" y="1180"/>
      <point x="160" y="1120" type="curve" smooth="yes"/>
      <point x="173" y="1120"/>
      <point x="183" y="1121"/>
      <point x="206" y="1121" type="curve"/>
      <point x="197" y="820" type="line"/>
      <point x="193" y="784"/>
      <point x="117" y="639"/>
      <point x="117" y="601" type="curve" smooth="yes"/>
      <point x="117" y="560"/>
      <point x="136" y="529"/>
      <point x="186" y="500" type="curve"/>
      <point x="182" y="357"/>
      <point x="167" y="149"/>
      <point x="169" y="-14" type="curve"/>
      <point x="194" y="-28"/>
      <point x="230" y="-31"/>
      <point x="267" y="-31" type="curve" smooth="yes"/>
      <point x="346" y="-31"/>
      <point x="508" y="19"/>
      <point x="562" y="22" type="curve" smooth="yes"/>
      <point x="567" y="49"/>
      <point x="569" y="79"/>
      <point x="570" y="109" type="curve" smooth="yes"/>
      <point x="586" y="526" type="line"/>
      <point x="941" y="528" type="line" smooth="yes"/>
      <point x="1008" y="529"/>
      <point x="1062" y="533"/>
      <point x="1115" y="544" type="curve"/>
      <point x="1140" y="651"/>
      <point x="1163" y="763"/>
      <point x="1163" y="823" type="curve" smooth="yes"/>
      <point x="1139" y="833"/>
      <point x="1106" y="836"/>
      <point x="1076" y="836" type="curve" smooth="yes"/>
      <point x="957" y="836"/>
      <point x="778" y="832"/>
      <point x="600" y="830" type="curve"/>
      <point x="603" y="939"/>
      <point x="602" y="1021"/>
      <point x="611" y="1139" type="curve"/>
      <point x="1074" y="1146" type="line"/>
      <point x="1164" y="1148"/>
      <point x="1262" y="1143"/>
      <point x="1325" y="1165" type="curve" smooth="yes"/>
      <point x="1345" y="1301" type="line"/>
      <point x="1361" y="1369"/>
      <point x="1369" y="1417"/>
      <point x="1369" y="1448" type="curve" smooth="yes"/>
      <point x="1339" y="1461"/>
      <point x="1298" y="1461"/>
      <point x="1267" y="1461" type="curve" smooth="yes"/>
      <point x="1183" y="1460"/>
      <point x="1014" y="1455"/>
      <point x="849" y="1452" type="curve" smooth="yes"/>
      <point x="288" y="1444" type="line"/>
      <point x="242" y="1417"/>
      <point x="150" y="1325"/>
    </contour>
  </outline>
</glyph>
<glyph name="G" format="1">
  <advance width="1579"/>
  <unicode hex="0047"/>
  <outline>
    <contour>
      <point x="97" y="683" type="curve" smooth="yes"/>
      <point x="97" y="216"/>
      <point x="405" y="-49"/>
      <point x="822" y="-49" type="curve" smooth="yes"/>
      <point x="1043" y="-49"/>
      <point x="1180" y="2"/>
      <point x="1339" y="158" type="curve"/>
      <point x="1366" y="131"/>
      <point x="1392" y="144"/>
      <point x="1418" y="154" type="curve" smooth="yes"/>
      <point x="1438" y="163"/>
      <point x="1457" y="172"/>
      <point x="1484" y="172" type="curve" smooth="yes"/>
      <point x="1518" y="229"/>
      <point x="1518" y="288"/>
      <point x="1529" y="384" type="curve"/>
      <point x="1551" y="632" type="line"/>
      <point x="1553" y="671"/>
      <point x="1554" y="707"/>
      <point x="1554" y="741" type="curve" smooth="yes"/>
      <point x="1523" y="752"/>
      <point x="1486" y="752"/>
      <point x="1441" y="752" type="curve" smooth="yes"/>
      <point x="1016" y="752" type="line" smooth="yes"/>
      <point x="977" y="752"/>
      <point x="940" y="751"/>
      <point x="902" y="744" type="curve" smooth="yes"/>
      <point x="891" y="690"/>
      <point x="881" y="613"/>
      <point x="863" y="477" type="curve"/>
      <point x="1123" y="477" type="line"/>
      <point x="1117" y="314"/>
      <point x="1054" y="217"/>
      <point x="882" y="217" type="curve" smooth="yes"/>
      <point x="634" y="217"/>
      <point x="541" y="407"/>
      <point x="541" y="681" type="curve" smooth="yes"/>
      <point x="541" y="952"/>
      <point x="636" y="1187"/>
      <point x="928" y="1187" type="curve" smooth="yes"/>
      <point x="1126" y="1187"/>
      <point x="1205" y="1057"/>
      <point x="1260" y="970" type="curve" smooth="yes"/>
      <point x="1293" y="977"/>
      <point x="1326" y="984"/>
      <point x="1358" y="992" type="curve" smooth="yes"/>
      <point x="1397" y="999"/>
      <point x="1427" y="1013"/>
      <point x="1457" y="1024" type="curve" smooth="yes"/>
      <point x="1447" y="1104"/>
      <point x="1426" y="1222"/>
      <point x="1410" y="1268" type="curve" smooth="yes"/>
      <point x="1394" y="1298"/>
      <point x="1374" y="1322"/>
      <point x="1353" y="1343" type="curve" smooth="yes"/>
      <point x="1262" y="1426"/>
      <point x="1119" y="1484"/>
      <point x="898" y="1484" type="curve" smooth="yes"/>
      <point x="432" y="1484"/>
      <point x="97" y="1154"/>
    </contour>
  </outline>
</glyph>
<glyph name="H" format="1">
  <advance width="1573"/>
  <unicode hex="0048"/>
  <outline>
    <contour>
      <point x="194" y="1392" type="curve"/>
      <point x="191" y="1297"/>
      <point x="186" y="1165"/>
      <point x="186" y="1103" type="curve"/>
      <point x="175" y="817" type="line"/>
      <point x="169" y="777"/>
      <point x="94" y="638"/>
      <point x="94" y="599" type="curve" smooth="yes"/>
      <point x="94" y="558"/>
      <point x="114" y="527"/>
      <point x="163" y="497" type="curve"/>
      <point x="154" y="323"/>
      <point x="145" y="135"/>
      <point x="145" y="-14" type="curve" smooth="yes"/>
      <point x="170" y="-27"/>
      <point x="201" y="-31"/>
      <point x="234" y="-31" type="curve" smooth="yes"/>
      <point x="287" y="-31"/>
      <point x="466" y="11"/>
      <point x="538" y="22" type="curve" smooth="yes"/>
      <point x="545" y="53"/>
      <point x="545" y="86"/>
      <point x="545" y="119" type="curve" smooth="yes"/>
      <point x="564" y="564" type="line"/>
      <point x="1075" y="564" type="line"/>
      <point x="1063" y="403"/>
      <point x="1056" y="228"/>
      <point x="1056" y="69" type="curve" smooth="yes"/>
      <point x="1056" y="28"/>
      <point x="1063" y="-3"/>
      <point x="1072" y="-31" type="curve" smooth="yes"/>
      <point x="1165" y="-31"/>
      <point x="1362" y="17"/>
      <point x="1448" y="22" type="curve" smooth="yes"/>
      <point x="1454" y="54"/>
      <point x="1455" y="90"/>
      <point x="1456" y="125" type="curve" smooth="yes"/>
      <point x="1477" y="613" type="line" smooth="yes"/>
      <point x="1482" y="697"/>
      <point x="1485" y="770"/>
      <point x="1490" y="837" type="curve" smooth="yes"/>
      <point x="1498" y="990" type="line"/>
      <point x="1510" y="1098"/>
      <point x="1512" y="1232"/>
      <point x="1517" y="1353" type="curve"/>
      <point x="1517" y="1390"/>
      <point x="1516" y="1425"/>
      <point x="1514" y="1457" type="curve" smooth="yes"/>
      <point x="1489" y="1460"/>
      <point x="1463" y="1461"/>
      <point x="1435" y="1461" type="curve" smooth="yes"/>
      <point x="1431" y="1461"/>
      <point x="1427" y="1461"/>
      <point x="1423" y="1459" type="curve"/>
      <point x="1127" y="1422" type="line" smooth="yes"/>
      <point x="1110" y="1314"/>
      <point x="1111" y="1206"/>
      <point x="1095" y="870" type="curve"/>
      <point x="576" y="868" type="line"/>
      <point x="585" y="1015" type="line"/>
      <point x="596" y="1124"/>
      <point x="596" y="1226"/>
      <point x="605" y="1364" type="curve"/>
      <point x="605" y="1405"/>
      <point x="602" y="1435"/>
      <point x="594" y="1461" type="curve" smooth="yes"/>
      <point x="565" y="1461"/>
      <point x="537" y="1461"/>
      <point x="508" y="1459" type="curve"/>
      <point x="457" y="1447"/>
      <point x="406" y="1435"/>
      <point x="355" y="1422" type="curve" smooth="yes"/>
      <point x="294" y="1419"/>
      <point x="245" y="1413"/>
    </contour>
  </outline>
</glyph>
<glyph name="I" format="1">
  <advance width="635"/>
  <unicode hex="0049"/>
  <outline>
    <contour>
      <point x="566" y="1461" type="curve" smooth="yes"/>
      <point x="525" y="1461"/>
      <point x="484" y="1461"/>
      <point x="443" y="1459" type="curve"/>
      <point x="177" y="1422" type="line"/>
      <point x="165" y="1366"/>
      <point x="165" y="1306"/>
      <point x="164" y="1231" type="curve"/>
      <point x="164" y="1125"/>
      <point x="157" y="926"/>
      <point x="142" y="613" type="curve" smooth="yes"/>
      <point x="120" y="146" type="line"/>
      <point x="120" y="80"/>
      <point x="126" y="23"/>
      <point x="135" y="-31" type="curve" smooth="yes"/>
      <point x="229" y="-31"/>
      <point x="437" y="13"/>
      <point x="520" y="13" type="curve"/>
      <point x="527" y="70"/>
      <point x="528" y="128"/>
      <point x="528" y="187" type="curve" smooth="yes"/>
      <point x="548" y="584" type="line"/>
      <point x="561" y="846"/>
      <point x="559" y="1022"/>
      <point x="577" y="1282" type="curve"/>
      <point x="577" y="1351"/>
      <point x="575" y="1407"/>
    </contour>
  </outline>
</glyph>
<glyph name="J" format="1">
  <advance width="860"/>
  <unicode hex="004A"/>
  <outline>
    <contour>
      <point x="806" y="1442" type="line"/>
      <point x="781" y="1456"/>
      <point x="754" y="1461"/>
      <point x="721" y="1461" type="curve" smooth="yes"/>
      <point x="717" y="1461"/>
      <point x="713" y="1461"/>
      <point x="709" y="1459" type="curve"/>
      <point x="406" y="1422" type="line"/>
      <point x="394" y="1390"/>
      <point x="395" y="1355"/>
      <point x="393" y="1304" type="curve"/>
      <point x="373" y="511" type="line" smooth="yes"/>
      <point x="371" y="460"/>
      <point x="377" y="383"/>
      <point x="375" y="315" type="curve" smooth="yes"/>
      <point x="374" y="263"/>
      <point x="365" y="220"/>
      <point x="337" y="205" type="curve" smooth="yes"/>
      <point x="314" y="187"/>
      <point x="298" y="190"/>
      <point x="289" y="214" type="curve" smooth="yes"/>
      <point x="273" y="199"/>
      <point x="245" y="197"/>
      <point x="218" y="196" type="curve"/>
      <point x="164" y="194"/>
      <point x="108" y="190"/>
      <point x="56" y="188" type="curve" smooth="yes"/>
      <point x="49" y="139"/>
      <point x="46" y="88"/>
      <point x="49" y="39" type="curve" smooth="yes"/>
      <point x="51" y="9"/>
      <point x="56" y="-20"/>
      <point x="67" y="-48" type="curve"/>
      <point x="91" y="-91"/>
      <point x="119" y="-120"/>
      <point x="236" y="-132" type="curve" smooth="yes"/>
      <point x="293" y="-139"/>
      <point x="355" y="-135"/>
      <point x="418" y="-121" type="curve" smooth="yes"/>
      <point x="573" y="-81"/>
      <point x="758" y="48"/>
      <point x="766" y="298" type="curve" smooth="yes"/>
      <point x="767" y="491" type="line" smooth="yes"/>
      <point x="769" y="580"/>
      <point x="777" y="713"/>
      <point x="785" y="853" type="curve" smooth="yes"/>
      <point x="793" y="1118" type="line"/>
    </contour>
  </outline>
</glyph>
<glyph name="K" format="1">
  <advance width="1549"/>
  <unicode hex="004B"/>
  <outline>
    <contour>
      <point x="1483" y="1439" type="curve" smooth="yes"/>
      <point x="1442" y="1444"/>
      <point x="1397" y="1445"/>
      <point x="1348" y="1445" type="curve" smooth="yes"/>
      <point x="1346" y="1445"/>
      <point x="1344" y="1445"/>
      <point x="1344" y="1444" type="curve"/>
      <point x="1024" y="1428" type="line"/>
      <point x="969" y="1367"/>
      <point x="884" y="1267"/>
      <point x="801" y="1169" type="curve"/>
      <point x="660" y="1001" type="line"/>
      <point x="559" y="890" type="line"/>
      <point x="564" y="1008"/>
      <point x="572" y="1220"/>
      <point x="575" y="1324" type="curve"/>
      <point x="575" y="1371"/>
      <point x="575" y="1416"/>
      <point x="573" y="1458" type="curve" smooth="yes"/>
      <point x="534" y="1461"/>
      <point x="494" y="1462"/>
      <point x="453" y="1462" type="curve" smooth="yes"/>
      <point x="449" y="1462"/>
      <point x="445" y="1461"/>
      <point x="441" y="1460" type="curve"/>
      <point x="175" y="1423" type="line"/>
      <point x="164" y="1376"/>
      <point x="164" y="1325"/>
      <point x="163" y="1259" type="curve" smooth="yes"/>
      <point x="151" y="937" type="line"/>
      <point x="138" y="616"/>
      <point x="126" y="324"/>
      <point x="121" y="119" type="curve"/>
      <point x="121" y="68"/>
      <point x="122" y="20"/>
      <point x="125" y="-27" type="curve" smooth="yes"/>
      <point x="165" y="-30"/>
      <point x="206" y="-31"/>
      <point x="247" y="-31" type="curve" smooth="yes"/>
      <point x="258" y="-31"/>
      <point x="269" y="-26"/>
      <point x="276" y="-24" type="curve" smooth="yes"/>
      <point x="514" y="22" type="line" smooth="yes"/>
      <point x="520" y="64"/>
      <point x="521" y="109"/>
      <point x="521" y="155" type="curve" smooth="yes"/>
      <point x="537" y="465" type="line"/>
      <point x="542" y="510"/>
      <point x="547" y="553"/>
      <point x="552" y="598" type="curve"/>
      <point x="625" y="515"/>
      <point x="719" y="403"/>
      <point x="815" y="290" type="curve" smooth="yes"/>
      <point x="943" y="137"/>
      <point x="1023" y="34"/>
      <point x="1101" y="-25" type="curve" smooth="yes"/>
      <point x="1241" y="-25"/>
      <point x="1431" y="59"/>
      <point x="1523" y="57" type="curve" smooth="yes"/>
      <point x="1490" y="98"/>
      <point x="1442" y="135"/>
      <point x="1404" y="177" type="curve" smooth="yes"/>
      <point x="1070" y="547" type="line"/>
      <point x="1022" y="598"/>
      <point x="938" y="688"/>
      <point x="869" y="762" type="curve"/>
      <point x="1041" y="937"/>
      <point x="1183" y="1093"/>
      <point x="1385" y="1326" type="curve" smooth="yes"/>
      <point x="1421" y="1367"/>
      <point x="1455" y="1403"/>
    </contour>
  </outline>
</glyph>
<glyph name="L" format="1">
  <advance width="1102"/>
  <unicode hex="004C"/>
  <outline>
    <contour>
      <point x="95" y="-16" type="curve" smooth="yes"/>
      <point x="133" y="-21"/>
      <point x="178" y="-23"/>
      <point x="232" y="-23" type="curve"/>
      <point x="416" y="-21"/>
      <point x="744" y="-17"/>
      <point x="908" y="-13" type="curve" smooth="yes"/>
      <point x="986" y="-9"/>
      <point x="1031" y="14"/>
      <point x="1082" y="52" type="curve" smooth="yes"/>
      <point x="1092" y="160" type="line" smooth="yes"/>
      <point x="1105" y="227"/>
      <point x="1107" y="256"/>
      <point x="1107" y="285" type="curve" smooth="yes"/>
      <point x="1068" y="294"/>
      <point x="1027" y="298"/>
      <point x="975" y="298" type="curve" smooth="yes"/>
      <point x="969" y="298"/>
      <point x="962" y="298"/>
      <point x="954" y="297" type="curve" smooth="yes"/>
      <point x="533" y="278" type="line"/>
      <point x="548" y="596"/>
      <point x="557" y="777"/>
      <point x="564" y="1016" type="curve"/>
      <point x="564" y="1073"/>
      <point x="580" y="1239"/>
      <point x="580" y="1320" type="curve" smooth="yes"/>
      <point x="580" y="1331"/>
      <point x="578" y="1334"/>
      <point x="571" y="1334" type="curve" smooth="yes"/>
      <point x="566" y="1377"/>
      <point x="562" y="1419"/>
      <point x="559" y="1461" type="curve"/>
      <point x="291" y="1424" type="line"/>
      <point x="242" y="1422"/>
      <point x="206" y="1415"/>
      <point x="167" y="1393" type="curve" smooth="yes"/>
      <point x="167" y="1346"/>
      <point x="166" y="1278"/>
      <point x="162" y="1178" type="curve" smooth="yes"/>
      <point x="155" y="925" type="line" smooth="yes"/>
      <point x="151" y="784"/>
      <point x="146" y="637"/>
      <point x="141" y="494" type="curve"/>
      <point x="129" y="200" type="line"/>
      <point x="114" y="125"/>
      <point x="95" y="42"/>
    </contour>
  </outline>
</glyph>
<glyph name="M" format="1">
  <advance width="1841"/>
  <unicode hex="004D"/>
  <outline>
    <contour>
      <point x="221" y="1426" type="line"/>
      <point x="221" y="1380"/>
      <point x="213" y="1298"/>
      <point x="205" y="1217" type="curve"/>
      <point x="133" y="486" type="line"/>
      <point x="125" y="407"/>
      <point x="116" y="288"/>
      <point x="100" y="203" type="curve"/>
      <point x="94" y="141"/>
      <point x="86" y="67"/>
      <point x="86" y="17" type="curve" smooth="yes"/>
      <point x="115" y="-3"/>
      <point x="241" y="-30"/>
      <point x="304" y="-30" type="curve" smooth="yes"/>
      <point x="340" y="-30"/>
      <point x="373" y="-29"/>
      <point x="403" y="-25" type="curve" smooth="yes"/>
      <point x="481" y="944" type="line"/>
      <point x="576" y="617"/>
      <point x="676" y="240"/>
      <point x="778" y="30" type="curve" smooth="yes"/>
      <point x="842" y="30"/>
      <point x="907" y="35"/>
      <point x="973" y="50" type="curve"/>
      <point x="1363" y="985" type="line"/>
      <point x="1380" y="602" type="line"/>
      <point x="1388" y="415"/>
      <point x="1396" y="96"/>
      <point x="1430" y="-30" type="curve" smooth="yes"/>
      <point x="1494" y="-30"/>
      <point x="1692" y="2"/>
      <point x="1758" y="15" type="curve" smooth="yes"/>
      <point x="1762" y="162" type="line"/>
      <point x="1732" y="672" type="line" smooth="yes"/>
      <point x="1726" y="857"/>
      <point x="1707" y="1065"/>
      <point x="1680" y="1439" type="curve"/>
      <point x="1645" y="1456"/>
      <point x="1605" y="1462"/>
      <point x="1561" y="1462" type="curve" smooth="yes"/>
      <point x="1559" y="1462"/>
      <point x="1556" y="1461"/>
      <point x="1553" y="1461" type="curve"/>
      <point x="1215" y="1423" type="line"/>
      <point x="918" y="671" type="line"/>
      <point x="851" y="890"/>
      <point x="785" y="1110"/>
      <point x="719" y="1329" type="curve"/>
      <point x="706" y="1374"/>
      <point x="691" y="1418"/>
      <point x="676" y="1460" type="curve" smooth="yes"/>
      <point x="636" y="1461"/>
      <point x="595" y="1461"/>
      <point x="554" y="1461" type="curve"/>
    </contour>
  </outline>
</glyph>
<glyph name="N" format="1">
  <advance width="1536"/>
  <unicode hex="004E"/>
  <outline>
    <contour>
      <point x="128" y="1385" type="curve" smooth="yes"/>
      <point x="128" y="1301"/>
      <point x="164" y="1167"/>
      <point x="164" y="1086" type="curve"/>
      <point x="156" y="767"/>
      <point x="137" y="402"/>
      <point x="125" y="100" type="curve"/>
      <point x="125" y="50"/>
      <point x="132" y="8"/>
      <point x="141" y="-30" type="curve" smooth="yes"/>
      <point x="220" y="-30"/>
      <point x="383" y="6"/>
      <point x="462" y="13" type="curve" smooth="yes"/>
      <point x="469" y="52"/>
      <point x="470" y="94"/>
      <point x="470" y="135" type="curve" smooth="yes"/>
      <point x="489" y="827" type="line"/>
      <point x="1095" y="-31" type="line"/>
      <point x="1165" y="-32"/>
      <point x="1332" y="25"/>
      <point x="1421" y="37" type="curve" smooth="yes"/>
      <point x="1442" y="89"/>
      <point x="1445" y="131"/>
      <point x="1445" y="182" type="curve" smooth="yes"/>
      <point x="1445" y="187"/>
      <point x="1444" y="194"/>
      <point x="1444" y="204" type="curve" smooth="yes"/>
      <point x="1444" y="206"/>
      <point x="1444" y="208"/>
      <point x="1444" y="211" type="curve" smooth="yes"/>
      <point x="1444" y="213"/>
      <point x="1444" y="215"/>
      <point x="1445" y="218" type="curve"/>
      <point x="1447" y="410" type="line" smooth="yes"/>
      <point x="1450" y="609"/>
      <point x="1452" y="843"/>
      <point x="1452" y="1032" type="curve" smooth="yes"/>
      <point x="1452" y="1123"/>
      <point x="1454" y="1261"/>
      <point x="1461" y="1328" type="curve"/>
      <point x="1461" y="1381"/>
      <point x="1458" y="1423"/>
      <point x="1450" y="1461" type="curve" smooth="yes"/>
      <point x="1415" y="1461"/>
      <point x="1381" y="1461"/>
      <point x="1347" y="1460" type="curve"/>
      <point x="1139" y="1432" type="line" smooth="yes"/>
      <point x="1127" y="1397"/>
      <point x="1126" y="1357"/>
      <point x="1121" y="1305" type="curve"/>
      <point x="1121" y="580" type="line"/>
      <point x="552" y="1458" type="line" smooth="yes"/>
      <point x="519" y="1466"/>
      <point x="486" y="1466"/>
      <point x="449" y="1466" type="curve" smooth="yes"/>
      <point x="447" y="1466"/>
      <point x="443" y="1465"/>
      <point x="441" y="1465" type="curve"/>
      <point x="232" y="1398" type="line" smooth="yes"/>
      <point x="192" y="1392"/>
      <point x="158" y="1389"/>
    </contour>
  </outline>
</glyph>
<glyph name="O" format="1">
  <advance width="1696"/>
  <unicode hex="004F"/>
  <outline>
    <contour>
      <point x="876" y="243" type="curve"/>
      <point x="608" y="243"/>
      <point x="534" y="471"/>
      <point x="534" y="702" type="curve"/>
      <point x="536" y="928"/>
      <point x="629" y="1192"/>
      <point x="887" y="1192" type="curve" smooth="yes"/>
      <point x="1128" y="1192"/>
      <point x="1226" y="976"/>
      <point x="1226" y="742" type="curve" smooth="yes"/>
      <point x="1226" y="504"/>
      <point x="1160" y="250"/>
    </contour>
    <contour>
      <point x="825" y="-49" type="curve" smooth="yes"/>
      <point x="1305" y="-49"/>
      <point x="1656" y="266"/>
      <point x="1656" y="752" type="curve" smooth="yes"/>
      <point x="1656" y="1254"/>
      <point x="1336" y="1504"/>
      <point x="838" y="1528" type="curve"/>
      <point x="822" y="1528"/>
      <point x="825" y="1473"/>
      <point x="810" y="1473" type="curve"/>
      <point x="385" y="1432"/>
      <point x="96" y="1137"/>
      <point x="96" y="683" type="curve" smooth="yes"/>
      <point x="96" y="258"/>
      <point x="379" y="-49"/>
    </contour>
  </outline>
</glyph>
<glyph name="P" format="1">
  <advance width="1459"/>
  <unicode hex="0050"/>
  <outline>
    <contour>
      <point x="118" y="1294" type="line"/>
      <point x="118" y="1229"/>
      <point x="121" y="1167"/>
      <point x="128" y="1107" type="curve" smooth="yes"/>
      <point x="138" y="1107"/>
      <point x="156" y="1111"/>
      <point x="189" y="1118" type="curve"/>
      <point x="185" y="977"/>
      <point x="179" y="799"/>
      <point x="172" y="623" type="curve" smooth="yes"/>
      <point x="164" y="338" type="line"/>
      <point x="160" y="238"/>
      <point x="156" y="160"/>
      <point x="151" y="73" type="curve"/>
      <point x="151" y="37"/>
      <point x="153" y="4"/>
      <point x="155" y="-28" type="curve" smooth="yes"/>
      <point x="182" y="-30"/>
      <point x="210" y="-31"/>
      <point x="239" y="-31" type="curve" smooth="yes"/>
      <point x="308" y="-31"/>
      <point x="491" y="13"/>
      <point x="545" y="21" type="curve" smooth="yes"/>
      <point x="552" y="123" type="line"/>
      <point x="567" y="464" type="line"/>
      <point x="636" y="462"/>
      <point x="703" y="462"/>
      <point x="772" y="462" type="curve" smooth="yes"/>
      <point x="964" y="462"/>
      <point x="1139" y="483"/>
      <point x="1278" y="584" type="curve" smooth="yes"/>
      <point x="1396" y="670"/>
      <point x="1468" y="791"/>
      <point x="1469" y="993" type="curve"/>
      <point x="1469" y="1329"/>
      <point x="1210" y="1465"/>
      <point x="909" y="1465" type="curve" smooth="yes"/>
      <point x="621" y="1465"/>
      <point x="368" y="1432"/>
      <point x="228" y="1406" type="curve" smooth="yes"/>
      <point x="223" y="1388"/>
      <point x="216" y="1361"/>
      <point x="209" y="1337" type="curve" smooth="yes"/>
    </contour>
    <contour>
      <point x="596" y="1180" type="line" smooth="yes"/>
      <point x="660" y="1191"/>
      <point x="749" y="1194"/>
      <point x="828" y="1194" type="curve" smooth="yes"/>
      <point x="949" y="1194"/>
      <point x="1020" y="1147"/>
      <point x="1038" y="1063" type="curve" smooth="yes"/>
      <point x="1047" y="1018"/>
      <point x="1047" y="974"/>
      <point x="1043" y="935" type="curve"/>
      <point x="1031" y="818"/>
      <point x="957" y="750"/>
      <point x="831" y="735" type="curve" smooth="yes"/>
      <point x="749" y="726"/>
      <point x="668" y="721"/>
      <point x="591" y="721" type="curve" smooth="yes"/>
      <point x="580" y="751"/>
      <point x="579" y="786"/>
      <point x="579" y="823" type="curve"/>
      <point x="581" y="874"/>
      <point x="593" y="1028"/>
      <point x="595" y="1081" type="curve" smooth="yes"/>
    </contour>
  </outline>
</glyph>
<glyph name="Q" format="1">
  <advance width="1696"/>
  <unicode hex="0051"/>
  <outline>
    <contour>
      <point x="855" y="284" type="curve" smooth="yes"/>
      <point x="855" y="278"/>
      <point x="865" y="266"/>
      <point x="879" y="250" type="curve" smooth="yes"/>
      <point x="881" y="248"/>
      <point x="883" y="246"/>
      <point x="885" y="244" type="curve"/>
      <point x="881" y="243"/>
      <point x="879" y="243"/>
      <point x="876" y="243" type="curve"/>
      <point x="609" y="243"/>
      <point x="536" y="474"/>
      <point x="536" y="702" type="curve" smooth="yes"/>
      <point x="536" y="936"/>
      <point x="624" y="1192"/>
      <point x="879" y="1192" type="curve" smooth="yes"/>
      <point x="1136" y="1192"/>
      <point x="1226" y="966"/>
      <point x="1226" y="742" type="curve" smooth="yes"/>
      <point x="1226" y="699"/>
      <point x="1219" y="649"/>
      <point x="1202" y="609" type="curve"/>
      <point x="1190" y="622"/>
      <point x="1185" y="631"/>
      <point x="1180" y="631" type="curve" smooth="yes"/>
      <point x="1179" y="631"/>
      <point x="1177" y="631"/>
      <point x="1176" y="630" type="curve" smooth="yes"/>
      <point x="1141" y="468"/>
      <point x="1019" y="300"/>
    </contour>
    <contour>
      <point x="998" y="-16" type="curve"/>
      <point x="1017" y="-34"/>
      <point x="1035" y="-53"/>
      <point x="1053" y="-71" type="curve" smooth="yes"/>
      <point x="1057" y="-74"/>
      <point x="1060" y="-77"/>
      <point x="1065" y="-77" type="curve" smooth="yes"/>
      <point x="1335" y="-77"/>
      <point x="1619" y="138"/>
      <point x="1619" y="416" type="curve" smooth="yes"/>
      <point x="1619" y="424"/>
      <point x="1594" y="454"/>
      <point x="1562" y="488" type="curve"/>
      <point x="1621" y="551"/>
      <point x="1657" y="635"/>
      <point x="1657" y="738" type="curve" smooth="yes"/>
      <point x="1657" y="1129"/>
      <point x="1487" y="1339"/>
      <point x="1226" y="1447" type="curve" smooth="yes"/>
      <point x="1136" y="1486"/>
      <point x="1005" y="1512"/>
      <point x="833" y="1526" type="curve"/>
      <point x="821" y="1517"/>
      <point x="824" y="1473"/>
      <point x="810" y="1473" type="curve"/>
      <point x="385" y="1432"/>
      <point x="96" y="1137"/>
      <point x="96" y="683" type="curve" smooth="yes"/>
      <point x="96" y="314"/>
      <point x="306" y="38"/>
      <point x="654" y="-20" type="curve" smooth="yes"/>
      <point x="767" y="-39"/>
      <point x="881" y="-37"/>
    </contour>
  </outline>
</glyph>
<glyph name="R" format="1">
  <advance width="1593"/>
  <unicode hex="0052"/>
  <outline>
    <contour>
      <point x="186" y="1430" type="curve"/>
      <point x="113" y="1125" type="line" smooth="yes"/>
      <point x="113" y="1124"/>
      <point x="112" y="1123"/>
      <point x="112" y="1122" type="curve" smooth="yes"/>
      <point x="112" y="1119"/>
      <point x="117" y="1116"/>
      <point x="122" y="1116" type="curve"/>
      <point x="162" y="1122"/>
      <point x="200" y="1131"/>
      <point x="209" y="1131" type="curve" smooth="yes"/>
      <point x="211" y="1131"/>
      <point x="212" y="1131"/>
      <point x="212" y="1130" type="curve"/>
      <point x="202" y="820" type="line"/>
      <point x="195" y="654" type="line"/>
      <point x="187" y="409"/>
      <point x="173" y="165"/>
      <point x="173" y="-16" type="curve" smooth="yes"/>
      <point x="198" y="-27"/>
      <point x="230" y="-31"/>
      <point x="263" y="-31" type="curve" smooth="yes"/>
      <point x="316" y="-31"/>
      <point x="495" y="11"/>
      <point x="566" y="22" type="curve" smooth="yes"/>
      <point x="573" y="123"/>
      <point x="574" y="225"/>
      <point x="574" y="328" type="curve" smooth="yes"/>
      <point x="802" y="577" type="line"/>
      <point x="929" y="487"/>
      <point x="984" y="42"/>
      <point x="1112" y="-30" type="curve" smooth="yes"/>
      <point x="1147" y="-30"/>
      <point x="1183" y="-29"/>
      <point x="1219" y="-25" type="curve" smooth="yes"/>
      <point x="1364" y="22"/>
      <point x="1510" y="44"/>
      <point x="1569" y="64" type="curve" smooth="yes"/>
      <point x="1524" y="104"/>
      <point x="1468" y="146"/>
      <point x="1428" y="226" type="curve"/>
      <point x="1274" y="503"/>
      <point x="1236" y="661"/>
      <point x="1135" y="677" type="curve"/>
      <point x="1269" y="704"/>
      <point x="1478" y="823"/>
      <point x="1478" y="1060" type="curve" smooth="yes"/>
      <point x="1478" y="1326"/>
      <point x="1267" y="1459"/>
      <point x="972" y="1461" type="curve"/>
      <point x="687" y="1461"/>
      <point x="426" y="1444"/>
    </contour>
    <contour>
      <point x="619" y="1202" type="line"/>
      <point x="675" y="1204"/>
      <point x="732" y="1207"/>
      <point x="797" y="1207" type="curve" smooth="yes"/>
      <point x="959" y="1207"/>
      <point x="1088" y="1203"/>
      <point x="1088" y="1026" type="curve" smooth="yes"/>
      <point x="1088" y="939"/>
      <point x="1039" y="841"/>
      <point x="942" y="816" type="curve" smooth="yes"/>
      <point x="830" y="797"/>
      <point x="715" y="785"/>
      <point x="601" y="785" type="curve"/>
    </contour>
  </outline>
</glyph>
<glyph name="S" format="1">
  <advance width="1337"/>
  <unicode hex="0053"/>
  <outline>
    <contour>
      <point x="116" y="118" type="curve"/>
      <point x="247" y="32"/>
      <point x="390" y="-7"/>
      <point x="539" y="-28" type="curve" smooth="yes"/>
      <point x="638" y="-43"/>
      <point x="740" y="-40"/>
      <point x="843" y="-22" type="curve" smooth="yes"/>
      <point x="1066" y="13"/>
      <point x="1288" y="169"/>
      <point x="1288" y="418" type="curve" smooth="yes"/>
      <point x="1288" y="714"/>
      <point x="979" y="783"/>
      <point x="660" y="946" type="curve"/>
      <point x="578" y="980"/>
      <point x="532" y="1020"/>
      <point x="532" y="1082" type="curve" smooth="yes"/>
      <point x="532" y="1165"/>
      <point x="616" y="1193"/>
      <point x="712" y="1193" type="curve" smooth="yes"/>
      <point x="873" y="1193"/>
      <point x="1061" y="1112"/>
      <point x="1156" y="1026" type="curve" smooth="yes"/>
      <point x="1171" y="1045"/>
      <point x="1187" y="1065"/>
      <point x="1203" y="1086" type="curve" smooth="yes"/>
      <point x="1210" y="1086"/>
      <point x="1214" y="1088"/>
      <point x="1214" y="1099" type="curve"/>
      <point x="1224" y="1172"/>
      <point x="1237" y="1238"/>
      <point x="1247" y="1308" type="curve"/>
      <point x="1152" y="1416"/>
      <point x="944" y="1461"/>
      <point x="828" y="1476" type="curve" smooth="yes"/>
      <point x="768" y="1481"/>
      <point x="707" y="1481"/>
      <point x="648" y="1477" type="curve" smooth="yes"/>
      <point x="347" y="1454"/>
      <point x="141" y="1296"/>
      <point x="141" y="1039" type="curve" smooth="yes"/>
      <point x="141" y="742"/>
      <point x="398" y="648"/>
      <point x="705" y="500" type="curve" smooth="yes"/>
      <point x="796" y="469"/>
      <point x="862" y="432"/>
      <point x="862" y="371" type="curve" smooth="yes"/>
      <point x="862" y="289"/>
      <point x="771" y="259"/>
      <point x="679" y="259" type="curve" smooth="yes"/>
      <point x="555" y="259"/>
      <point x="410" y="306"/>
      <point x="287" y="378" type="curve" smooth="yes"/>
      <point x="254" y="394"/>
      <point x="222" y="411"/>
      <point x="194" y="427" type="curve" smooth="yes"/>
      <point x="188" y="427"/>
      <point x="186" y="425"/>
      <point x="186" y="420" type="curve" smooth="yes"/>
      <point x="159" y="318"/>
      <point x="139" y="218"/>
    </contour>
  </outline>
</glyph>
<glyph name="T" format="1">
  <advance width="1331"/>
  <unicode hex="0054"/>
  <outline>
    <contour>
      <point x="114" y="1431" type="curve"/>
      <point x="114" y="1404"/>
      <point x="114" y="1377"/>
      <point x="114" y="1350" type="curve" smooth="yes"/>
      <point x="98" y="1307"/>
      <point x="82" y="1263"/>
      <point x="65" y="1220" type="curve"/>
      <point x="65" y="1191"/>
      <point x="64" y="1153"/>
      <point x="72" y="1127" type="curve" smooth="yes"/>
      <point x="338" y="1127" type="line" smooth="yes"/>
      <point x="391" y="1127"/>
      <point x="443" y="1127"/>
      <point x="492" y="1126" type="curve"/>
      <point x="489" y="978"/>
      <point x="488" y="855"/>
      <point x="480" y="705" type="curve"/>
      <point x="464" y="237" type="line"/>
      <point x="462" y="199"/>
      <point x="459" y="158"/>
      <point x="456" y="114" type="curve"/>
      <point x="456" y="59"/>
      <point x="462" y="12"/>
      <point x="471" y="-31" type="curve" smooth="yes"/>
      <point x="519" y="-31"/>
      <point x="567" y="-26"/>
      <point x="610" y="-24" type="curve" smooth="yes"/>
      <point x="848" y="22" type="line" smooth="yes"/>
      <point x="855" y="67"/>
      <point x="855" y="116"/>
      <point x="856" y="164" type="curve" smooth="yes"/>
      <point x="889" y="899" type="line"/>
      <point x="892" y="974"/>
      <point x="894" y="1052"/>
      <point x="897" y="1126" type="curve"/>
      <point x="1195" y="1126" type="line" smooth="yes"/>
      <point x="1229" y="1126"/>
      <point x="1261" y="1126"/>
      <point x="1294" y="1125" type="curve"/>
      <point x="1323" y="1154"/>
      <point x="1350" y="1291"/>
      <point x="1369" y="1366" type="curve"/>
      <point x="1369" y="1394"/>
      <point x="1369" y="1422"/>
      <point x="1369" y="1450" type="curve" smooth="yes"/>
      <point x="1328" y="1461"/>
      <point x="1275" y="1461"/>
      <point x="1226" y="1461" type="curve"/>
      <point x="930" y="1458"/>
      <point x="325" y="1443"/>
    </contour>
  </outline>
</glyph>
<glyph name="U" format="1">
  <advance width="1494"/>
  <unicode hex="0055"/>
  <outline>
    <contour>
      <point x="735" y="-43" type="curve" smooth="yes"/>
      <point x="1147" y="-43"/>
      <point x="1391" y="164"/>
      <point x="1416" y="676" type="curve"/>
      <point x="1420" y="841"/>
      <point x="1441" y="1164"/>
      <point x="1445" y="1327" type="curve"/>
      <point x="1445" y="1373"/>
      <point x="1444" y="1416"/>
      <point x="1442" y="1458" type="curve" smooth="yes"/>
      <point x="1407" y="1461"/>
      <point x="1370" y="1461"/>
      <point x="1333" y="1461" type="curve" smooth="yes"/>
      <point x="1329" y="1461"/>
      <point x="1325" y="1461"/>
      <point x="1321" y="1460" type="curve"/>
      <point x="1068" y="1422" type="line"/>
      <point x="1052" y="1380"/>
      <point x="1055" y="1334"/>
      <point x="1053" y="1273" type="curve"/>
      <point x="1040" y="858" type="line" smooth="yes"/>
      <point x="1036" y="760"/>
      <point x="1032" y="669"/>
      <point x="1028" y="592" type="curve"/>
      <point x="1021" y="415"/>
      <point x="971" y="283"/>
      <point x="766" y="283" type="curve" smooth="yes"/>
      <point x="617" y="283"/>
      <point x="556" y="363"/>
      <point x="533" y="447" type="curve" smooth="yes"/>
      <point x="522" y="498"/>
      <point x="522" y="556"/>
      <point x="523" y="616" type="curve"/>
      <point x="557" y="1323" type="line"/>
      <point x="557" y="1377"/>
      <point x="555" y="1422"/>
      <point x="545" y="1461" type="curve" smooth="yes"/>
      <point x="504" y="1461"/>
      <point x="464" y="1461"/>
      <point x="423" y="1460" type="curve"/>
      <point x="160" y="1426" type="line"/>
      <point x="142" y="1342"/>
      <point x="145" y="1235"/>
      <point x="138" y="1049" type="curve"/>
      <point x="133" y="859" type="line" smooth="yes"/>
      <point x="126" y="672"/>
      <point x="117" y="499"/>
      <point x="138" y="413" type="curve" smooth="yes"/>
      <point x="186" y="116"/>
      <point x="427" y="-43"/>
    </contour>
  </outline>
</glyph>
<glyph name="V" format="1">
  <advance width="1524"/>
  <unicode hex="0056"/>
  <outline>
    <contour>
      <point x="1548" y="1446" type="curve"/>
      <point x="1511" y="1456"/>
      <point x="1470" y="1461"/>
      <point x="1410" y="1461" type="curve" smooth="yes"/>
      <point x="1358" y="1461"/>
      <point x="1215" y="1445"/>
      <point x="1158" y="1434" type="curve" smooth="yes"/>
      <point x="1134" y="1385"/>
      <point x="1116" y="1334"/>
      <point x="1095" y="1281" type="curve" smooth="yes"/>
      <point x="1005" y="1035"/>
      <point x="916" y="789"/>
      <point x="825" y="542" type="curve"/>
      <point x="587" y="1311" type="line"/>
      <point x="567" y="1361"/>
      <point x="549" y="1411"/>
      <point x="528" y="1457" type="curve" smooth="yes"/>
      <point x="481" y="1460"/>
      <point x="432" y="1461"/>
      <point x="381" y="1461" type="curve" smooth="yes"/>
      <point x="219" y="1461"/>
      <point x="132" y="1433"/>
      <point x="89" y="1414" type="curve" smooth="yes"/>
      <point x="110" y="1355"/>
      <point x="133" y="1296"/>
      <point x="157" y="1235" type="curve"/>
      <point x="273" y="872"/>
      <point x="388" y="507"/>
      <point x="503" y="144" type="curve" smooth="yes"/>
      <point x="527" y="82"/>
      <point x="553" y="23"/>
      <point x="585" y="-30" type="curve" smooth="yes"/>
      <point x="654" y="-30"/>
      <point x="758" y="-7"/>
      <point x="834" y="4" type="curve" smooth="yes"/>
      <point x="894" y="11"/>
      <point x="938" y="24"/>
      <point x="984" y="39" type="curve"/>
      <point x="1479" y="1271" type="line"/>
      <point x="1503" y="1331"/>
      <point x="1527" y="1388"/>
    </contour>
  </outline>
</glyph>
<glyph name="W" format="1">
  <advance width="2082"/>
  <unicode hex="0057"/>
  <outline>
    <contour>
      <point x="511" y="-17" type="line" smooth="yes"/>
      <point x="582" y="-26"/>
      <point x="656" y="-30"/>
      <point x="732" y="-30" type="curve" smooth="yes"/>
      <point x="762" y="7"/>
      <point x="855" y="100"/>
      <point x="882" y="174" type="curve"/>
      <point x="1082" y="705" type="line"/>
      <point x="1262" y="99" type="line"/>
      <point x="1277" y="53"/>
      <point x="1292" y="7"/>
      <point x="1313" y="-30" type="curve" smooth="yes"/>
      <point x="1353" y="-30"/>
      <point x="1395" y="-29"/>
      <point x="1438" y="-26" type="curve" smooth="yes"/>
      <point x="1522" y="-4"/>
      <point x="1580" y="2"/>
      <point x="1631" y="13" type="curve" smooth="yes"/>
      <point x="1655" y="61"/>
      <point x="1670" y="113"/>
      <point x="1696" y="188" type="curve"/>
      <point x="2047" y="1324" type="line" smooth="yes"/>
      <point x="2047" y="1326"/>
      <point x="2048" y="1330"/>
      <point x="2048" y="1331" type="curve" smooth="yes"/>
      <point x="2059" y="1376"/>
      <point x="2067" y="1423"/>
      <point x="2070" y="1461" type="curve" smooth="yes"/>
      <point x="2034" y="1461"/>
      <point x="1997" y="1461"/>
      <point x="1962" y="1461" type="curve"/>
      <point x="1727" y="1430" type="line" smooth="yes"/>
      <point x="1705" y="1390"/>
      <point x="1694" y="1348"/>
      <point x="1681" y="1301" type="curve" smooth="yes"/>
      <point x="1504" y="688" type="line"/>
      <point x="1348" y="1290" type="line"/>
      <point x="1335" y="1332"/>
      <point x="1323" y="1373"/>
      <point x="1309" y="1412" type="curve" smooth="yes"/>
      <point x="1268" y="1414"/>
      <point x="1226" y="1416"/>
      <point x="1180" y="1416" type="curve" smooth="yes"/>
      <point x="1035" y="1416"/>
      <point x="962" y="1392"/>
      <point x="926" y="1371" type="curve"/>
      <point x="915" y="1331"/>
      <point x="905" y="1290"/>
      <point x="896" y="1246" type="curve" smooth="yes"/>
      <point x="895" y="1002" type="line"/>
      <point x="848" y="885"/>
      <point x="801" y="768"/>
      <point x="755" y="652" type="curve"/>
      <point x="569" y="1335" type="line"/>
      <point x="556" y="1377"/>
      <point x="545" y="1418"/>
      <point x="531" y="1457" type="curve" smooth="yes"/>
      <point x="484" y="1460"/>
      <point x="435" y="1461"/>
      <point x="384" y="1461" type="curve" smooth="yes"/>
      <point x="212" y="1461"/>
      <point x="135" y="1439"/>
      <point x="92" y="1411" type="curve" smooth="yes"/>
      <point x="103" y="1369"/>
      <point x="116" y="1326"/>
      <point x="129" y="1283" type="curve" smooth="yes"/>
    </contour>
  </outline>
</glyph>
<glyph name="X" format="1">
  <advance width="1563"/>
  <unicode hex="0058"/>
  <outline>
    <contour>
      <point x="1528" y="1443" type="curve" smooth="yes"/>
      <point x="1491" y="1448"/>
      <point x="1451" y="1451"/>
      <point x="1407" y="1451" type="curve" smooth="yes"/>
      <point x="1404" y="1451"/>
      <point x="1402" y="1450"/>
      <point x="1399" y="1450" type="curve" smooth="yes"/>
      <point x="1111" y="1414" type="line"/>
      <point x="841" y="1055" type="line"/>
      <point x="749" y="1195"/>
      <point x="646" y="1360"/>
      <point x="579" y="1443" type="curve" smooth="yes"/>
      <point x="541" y="1448"/>
      <point x="503" y="1448"/>
      <point x="464" y="1448" type="curve" smooth="yes"/>
      <point x="464" y="1448"/>
      <point x="463" y="1448"/>
      <point x="460" y="1448" type="curve" smooth="yes"/>
      <point x="123" y="1409" type="line"/>
      <point x="146" y="1373"/>
      <point x="170" y="1336"/>
      <point x="195" y="1298" type="curve" smooth="yes"/>
      <point x="195" y="1293"/>
      <point x="196" y="1288"/>
      <point x="200" y="1283" type="curve"/>
      <point x="585" y="693" type="line"/>
      <point x="452" y="505" type="line" smooth="yes"/>
      <point x="408" y="443"/>
      <point x="365" y="382"/>
      <point x="323" y="321" type="curve" smooth="yes"/>
      <point x="245" y="214"/>
      <point x="137" y="56"/>
      <point x="82" y="-24" type="curve" smooth="yes"/>
      <point x="119" y="-29"/>
      <point x="159" y="-31"/>
      <point x="202" y="-31" type="curve" smooth="yes"/>
      <point x="212" y="-31"/>
      <point x="228" y="-26"/>
      <point x="235" y="-26" type="curve"/>
      <point x="309" y="-16"/>
      <point x="445" y="14"/>
      <point x="483" y="19" type="curve"/>
      <point x="567" y="115" type="line"/>
      <point x="777" y="398" type="line"/>
      <point x="948" y="147" type="line" smooth="yes"/>
      <point x="992" y="77"/>
      <point x="1037" y="7"/>
      <point x="1070" y="-28" type="curve" smooth="yes"/>
      <point x="1107" y="-30"/>
      <point x="1144" y="-31"/>
      <point x="1182" y="-31" type="curve" smooth="yes"/>
      <point x="1193" y="-31"/>
      <point x="1202" y="-25"/>
      <point x="1210" y="-25" type="curve"/>
      <point x="1320" y="-11"/>
      <point x="1444" y="12"/>
      <point x="1511" y="20" type="curve"/>
      <point x="1447" y="122" type="line"/>
      <point x="1308" y="337"/>
      <point x="1193" y="518"/>
      <point x="1036" y="753" type="curve"/>
      <point x="1081" y="816"/>
      <point x="1130" y="886"/>
      <point x="1175" y="949" type="curve"/>
      <point x="1445" y="1335" type="line" smooth="yes"/>
      <point x="1475" y="1372"/>
      <point x="1502" y="1409"/>
    </contour>
  </outline>
</glyph>
<glyph name="Y" format="1">
  <advance width="1379"/>
  <unicode hex="0059"/>
  <outline>
    <contour>
      <point x="1424" y="1440" type="curve"/>
      <point x="1390" y="1447"/>
      <point x="1353" y="1450"/>
      <point x="1312" y="1450" type="curve" smooth="yes"/>
      <point x="1309" y="1450"/>
      <point x="1306" y="1449"/>
      <point x="1303" y="1448" type="curve" smooth="yes"/>
      <point x="1047" y="1410" type="line"/>
      <point x="1001" y="1330"/>
      <point x="905" y="1146"/>
      <point x="833" y="1008" type="curve"/>
      <point x="769" y="882" type="line"/>
      <point x="480" y="1439" type="line"/>
      <point x="429" y="1447"/>
      <point x="380" y="1449"/>
      <point x="332" y="1449" type="curve" smooth="yes"/>
      <point x="329" y="1449"/>
      <point x="325" y="1448"/>
      <point x="321" y="1446" type="curve" smooth="yes"/>
      <point x="236" y="1430"/>
      <point x="133" y="1407"/>
      <point x="76" y="1398" type="curve" smooth="yes"/>
      <point x="92" y="1358"/>
      <point x="111" y="1314"/>
      <point x="132" y="1271" type="curve" smooth="yes"/>
      <point x="214" y="1121"/>
      <point x="397" y="741"/>
      <point x="517" y="508" type="curve"/>
      <point x="502" y="372"/>
      <point x="476" y="218"/>
      <point x="476" y="99" type="curve" smooth="yes"/>
      <point x="476" y="50"/>
      <point x="484" y="7"/>
      <point x="494" y="-31" type="curve" smooth="yes"/>
      <point x="540" y="-31"/>
      <point x="588" y="-28"/>
      <point x="634" y="-23" type="curve" smooth="yes"/>
      <point x="873" y="44" type="line"/>
      <point x="898" y="132"/>
      <point x="912" y="383"/>
      <point x="913" y="473" type="curve"/>
      <point x="977" y="602" type="line"/>
      <point x="1077" y="789"/>
      <point x="1232" y="1072"/>
      <point x="1360" y="1312" type="curve" smooth="yes"/>
      <point x="1383" y="1356"/>
      <point x="1403" y="1399"/>
    </contour>
  </outline>
</glyph>
<glyph name="Z" format="1">
  <advance width="1341"/>
  <unicode hex="005A"/>
  <outline>
    <contour>
      <point x="116" y="176" type="line"/>
      <point x="116" y="126"/>
      <point x="115" y="77"/>
      <point x="115" y="27" type="curve" smooth="yes"/>
      <point x="153" y="4"/>
      <point x="207" y="0"/>
      <point x="258" y="0" type="curve" smooth="yes"/>
      <point x="482" y="0"/>
      <point x="687" y="-1"/>
      <point x="892" y="-1" type="curve" smooth="yes"/>
      <point x="1014" y="-1"/>
      <point x="1133" y="2"/>
      <point x="1217" y="30" type="curve"/>
      <point x="1289" y="253" type="line"/>
      <point x="1290" y="282"/>
      <point x="1290" y="310"/>
      <point x="1290" y="336" type="curve" smooth="yes"/>
      <point x="1257" y="343"/>
      <point x="1216" y="348"/>
      <point x="1176" y="348" type="curve" smooth="yes"/>
      <point x="1106" y="348"/>
      <point x="1041" y="341"/>
      <point x="971" y="341" type="curve" smooth="yes"/>
      <point x="783" y="341" type="line" smooth="yes"/>
      <point x="744" y="341"/>
      <point x="703" y="341"/>
      <point x="670" y="347" type="curve" smooth="yes"/>
      <point x="691" y="376"/>
      <point x="713" y="404"/>
      <point x="735" y="433" type="curve"/>
      <point x="1277" y="1255" type="line"/>
      <point x="1277" y="1419" type="line"/>
      <point x="971" y="1419"/>
      <point x="672" y="1431"/>
      <point x="365" y="1431" type="curve" smooth="yes"/>
      <point x="299" y="1431"/>
      <point x="228" y="1427"/>
      <point x="182" y="1400" type="curve" smooth="yes"/>
      <point x="124" y="1183" type="line" smooth="yes"/>
      <point x="123" y="1155"/>
      <point x="124" y="1127"/>
      <point x="123" y="1100" type="curve"/>
      <point x="154" y="1094"/>
      <point x="190" y="1089"/>
      <point x="228" y="1089" type="curve" smooth="yes"/>
      <point x="289" y="1089"/>
      <point x="346" y="1090"/>
      <point x="410" y="1090" type="curve" smooth="yes"/>
      <point x="489" y="1090"/>
      <point x="681" y="1088"/>
      <point x="743" y="1083" type="curve"/>
    </contour>
  </outline>
</glyph>
<glyph name="bracketleft" format="1">
  <advance width="925"/>
  <unicode hex="005B"/>
  <outline>
    <contour>
      <point x="121" y="-81" type="curve"/>
      <point x="246" y="-93"/>
      <point x="411" y="-96"/>
      <point x="539" y="-96" type="curve" smooth="yes"/>
      <point x="658" y="-96"/>
      <point x="751" y="-1"/>
      <point x="835" y="17" type="curve"/>
      <point x="838" y="74"/>
      <point x="841" y="132"/>
      <point x="841" y="188" type="curve" smooth="yes"/>
      <point x="803" y="192"/>
      <point x="763" y="193"/>
      <point x="721" y="193" type="curve" smooth="yes"/>
      <point x="520" y="192" type="line"/>
      <point x="536" y="609" type="line"/>
      <point x="546" y="821"/>
      <point x="556" y="1047"/>
      <point x="558" y="1178" type="curve"/>
      <point x="708" y="1184"/>
      <point x="789" y="1184"/>
      <point x="871" y="1201" type="curve"/>
      <point x="891" y="1332" type="line"/>
      <point x="907" y="1398"/>
      <point x="915" y="1454"/>
      <point x="915" y="1484" type="curve"/>
      <point x="878" y="1497"/>
      <point x="828" y="1497"/>
      <point x="789" y="1497" type="curve" smooth="yes"/>
      <point x="291" y="1471" type="line"/>
      <point x="249" y="1471"/>
      <point x="207" y="1470"/>
      <point x="166" y="1466" type="curve" smooth="yes"/>
      <point x="162" y="1425"/>
      <point x="159" y="1380"/>
      <point x="159" y="1329" type="curve"/>
      <point x="139" y="738" type="line" smooth="yes"/>
      <point x="129" y="479"/>
      <point x="113" y="166"/>
      <point x="113" y="46" type="curve" smooth="yes"/>
      <point x="113" y="2"/>
      <point x="114" y="-43"/>
    </contour>
  </outline>
</glyph>
<glyph name="backslash" format="1">
  <advance width="1077"/>
  <unicode hex="005C"/>
  <outline>
    <contour>
      <point x="412" y="1532" type="curve"/>
      <point x="299" y="1532" type="line"/>
      <point x="233" y="1521"/>
      <point x="123" y="1490"/>
      <point x="86" y="1489" type="curve" smooth="yes"/>
      <point x="109" y="1429"/>
      <point x="131" y="1369"/>
      <point x="155" y="1309" type="curve" smooth="yes"/>
      <point x="645" y="140" type="line"/>
      <point x="671" y="70"/>
      <point x="694" y="1"/>
      <point x="726" y="-58" type="curve" smooth="yes"/>
      <point x="813" y="-58"/>
      <point x="974" y="-26"/>
      <point x="1048" y="-9" type="curve" smooth="yes"/>
      <point x="1025" y="53"/>
      <point x="1002" y="115"/>
      <point x="978" y="179" type="curve"/>
      <point x="836" y="512"/>
      <point x="682" y="890"/>
      <point x="499" y="1330" type="curve" smooth="yes"/>
      <point x="469" y="1407"/>
      <point x="443" y="1473"/>
    </contour>
  </outline>
</glyph>
<glyph name="bracketright" format="1">
  <advance width="927"/>
  <unicode hex="005D"/>
  <outline>
    <contour>
      <point x="859" y="1485" type="curve"/>
      <point x="310" y="1485" type="line" smooth="yes"/>
      <point x="298" y="1485"/>
      <point x="286" y="1487"/>
      <point x="276" y="1487" type="curve" smooth="yes"/>
      <point x="223" y="1487"/>
      <point x="176" y="1484"/>
      <point x="138" y="1464" type="curve" smooth="yes"/>
      <point x="138" y="1389"/>
      <point x="137" y="1276"/>
      <point x="137" y="1221" type="curve" smooth="yes"/>
      <point x="175" y="1217"/>
      <point x="212" y="1214"/>
      <point x="251" y="1210" type="curve" smooth="yes"/>
      <point x="251" y="1206"/>
      <point x="252" y="1202"/>
      <point x="258" y="1202" type="curve" smooth="yes"/>
      <point x="458" y="1203" type="line"/>
      <point x="445" y="787" type="line"/>
      <point x="436" y="574"/>
      <point x="430" y="349"/>
      <point x="428" y="218" type="curve"/>
      <point x="244" y="216" type="line" smooth="yes"/>
      <point x="189" y="215"/>
      <point x="147" y="210"/>
      <point x="106" y="200" type="curve" smooth="yes"/>
      <point x="90" y="74" type="line" smooth="yes"/>
      <point x="76" y="8"/>
      <point x="70" y="-43"/>
      <point x="71" y="-71" type="curve"/>
      <point x="108" y="-84"/>
      <point x="158" y="-84"/>
      <point x="196" y="-84" type="curve" smooth="yes"/>
      <point x="249" y="-84"/>
      <point x="353" y="-82"/>
      <point x="453" y="-80" type="curve" smooth="yes"/>
      <point x="686" y="-76" type="line"/>
      <point x="731" y="-74"/>
      <point x="779" y="-73"/>
      <point x="818" y="-44" type="curve" smooth="yes"/>
      <point x="838" y="594" type="line"/>
      <point x="847" y="872"/>
      <point x="866" y="1202"/>
      <point x="866" y="1343" type="curve" smooth="yes"/>
      <point x="866" y="1391"/>
      <point x="866" y="1443"/>
    </contour>
  </outline>
</glyph>
<glyph name="underscore" format="1">
  <advance width="1038"/>
  <unicode hex="005F"/>
  <outline>
    <contour>
      <point x="950" y="-137" type="curve"/>
      <point x="954" y="-45" type="line" smooth="yes"/>
      <point x="956" y="-9"/>
      <point x="958" y="29"/>
      <point x="958" y="58" type="curve" smooth="yes"/>
      <point x="928" y="70"/>
      <point x="885" y="73"/>
      <point x="845" y="73" type="curve"/>
      <point x="777" y="73"/>
      <point x="557" y="71"/>
      <point x="471" y="71" type="curve"/>
      <point x="130" y="66" type="line"/>
      <point x="104" y="23"/>
      <point x="66" y="-84"/>
      <point x="66" y="-139" type="curve" smooth="yes"/>
      <point x="97" y="-148"/>
      <point x="147" y="-150"/>
      <point x="224" y="-150" type="curve"/>
      <point x="469" y="-148" type="line"/>
      <point x="610" y="-148"/>
      <point x="855" y="-154"/>
    </contour>
  </outline>
</glyph>
<glyph name="grave" format="1">
  <advance width="637"/>
  <unicode hex="0060"/>
  <outline>
    <contour>
      <point x="585" y="1254" type="curve" smooth="yes"/>
      <point x="568" y="1273"/>
      <point x="550" y="1292"/>
      <point x="531" y="1314" type="curve" smooth="yes"/>
      <point x="378" y="1664" type="line"/>
      <point x="378" y="1665"/>
      <point x="377" y="1665"/>
      <point x="376" y="1665" type="curve" smooth="yes"/>
      <point x="352" y="1665"/>
      <point x="329" y="1664"/>
      <point x="303" y="1663" type="curve"/>
      <point x="220" y="1635"/>
      <point x="63" y="1584"/>
      <point x="19" y="1568" type="curve"/>
      <point x="47" y="1549"/>
      <point x="75" y="1528"/>
      <point x="106" y="1507" type="curve" smooth="yes"/>
      <point x="220" y="1367"/>
      <point x="338" y="1233"/>
      <point x="400" y="1204" type="curve" smooth="yes"/>
      <point x="420" y="1204"/>
      <point x="438" y="1204"/>
      <point x="457" y="1206" type="curve"/>
      <point x="502" y="1223"/>
      <point x="568" y="1237"/>
    </contour>
  </outline>
</glyph>
<glyph name="a" format="1">
  <advance width="1421"/>
  <unicode hex="0061"/>
  <outline>
    <contour>
      <point x="291" y="125" type="curve"/>
      <point x="291" y="-6"/>
      <point x="428" y="-49"/>
      <point x="537" y="-49" type="curve"/>
      <point x="665" y="-49"/>
      <point x="794" y="-7"/>
      <point x="880" y="114" type="curve"/>
      <point x="887" y="83"/>
      <point x="921" y="-38"/>
      <point x="1080" y="-38" type="curve" smooth="yes"/>
      <point x="1081" y="-38"/>
      <point x="1081" y="-38"/>
      <point x="1081" y="-38" type="curve" smooth="yes"/>
      <point x="1233" y="-22"/>
      <point x="1362" y="30"/>
      <point x="1362" y="40" type="curve" smooth="yes"/>
      <point x="1362" y="80"/>
      <point x="1339" y="120"/>
      <point x="1339" y="183" type="curve" smooth="yes"/>
      <point x="1313" y="181"/>
      <point x="1292" y="181"/>
      <point x="1274" y="182" type="curve" smooth="yes"/>
      <point x="1235" y="183"/>
      <point x="1216" y="195"/>
      <point x="1217" y="240" type="curve"/>
      <point x="1248" y="833" type="line" smooth="yes"/>
      <point x="1252" y="880"/>
      <point x="1258" y="926"/>
      <point x="1263" y="972" type="curve"/>
      <point x="1216" y="1069"/>
      <point x="1078" y="1103"/>
      <point x="940" y="1113" type="curve"/>
      <point x="865" y="1119"/>
      <point x="827" y="1116"/>
      <point x="785" y="1080" type="curve"/>
      <point x="750" y="1109"/>
      <point x="710" y="1129"/>
      <point x="665" y="1129" type="curve" smooth="yes"/>
      <point x="483" y="1129"/>
      <point x="197" y="1061"/>
      <point x="155" y="841" type="curve" smooth="yes"/>
      <point x="131" y="758"/>
      <point x="140" y="652"/>
      <point x="140" y="590" type="curve" smooth="yes"/>
      <point x="196" y="594"/>
      <point x="252" y="598"/>
      <point x="308" y="603" type="curve"/>
      <point x="304" y="615"/>
      <point x="304" y="632"/>
      <point x="304" y="642" type="curve"/>
      <point x="304" y="706"/>
      <point x="345" y="740"/>
      <point x="434" y="740" type="curve"/>
      <point x="501" y="740"/>
      <point x="546" y="717"/>
      <point x="546" y="666" type="curve"/>
      <point x="546" y="365"/>
      <point x="191" y="376"/>
    </contour>
    <contour>
      <point x="496" y="389" type="curve" smooth="yes"/>
      <point x="502" y="508"/>
      <point x="559" y="623"/>
      <point x="679" y="643" type="curve" smooth="yes"/>
      <point x="747" y="656"/>
      <point x="818" y="651"/>
      <point x="889" y="664" type="curve"/>
      <point x="885" y="521"/>
      <point x="860" y="357"/>
      <point x="804" y="242" type="curve"/>
      <point x="758" y="204"/>
      <point x="703" y="183"/>
      <point x="641" y="183" type="curve" smooth="yes"/>
      <point x="548" y="183"/>
      <point x="496" y="249"/>
    </contour>
  </outline>
</glyph>
<glyph name="b" format="1">
  <advance width="1341"/>
  <unicode hex="0062"/>
  <outline>
    <contour>
      <point x="932" y="578" type="curve" smooth="yes"/>
      <point x="932" y="409"/>
      <point x="882" y="199"/>
      <point x="727" y="199" type="curve" smooth="yes"/>
      <point x="662" y="199"/>
      <point x="607" y="234"/>
      <point x="577" y="269" type="curve"/>
      <point x="526" y="332"/>
      <point x="515" y="438"/>
      <point x="518" y="536" type="curve"/>
      <point x="522" y="684"/>
      <point x="546" y="878"/>
      <point x="749" y="878" type="curve" smooth="yes"/>
      <point x="891" y="878"/>
      <point x="932" y="723"/>
    </contour>
    <contour>
      <point x="1312" y="578" type="curve" smooth="yes"/>
      <point x="1312" y="904"/>
      <point x="1119" y="1129"/>
      <point x="858" y="1129" type="curve" smooth="yes"/>
      <point x="736" y="1129"/>
      <point x="620" y="1078"/>
      <point x="537" y="973" type="curve"/>
      <point x="539" y="1050"/>
      <point x="558" y="1328"/>
      <point x="560" y="1405" type="curve" smooth="yes"/>
      <point x="560" y="1440"/>
      <point x="560" y="1475"/>
      <point x="560" y="1510" type="curve" smooth="yes"/>
      <point x="537" y="1520"/>
      <point x="505" y="1523"/>
      <point x="474" y="1523" type="curve" smooth="yes"/>
      <point x="464" y="1523"/>
      <point x="452" y="1517"/>
      <point x="445" y="1516" type="curve" smooth="yes"/>
      <point x="249" y="1486" type="line" smooth="yes"/>
      <point x="210" y="1482"/>
      <point x="184" y="1479"/>
      <point x="161" y="1474" type="curve" smooth="yes"/>
      <point x="161" y="1442"/>
      <point x="162" y="1409"/>
      <point x="162" y="1377" type="curve" smooth="yes"/>
      <point x="162" y="1375"/>
      <point x="161" y="1374"/>
      <point x="161" y="1372" type="curve" smooth="yes"/>
      <point x="109" y="95" type="line" smooth="yes"/>
      <point x="109" y="91"/>
      <point x="108" y="88"/>
      <point x="108" y="85" type="curve" smooth="yes"/>
      <point x="108" y="49"/>
      <point x="110" y="14"/>
      <point x="112" y="-19" type="curve" smooth="yes"/>
      <point x="142" y="-22"/>
      <point x="172" y="-23"/>
      <point x="205" y="-23" type="curve" smooth="yes"/>
      <point x="207" y="-23"/>
      <point x="211" y="-23"/>
      <point x="215" y="-22" type="curve" smooth="yes"/>
      <point x="300" y="-10"/>
      <point x="384" y="3"/>
      <point x="425" y="6" type="curve"/>
      <point x="459" y="46"/>
      <point x="464" y="82"/>
      <point x="474" y="145" type="curve"/>
      <point x="542" y="31"/>
      <point x="672" y="-49"/>
      <point x="805" y="-49" type="curve" smooth="yes"/>
      <point x="1088" y="-49"/>
      <point x="1312" y="178"/>
    </contour>
  </outline>
</glyph>
<glyph name="c" format="1">
  <advance width="1256"/>
  <unicode hex="0063"/>
  <outline>
    <contour>
      <point x="86" y="522" type="curve" smooth="yes"/>
      <point x="86" y="130"/>
      <point x="393" y="-49"/>
      <point x="709" y="-49" type="curve" smooth="yes"/>
      <point x="916" y="-49"/>
      <point x="1148" y="28"/>
      <point x="1191" y="204" type="curve"/>
      <point x="1193" y="204"/>
      <point x="1193" y="283"/>
      <point x="1193" y="322" type="curve" smooth="yes"/>
      <point x="1193" y="348"/>
      <point x="1189" y="368"/>
      <point x="1181" y="386" type="curve" smooth="yes"/>
      <point x="1153" y="386"/>
      <point x="1126" y="386"/>
      <point x="1100" y="385" type="curve" smooth="yes"/>
      <point x="1041" y="367"/>
      <point x="978" y="357"/>
      <point x="916" y="357" type="curve" smooth="yes"/>
      <point x="894" y="267"/>
      <point x="837" y="219"/>
      <point x="714" y="223" type="curve" smooth="yes"/>
      <point x="557" y="236"/>
      <point x="485" y="352"/>
      <point x="485" y="529" type="curve" smooth="yes"/>
      <point x="485" y="727"/>
      <point x="578" y="867"/>
      <point x="771" y="867" type="curve" smooth="yes"/>
      <point x="932" y="867"/>
      <point x="1001" y="774"/>
      <point x="1018" y="699" type="curve" smooth="yes"/>
      <point x="1083" y="699"/>
      <point x="1141" y="704"/>
      <point x="1198" y="707" type="curve" smooth="yes"/>
      <point x="1201" y="755"/>
      <point x="1216" y="836"/>
      <point x="1216" y="857" type="curve" smooth="yes"/>
      <point x="1216" y="979"/>
      <point x="1067" y="1094"/>
      <point x="838" y="1119" type="curve" smooth="yes"/>
      <point x="791" y="1125"/>
      <point x="743" y="1127"/>
      <point x="696" y="1124" type="curve" smooth="yes"/>
      <point x="359" y="1100"/>
      <point x="86" y="865"/>
    </contour>
  </outline>
</glyph>
<glyph name="d" format="1">
  <advance width="1346"/>
  <unicode hex="0064"/>
  <outline>
    <contour>
      <point x="460" y="532" type="curve" smooth="yes"/>
      <point x="460" y="672"/>
      <point x="502" y="875"/>
      <point x="681" y="875" type="curve" smooth="yes"/>
      <point x="772" y="875"/>
      <point x="828" y="824"/>
      <point x="859" y="752" type="curve"/>
      <point x="874" y="691"/>
      <point x="876" y="622"/>
      <point x="874" y="558" type="curve" smooth="yes"/>
      <point x="868" y="405"/>
      <point x="863" y="203"/>
      <point x="633" y="199" type="curve"/>
      <point x="477" y="199"/>
      <point x="460" y="392"/>
    </contour>
    <contour>
      <point x="70" y="527" type="curve" smooth="yes"/>
      <point x="70" y="193"/>
      <point x="224" y="-13"/>
      <point x="442" y="-40" type="curve" smooth="yes"/>
      <point x="486" y="-46"/>
      <point x="529" y="-47"/>
      <point x="572" y="-42" type="curve" smooth="yes"/>
      <point x="691" y="-33"/>
      <point x="813" y="39"/>
      <point x="875" y="139" type="curve"/>
      <point x="877" y="100"/>
      <point x="879" y="81"/>
      <point x="883" y="43" type="curve" smooth="yes"/>
      <point x="883" y="32"/>
      <point x="890" y="28"/>
      <point x="899" y="28" type="curve" smooth="yes"/>
      <point x="913" y="11"/>
      <point x="928" y="-1"/>
      <point x="939" y="-16" type="curve" smooth="yes"/>
      <point x="1142" y="23" type="line"/>
      <point x="1186" y="27"/>
      <point x="1216" y="30"/>
      <point x="1243" y="35" type="curve" smooth="yes"/>
      <point x="1243" y="67"/>
      <point x="1243" y="99"/>
      <point x="1243" y="133" type="curve" smooth="yes"/>
      <point x="1243" y="134"/>
      <point x="1243" y="136"/>
      <point x="1243" y="137" type="curve" smooth="yes"/>
      <point x="1301" y="1411" type="line" smooth="yes"/>
      <point x="1301" y="1442"/>
      <point x="1301" y="1478"/>
      <point x="1301" y="1510" type="curve" smooth="yes"/>
      <point x="1278" y="1520"/>
      <point x="1246" y="1523"/>
      <point x="1215" y="1523" type="curve" smooth="yes"/>
      <point x="1204" y="1523"/>
      <point x="1193" y="1517"/>
      <point x="1186" y="1516" type="curve" smooth="yes"/>
      <point x="919" y="1486" type="line" smooth="yes"/>
      <point x="903" y="1448"/>
      <point x="901" y="1412"/>
      <point x="901" y="1373" type="curve"/>
      <point x="898" y="1248"/>
      <point x="891" y="1096"/>
      <point x="888" y="970" type="curve"/>
      <point x="818" y="1078"/>
      <point x="717" y="1129"/>
      <point x="604" y="1129" type="curve" smooth="yes"/>
      <point x="326" y="1129"/>
      <point x="70" y="903"/>
    </contour>
  </outline>
</glyph>
<glyph name="e" format="1">
  <advance width="1296"/>
  <unicode hex="0065"/>
  <outline>
    <contour>
      <point x="86" y="522" type="curve" smooth="yes"/>
      <point x="86" y="142"/>
      <point x="364" y="-49"/>
      <point x="718" y="-49" type="curve" smooth="yes"/>
      <point x="895" y="-49"/>
      <point x="1225" y="38"/>
      <point x="1225" y="218" type="curve" smooth="yes"/>
      <point x="1225" y="221"/>
      <point x="1224" y="225"/>
      <point x="1223" y="230" type="curve"/>
      <point x="1224" y="291"/>
      <point x="1223" y="331"/>
      <point x="1224" y="333" type="curve" smooth="yes"/>
      <point x="1161" y="333"/>
      <point x="1098" y="332"/>
      <point x="1033" y="331" type="curve"/>
      <point x="991" y="250"/>
      <point x="874" y="198"/>
      <point x="749" y="198" type="curve" smooth="yes"/>
      <point x="610" y="198"/>
      <point x="488" y="267"/>
      <point x="476" y="438" type="curve"/>
      <point x="560" y="434"/>
      <point x="644" y="433"/>
      <point x="727" y="433" type="curve" smooth="yes"/>
      <point x="963" y="433"/>
      <point x="1156" y="515"/>
      <point x="1253" y="589" type="curve" smooth="yes"/>
      <point x="1253" y="898"/>
      <point x="1064" y="1129"/>
      <point x="722" y="1129" type="curve" smooth="yes"/>
      <point x="367" y="1129"/>
      <point x="86" y="880"/>
    </contour>
    <contour>
      <point x="474" y="626" type="curve"/>
      <point x="490" y="783"/>
      <point x="592" y="872"/>
      <point x="702" y="884" type="curve" smooth="yes"/>
      <point x="723" y="886"/>
      <point x="744" y="886"/>
      <point x="765" y="883" type="curve" smooth="yes"/>
      <point x="838" y="869"/>
      <point x="913" y="810"/>
      <point x="913" y="716" type="curve" smooth="yes"/>
      <point x="913" y="704"/>
      <point x="909" y="690"/>
      <point x="902" y="677" type="curve" smooth="yes"/>
      <point x="791" y="659"/>
      <point x="655" y="641"/>
    </contour>
  </outline>
</glyph>
<glyph name="f" format="1">
  <advance width="980"/>
  <unicode hex="0066"/>
  <outline>
    <contour>
      <point x="868" y="1251" type="curve" smooth="yes"/>
      <point x="927" y="1251"/>
      <point x="965" y="1266"/>
      <point x="1048" y="1339" type="curve" smooth="yes"/>
      <point x="1061" y="1362"/>
      <point x="1067" y="1383"/>
      <point x="1067" y="1403" type="curve" smooth="yes"/>
      <point x="1067" y="1494"/>
      <point x="871" y="1576"/>
      <point x="705" y="1576" type="curve" smooth="yes"/>
      <point x="522" y="1576"/>
      <point x="301" y="1494"/>
      <point x="283" y="1214" type="curve"/>
      <point x="274" y="1066" type="line"/>
      <point x="125" y="1066" type="line"/>
      <point x="120" y="1026"/>
      <point x="60" y="903"/>
      <point x="60" y="863" type="curve" smooth="yes"/>
      <point x="75" y="855"/>
      <point x="104" y="853"/>
      <point x="152" y="853" type="curve" smooth="yes"/>
      <point x="259" y="853" type="line"/>
      <point x="243" y="538"/>
      <point x="228" y="225"/>
      <point x="226" y="57" type="curve"/>
      <point x="226" y="30"/>
      <point x="227" y="4"/>
      <point x="230" y="-20" type="curve" smooth="yes"/>
      <point x="250" y="-22"/>
      <point x="272" y="-23"/>
      <point x="295" y="-23" type="curve" smooth="yes"/>
      <point x="305" y="-23"/>
      <point x="317" y="-18"/>
      <point x="323" y="-16" type="curve" smooth="yes"/>
      <point x="547" y="26" type="line"/>
      <point x="580" y="30"/>
      <point x="600" y="32"/>
      <point x="617" y="38" type="curve" smooth="yes"/>
      <point x="617" y="60"/>
      <point x="617" y="83"/>
      <point x="617" y="106" type="curve" smooth="yes"/>
      <point x="617" y="294"/>
      <point x="634" y="578"/>
      <point x="647" y="854" type="curve"/>
      <point x="781" y="854" type="line"/>
      <point x="814" y="856"/>
      <point x="834" y="859"/>
      <point x="857" y="868" type="curve" smooth="yes"/>
      <point x="930" y="905" type="line" smooth="yes"/>
      <point x="943" y="967"/>
      <point x="950" y="1019"/>
      <point x="950" y="1055" type="curve" smooth="yes"/>
      <point x="932" y="1063"/>
      <point x="909" y="1066"/>
      <point x="886" y="1066" type="curve" smooth="yes"/>
      <point x="661" y="1066" type="line"/>
      <point x="640" y="1150"/>
      <point x="637" y="1234"/>
      <point x="653" y="1286" type="curve" smooth="yes"/>
      <point x="664" y="1334"/>
      <point x="704" y="1357"/>
      <point x="746" y="1357" type="curve" smooth="yes"/>
      <point x="791" y="1357"/>
      <point x="838" y="1332"/>
      <point x="859" y="1287" type="curve" smooth="yes"/>
      <point x="864" y="1276"/>
      <point x="867" y="1263"/>
    </contour>
  </outline>
</glyph>
<glyph name="h" format="1">
  <advance width="1359"/>
  <unicode hex="0068"/>
  <outline>
    <contour>
      <point x="162" y="1482" type="curve" smooth="yes"/>
      <point x="162" y="1454"/>
      <point x="162" y="1426"/>
      <point x="162" y="1398" type="curve"/>
      <point x="111" y="68" type="line"/>
      <point x="111" y="37"/>
      <point x="113" y="8"/>
      <point x="116" y="-20" type="curve" smooth="yes"/>
      <point x="142" y="-22"/>
      <point x="169" y="-23"/>
      <point x="198" y="-23" type="curve" smooth="yes"/>
      <point x="208" y="-23"/>
      <point x="219" y="-18"/>
      <point x="226" y="-16" type="curve" smooth="yes"/>
      <point x="413" y="25" type="line"/>
      <point x="453" y="29"/>
      <point x="478" y="31"/>
      <point x="502" y="36" type="curve" smooth="yes"/>
      <point x="502" y="70"/>
      <point x="502" y="103"/>
      <point x="502" y="139" type="curve" smooth="yes"/>
      <point x="502" y="320"/>
      <point x="510" y="448"/>
      <point x="571" y="710" type="curve"/>
      <point x="595" y="785"/>
      <point x="648" y="834"/>
      <point x="718" y="848" type="curve" smooth="yes"/>
      <point x="780" y="862"/>
      <point x="830" y="858"/>
      <point x="859" y="842" type="curve" smooth="yes"/>
      <point x="913" y="827"/>
      <point x="930" y="770"/>
      <point x="933" y="696" type="curve" smooth="yes"/>
      <point x="940" y="627"/>
      <point x="932" y="544"/>
      <point x="930" y="470" type="curve"/>
      <point x="914" y="236"/>
      <point x="923" y="306"/>
      <point x="907" y="73" type="curve"/>
      <point x="907" y="40"/>
      <point x="908" y="9"/>
      <point x="911" y="-20" type="curve" smooth="yes"/>
      <point x="937" y="-22"/>
      <point x="964" y="-23"/>
      <point x="993" y="-23" type="curve" smooth="yes"/>
      <point x="1003" y="-23"/>
      <point x="1015" y="-18"/>
      <point x="1022" y="-16" type="curve" smooth="yes"/>
      <point x="1202" y="14" type="line"/>
      <point x="1241" y="19"/>
      <point x="1267" y="21"/>
      <point x="1291" y="26" type="curve" smooth="yes"/>
      <point x="1291" y="56"/>
      <point x="1290" y="85"/>
      <point x="1290" y="117" type="curve" smooth="yes"/>
      <point x="1290" y="173"/>
      <point x="1290" y="227"/>
      <point x="1293" y="279" type="curve"/>
      <point x="1313" y="703" type="line" smooth="yes"/>
      <point x="1314" y="753"/>
      <point x="1311" y="797"/>
      <point x="1303" y="836" type="curve" smooth="yes"/>
      <point x="1281" y="1026"/>
      <point x="1168" y="1106"/>
      <point x="1024" y="1121" type="curve" smooth="yes"/>
      <point x="981" y="1126"/>
      <point x="936" y="1126"/>
      <point x="889" y="1121" type="curve" smooth="yes"/>
      <point x="740" y="1112"/>
      <point x="626" y="1053"/>
      <point x="538" y="941" type="curve"/>
      <point x="543" y="1047"/>
      <point x="562" y="1352"/>
      <point x="562" y="1437" type="curve" smooth="yes"/>
      <point x="562" y="1473"/>
      <point x="556" y="1505"/>
      <point x="546" y="1532" type="curve" smooth="yes"/>
      <point x="512" y="1532"/>
      <point x="477" y="1526"/>
      <point x="447" y="1525" type="curve" smooth="yes"/>
      <point x="251" y="1495" type="line" smooth="yes"/>
      <point x="211" y="1491"/>
      <point x="186" y="1487"/>
    </contour>
  </outline>
</glyph>
<glyph name="i" format="1">
  <advance width="600"/>
  <unicode hex="0069"/>
  <outline>
    <contour>
      <point x="158" y="1070" type="curve" smooth="yes"/>
      <point x="139" y="952"/>
      <point x="130" y="643"/>
      <point x="123" y="460" type="curve" smooth="yes"/>
      <point x="117" y="334"/>
      <point x="105" y="118"/>
      <point x="105" y="49" type="curve" smooth="yes"/>
      <point x="105" y="23"/>
      <point x="107" y="-1"/>
      <point x="110" y="-23" type="curve" smooth="yes"/>
      <point x="136" y="-23"/>
      <point x="160" y="-23"/>
      <point x="185" y="-23" type="curve" smooth="yes"/>
      <point x="290" y="-3"/>
      <point x="388" y="17"/>
      <point x="485" y="32" type="curve"/>
      <point x="496" y="80"/>
      <point x="496" y="131"/>
      <point x="498" y="195" type="curve" smooth="yes"/>
      <point x="539" y="1104" type="line" smooth="yes"/>
      <point x="515" y="1106"/>
      <point x="490" y="1107"/>
      <point x="463" y="1107" type="curve" smooth="yes"/>
      <point x="461" y="1107"/>
      <point x="460" y="1107"/>
      <point x="459" y="1107" type="curve" smooth="yes"/>
      <point x="360" y="1089"/>
      <point x="255" y="1080"/>
    </contour>
    <contour>
      <point x="559" y="1553" type="line"/>
      <point x="487" y="1554" type="line" smooth="yes"/>
      <point x="486" y="1554"/>
      <point x="484" y="1556"/>
      <point x="484" y="1557" type="curve"/>
      <point x="482" y="1557"/>
      <point x="480" y="1557"/>
      <point x="480" y="1557" type="curve" smooth="yes"/>
      <point x="381" y="1540"/>
      <point x="276" y="1530"/>
      <point x="178" y="1520" type="curve" smooth="yes"/>
      <point x="154" y="1465"/>
      <point x="158" y="1288"/>
      <point x="156" y="1223" type="curve" smooth="yes"/>
      <point x="180" y="1219"/>
      <point x="205" y="1218"/>
      <point x="232" y="1218" type="curve" smooth="yes"/>
      <point x="234" y="1218"/>
      <point x="235" y="1218"/>
      <point x="236" y="1219" type="curve"/>
      <point x="341" y="1230"/>
      <point x="439" y="1242"/>
      <point x="536" y="1251" type="curve" smooth="yes"/>
      <point x="547" y="1278"/>
      <point x="547" y="1310"/>
      <point x="549" y="1355" type="curve" smooth="yes"/>
    </contour>
  </outline>
</glyph>
<glyph name="j" format="1">
  <advance width="764"/>
  <unicode hex="006A"/>
  <outline>
    <contour>
      <point x="99" y="30" type="curve" smooth="yes"/>
      <point x="49" y="33"/>
      <point x="-1" y="34"/>
      <point x="-47" y="34" type="curve" smooth="yes"/>
      <point x="-62" y="16"/>
      <point x="-86" y="-20"/>
      <point x="-111" y="-113" type="curve" smooth="yes"/>
      <point x="-112" y="-115"/>
      <point x="-112" y="-117"/>
      <point x="-112" y="-117" type="curve" smooth="yes"/>
      <point x="-112" y="-203"/>
      <point x="68" y="-294"/>
      <point x="238" y="-294" type="curve" smooth="yes"/>
      <point x="420" y="-294"/>
      <point x="627" y="-213"/>
      <point x="651" y="17" type="curve" smooth="yes"/>
      <point x="655" y="54"/>
      <point x="658" y="92"/>
      <point x="661" y="131" type="curve" smooth="yes"/>
      <point x="670" y="321" type="line"/>
      <point x="703" y="1104" type="line" smooth="yes"/>
      <point x="685" y="1106"/>
      <point x="666" y="1107"/>
      <point x="645" y="1107" type="curve" smooth="yes"/>
      <point x="643" y="1107"/>
      <point x="642" y="1107"/>
      <point x="641" y="1107" type="curve" smooth="yes"/>
      <point x="536" y="1089"/>
      <point x="426" y="1080"/>
      <point x="322" y="1070" type="curve" smooth="yes"/>
      <point x="302" y="903"/>
      <point x="283" y="430"/>
      <point x="275" y="200" type="curve" smooth="yes"/>
      <point x="274" y="164"/>
      <point x="280" y="105"/>
      <point x="279" y="55" type="curve" smooth="yes"/>
      <point x="273" y="-30"/>
      <point x="243" y="-71"/>
      <point x="192" y="-71" type="curve" smooth="yes"/>
      <point x="159" y="-71"/>
      <point x="138" y="-50"/>
      <point x="127" y="-12" type="curve" smooth="yes"/>
      <point x="117" y="0"/>
      <point x="108" y="15"/>
    </contour>
    <contour>
      <point x="723" y="1553" type="line"/>
      <point x="651" y="1554" type="line" smooth="yes"/>
      <point x="650" y="1554"/>
      <point x="649" y="1556"/>
      <point x="648" y="1557" type="curve"/>
      <point x="646" y="1557"/>
      <point x="645" y="1557"/>
      <point x="644" y="1557" type="curve" smooth="yes"/>
      <point x="545" y="1540"/>
      <point x="440" y="1530"/>
      <point x="343" y="1520" type="curve" smooth="yes"/>
      <point x="318" y="1465"/>
      <point x="322" y="1288"/>
      <point x="321" y="1223" type="curve" smooth="yes"/>
      <point x="344" y="1219"/>
      <point x="369" y="1218"/>
      <point x="396" y="1218" type="curve" smooth="yes"/>
      <point x="398" y="1218"/>
      <point x="399" y="1218"/>
      <point x="400" y="1219" type="curve"/>
      <point x="505" y="1230"/>
      <point x="603" y="1242"/>
      <point x="700" y="1251" type="curve" smooth="yes"/>
      <point x="711" y="1278"/>
      <point x="712" y="1310"/>
      <point x="713" y="1355" type="curve" smooth="yes"/>
    </contour>
  </outline>
</glyph>
<glyph name="k" format="1">
  <advance width="1337"/>
  <unicode hex="006B"/>
  <outline>
    <contour>
      <point x="481" y="22" type="line"/>
      <point x="499" y="51"/>
      <point x="501" y="76"/>
      <point x="501" y="107" type="curve" smooth="yes"/>
      <point x="501" y="133"/>
      <point x="500" y="159"/>
      <point x="500" y="187" type="curve" smooth="yes"/>
      <point x="518" y="211"/>
      <point x="545" y="322"/>
      <point x="562" y="347" type="curve" smooth="yes"/>
      <point x="579" y="376"/>
      <point x="604" y="393"/>
      <point x="627" y="415" type="curve"/>
      <point x="712" y="284"/>
      <point x="882" y="43"/>
      <point x="952" y="-39" type="curve" smooth="yes"/>
      <point x="1073" y="-39"/>
      <point x="1257" y="28"/>
      <point x="1336" y="31" type="curve" smooth="yes"/>
      <point x="1320" y="60"/>
      <point x="1291" y="83"/>
      <point x="1271" y="113" type="curve"/>
      <point x="1058" y="376" type="line"/>
      <point x="893" y="596" type="line"/>
      <point x="935" y="639"/>
      <point x="972" y="678"/>
      <point x="1006" y="713" type="curve" smooth="yes"/>
      <point x="1271" y="996" type="line" smooth="yes"/>
      <point x="1298" y="1024"/>
      <point x="1322" y="1050"/>
      <point x="1343" y="1073" type="curve" smooth="yes"/>
      <point x="1313" y="1076"/>
      <point x="1282" y="1077"/>
      <point x="1248" y="1077" type="curve" smooth="yes"/>
      <point x="1246" y="1077"/>
      <point x="1244" y="1077"/>
      <point x="1242" y="1077" type="curve"/>
      <point x="888" y="1064" type="line"/>
      <point x="866" y="1041"/>
      <point x="824" y="991"/>
      <point x="779" y="941" type="curve" smooth="yes"/>
      <point x="525" y="664" type="line"/>
      <point x="530" y="800"/>
      <point x="539" y="988"/>
      <point x="548" y="1164" type="curve" smooth="yes"/>
      <point x="564" y="1413" type="line" smooth="yes"/>
      <point x="564" y="1445"/>
      <point x="565" y="1478"/>
      <point x="565" y="1510" type="curve" smooth="yes"/>
      <point x="541" y="1520"/>
      <point x="509" y="1523"/>
      <point x="478" y="1523" type="curve" smooth="yes"/>
      <point x="467" y="1523"/>
      <point x="456" y="1517"/>
      <point x="449" y="1516" type="curve" smooth="yes"/>
      <point x="253" y="1486" type="line" smooth="yes"/>
      <point x="213" y="1482"/>
      <point x="187" y="1477"/>
      <point x="164" y="1472" type="curve" smooth="yes"/>
      <point x="164" y="1435"/>
      <point x="164" y="1398"/>
      <point x="164" y="1360" type="curve"/>
      <point x="108" y="95" type="line"/>
      <point x="108" y="55"/>
      <point x="110" y="16"/>
      <point x="113" y="-20" type="curve" smooth="yes"/>
      <point x="139" y="-22"/>
      <point x="166" y="-23"/>
      <point x="194" y="-23" type="curve" smooth="yes"/>
      <point x="205" y="-23"/>
      <point x="216" y="-18"/>
      <point x="223" y="-16" type="curve" smooth="yes"/>
    </contour>
  </outline>
</glyph>
<glyph name="l" format="1">
  <advance width="604"/>
  <unicode hex="006C"/>
  <outline>
    <contour>
      <point x="483" y="24" type="line"/>
      <point x="504" y="75"/>
      <point x="501" y="124"/>
      <point x="501" y="181" type="curve"/>
      <point x="559" y="1373" type="line"/>
      <point x="559" y="1376"/>
      <point x="557" y="1377"/>
      <point x="554" y="1377" type="curve" smooth="yes"/>
      <point x="552" y="1422"/>
      <point x="551" y="1469"/>
      <point x="550" y="1514" type="curve" smooth="yes"/>
      <point x="424" y="1497"/>
      <point x="297" y="1488"/>
      <point x="171" y="1478" type="curve"/>
      <point x="151" y="1382"/>
      <point x="148" y="1091"/>
      <point x="142" y="930" type="curve" smooth="yes"/>
      <point x="128" y="628"/>
      <point x="110" y="383"/>
      <point x="110" y="125" type="curve" smooth="yes"/>
      <point x="110" y="69"/>
      <point x="117" y="20"/>
      <point x="126" y="-26" type="curve" smooth="yes"/>
      <point x="171" y="-26"/>
      <point x="218" y="-22"/>
      <point x="260" y="-19" type="curve"/>
    </contour>
  </outline>
</glyph>
<glyph name="m" format="1">
  <advance width="2084"/>
  <unicode hex="006D"/>
  <outline>
    <contour>
      <point x="146" y="1055" type="curve"/>
      <point x="105" y="67" type="line"/>
      <point x="105" y="36"/>
      <point x="107" y="7"/>
      <point x="110" y="-20" type="curve" smooth="yes"/>
      <point x="136" y="-22"/>
      <point x="163" y="-23"/>
      <point x="192" y="-23" type="curve" smooth="yes"/>
      <point x="202" y="-23"/>
      <point x="214" y="-18"/>
      <point x="220" y="-16" type="curve" smooth="yes"/>
      <point x="478" y="26" type="line" smooth="yes"/>
      <point x="515" y="116"/>
      <point x="493" y="271"/>
      <point x="516" y="424" type="curve"/>
      <point x="520" y="473"/>
      <point x="526" y="521"/>
      <point x="541" y="636" type="curve"/>
      <point x="564" y="782"/>
      <point x="665" y="867"/>
      <point x="753" y="867" type="curve" smooth="yes"/>
      <point x="855" y="867"/>
      <point x="883" y="794"/>
      <point x="889" y="695" type="curve" smooth="yes"/>
      <point x="895" y="631"/>
      <point x="888" y="555"/>
      <point x="886" y="485" type="curve"/>
      <point x="870" y="245"/>
      <point x="879" y="297"/>
      <point x="862" y="57" type="curve"/>
      <point x="862" y="29"/>
      <point x="863" y="4"/>
      <point x="866" y="-20" type="curve" smooth="yes"/>
      <point x="893" y="-22"/>
      <point x="920" y="-23"/>
      <point x="948" y="-23" type="curve" smooth="yes"/>
      <point x="958" y="-23"/>
      <point x="970" y="-18"/>
      <point x="977" y="-16" type="curve" smooth="yes"/>
      <point x="1152" y="14" type="line"/>
      <point x="1192" y="19"/>
      <point x="1217" y="22"/>
      <point x="1241" y="26" type="curve" smooth="yes"/>
      <point x="1241" y="51"/>
      <point x="1241" y="78"/>
      <point x="1241" y="106" type="curve" smooth="yes"/>
      <point x="1241" y="222"/>
      <point x="1245" y="373"/>
      <point x="1293" y="667" type="curve"/>
      <point x="1312" y="736"/>
      <point x="1345" y="788"/>
      <point x="1404" y="788" type="curve" smooth="yes"/>
      <point x="1446" y="849"/>
      <point x="1526" y="857"/>
      <point x="1563" y="841" type="curve" smooth="yes"/>
      <point x="1614" y="826"/>
      <point x="1630" y="769"/>
      <point x="1633" y="695" type="curve" smooth="yes"/>
      <point x="1639" y="631"/>
      <point x="1632" y="555"/>
      <point x="1630" y="485" type="curve"/>
      <point x="1614" y="245"/>
      <point x="1622" y="297"/>
      <point x="1605" y="57" type="curve"/>
      <point x="1605" y="29"/>
      <point x="1606" y="4"/>
      <point x="1610" y="-20" type="curve" smooth="yes"/>
      <point x="1636" y="-22"/>
      <point x="1663" y="-23"/>
      <point x="1692" y="-23" type="curve" smooth="yes"/>
      <point x="1702" y="-23"/>
      <point x="1713" y="-18"/>
      <point x="1720" y="-16" type="curve" smooth="yes"/>
      <point x="1900" y="14" type="line"/>
      <point x="1940" y="19"/>
      <point x="1966" y="21"/>
      <point x="1990" y="26" type="curve" smooth="yes"/>
      <point x="1990" y="51"/>
      <point x="1989" y="77"/>
      <point x="1989" y="104" type="curve" smooth="yes"/>
      <point x="1989" y="177"/>
      <point x="1989" y="240"/>
      <point x="1992" y="309" type="curve"/>
      <point x="2013" y="703" type="line" smooth="yes"/>
      <point x="2015" y="719"/>
      <point x="2015" y="734"/>
      <point x="2015" y="748" type="curve" smooth="yes"/>
      <point x="2015" y="1027"/>
      <point x="1850" y="1128"/>
      <point x="1643" y="1128" type="curve" smooth="yes"/>
      <point x="1478" y="1128"/>
      <point x="1339" y="1064"/>
      <point x="1234" y="946" type="curve"/>
      <point x="1194" y="1033"/>
      <point x="1129" y="1081"/>
      <point x="1050" y="1101" type="curve" smooth="yes"/>
      <point x="992" y="1120"/>
      <point x="926" y="1125"/>
      <point x="855" y="1119" type="curve" smooth="yes"/>
      <point x="706" y="1107"/>
      <point x="593" y="1046"/>
      <point x="514" y="940" type="curve"/>
      <point x="502" y="1060" type="line" smooth="yes"/>
      <point x="497" y="1080"/>
      <point x="491" y="1100"/>
      <point x="485" y="1119" type="curve" smooth="yes"/>
      <point x="459" y="1120"/>
      <point x="431" y="1120"/>
      <point x="403" y="1120" type="curve"/>
      <point x="349" y="1103"/>
      <point x="291" y="1093"/>
      <point x="236" y="1083" type="curve" smooth="yes"/>
      <point x="200" y="1080"/>
      <point x="173" y="1074"/>
    </contour>
  </outline>
</glyph>
<glyph name="n" format="1">
  <advance width="1373"/>
  <unicode hex="006E"/>
  <outline>
    <contour>
      <point x="158" y="1082" type="curve" smooth="yes"/>
      <point x="148" y="1057"/>
      <point x="147" y="1030"/>
      <point x="145" y="987" type="curve" smooth="yes"/>
      <point x="104" y="58" type="line"/>
      <point x="104" y="30"/>
      <point x="106" y="5"/>
      <point x="109" y="-20" type="curve" smooth="yes"/>
      <point x="135" y="-22"/>
      <point x="162" y="-23"/>
      <point x="191" y="-23" type="curve" smooth="yes"/>
      <point x="201" y="-23"/>
      <point x="213" y="-18"/>
      <point x="219" y="-16" type="curve" smooth="yes"/>
      <point x="408" y="25" type="line"/>
      <point x="447" y="29"/>
      <point x="473" y="31"/>
      <point x="497" y="36" type="curve" smooth="yes"/>
      <point x="497" y="70"/>
      <point x="497" y="103"/>
      <point x="497" y="139" type="curve" smooth="yes"/>
      <point x="497" y="305"/>
      <point x="505" y="398"/>
      <point x="545" y="670" type="curve"/>
      <point x="568" y="778"/>
      <point x="639" y="848"/>
      <point x="732" y="859" type="curve" smooth="yes"/>
      <point x="776" y="865"/>
      <point x="812" y="862"/>
      <point x="836" y="853" type="curve" smooth="yes"/>
      <point x="904" y="834"/>
      <point x="923" y="774"/>
      <point x="925" y="700" type="curve" smooth="yes"/>
      <point x="928" y="631"/>
      <point x="923" y="556"/>
      <point x="921" y="486" type="curve" smooth="yes"/>
      <point x="906" y="274"/>
      <point x="908" y="219"/>
      <point x="897" y="57" type="curve"/>
      <point x="897" y="29"/>
      <point x="898" y="4"/>
      <point x="901" y="-20" type="curve" smooth="yes"/>
      <point x="928" y="-22"/>
      <point x="955" y="-23"/>
      <point x="983" y="-23" type="curve" smooth="yes"/>
      <point x="993" y="-23"/>
      <point x="1005" y="-18"/>
      <point x="1012" y="-16" type="curve" smooth="yes"/>
      <point x="1191" y="14" type="line"/>
      <point x="1230" y="19"/>
      <point x="1256" y="21"/>
      <point x="1280" y="26" type="curve" smooth="yes"/>
      <point x="1280" y="51"/>
      <point x="1279" y="77"/>
      <point x="1279" y="104" type="curve" smooth="yes"/>
      <point x="1279" y="177"/>
      <point x="1279" y="240"/>
      <point x="1283" y="309" type="curve"/>
      <point x="1303" y="703" type="line" smooth="yes"/>
      <point x="1305" y="720"/>
      <point x="1305" y="735"/>
      <point x="1305" y="749" type="curve" smooth="yes"/>
      <point x="1305" y="984"/>
      <point x="1203" y="1100"/>
      <point x="1025" y="1121" type="curve" smooth="yes"/>
      <point x="984" y="1126"/>
      <point x="942" y="1128"/>
      <point x="896" y="1125" type="curve" smooth="yes"/>
      <point x="737" y="1119"/>
      <point x="612" y="1064"/>
      <point x="503" y="941" type="curve"/>
      <point x="507" y="1020"/>
      <point x="501" y="1040"/>
      <point x="496" y="1061" type="curve" smooth="yes"/>
      <point x="490" y="1080"/>
      <point x="485" y="1100"/>
      <point x="479" y="1119" type="curve" smooth="yes"/>
      <point x="454" y="1120"/>
      <point x="427" y="1120"/>
      <point x="400" y="1120" type="curve"/>
      <point x="321" y="1102"/>
      <point x="237" y="1093"/>
    </contour>
  </outline>
</glyph>
<glyph name="o" format="1">
  <advance width="1427"/>
  <unicode hex="006F"/>
  <outline>
    <contour>
      <point x="738" y="199" type="curve"/>
      <point x="543" y="199"/>
      <point x="483" y="363"/>
      <point x="483" y="532" type="curve" smooth="yes"/>
      <point x="483" y="683"/>
      <point x="542" y="875"/>
      <point x="732" y="875" type="curve" smooth="yes"/>
      <point x="920" y="875"/>
      <point x="992" y="720"/>
      <point x="992" y="558" type="curve" smooth="yes"/>
      <point x="992" y="398"/>
      <point x="939" y="203"/>
    </contour>
    <contour>
      <point x="720" y="-49" type="curve" smooth="yes"/>
      <point x="1074" y="-49"/>
      <point x="1383" y="168"/>
      <point x="1383" y="562" type="curve" smooth="yes"/>
      <point x="1383" y="912"/>
      <point x="1115" y="1138"/>
      <point x="689" y="1138" type="curve" smooth="yes"/>
      <point x="686" y="1138"/>
      <point x="683" y="1136"/>
      <point x="683" y="1129" type="curve" smooth="yes"/>
      <point x="683" y="1125"/>
      <point x="686" y="1119"/>
      <point x="686" y="1113" type="curve" smooth="yes"/>
      <point x="636" y="1111"/>
      <point x="585" y="1103"/>
      <point x="535" y="1088" type="curve"/>
      <point x="275" y="1024"/>
      <point x="86" y="813"/>
      <point x="86" y="527" type="curve" smooth="yes"/>
      <point x="86" y="183"/>
      <point x="353" y="-49"/>
    </contour>
  </outline>
</glyph>
<glyph name="p" format="1">
  <advance width="1345"/>
  <unicode hex="0070"/>
  <outline>
    <contour>
      <point x="1318" y="586" type="curve" smooth="yes"/>
      <point x="1318" y="870"/>
      <point x="1202" y="1060"/>
      <point x="1004" y="1101" type="curve" smooth="yes"/>
      <point x="941" y="1121"/>
      <point x="873" y="1126"/>
      <point x="806" y="1122" type="curve" smooth="yes"/>
      <point x="690" y="1113"/>
      <point x="571" y="1039"/>
      <point x="509" y="940" type="curve"/>
      <point x="515" y="1019"/>
      <point x="512" y="1039"/>
      <point x="508" y="1061" type="curve" smooth="yes"/>
      <point x="505" y="1080"/>
      <point x="501" y="1100"/>
      <point x="497" y="1120" type="curve" smooth="yes"/>
      <point x="468" y="1121"/>
      <point x="439" y="1121"/>
      <point x="409" y="1121" type="curve"/>
      <point x="355" y="1104"/>
      <point x="296" y="1094"/>
      <point x="242" y="1083" type="curve" smooth="yes"/>
      <point x="203" y="1081"/>
      <point x="174" y="1075"/>
      <point x="145" y="1056" type="curve" smooth="yes"/>
      <point x="90" y="-318" type="line"/>
      <point x="90" y="-353"/>
      <point x="92" y="-387"/>
      <point x="95" y="-419" type="curve" smooth="yes"/>
      <point x="121" y="-421"/>
      <point x="148" y="-422"/>
      <point x="176" y="-422" type="curve" smooth="yes"/>
      <point x="187" y="-422"/>
      <point x="198" y="-417"/>
      <point x="205" y="-415" type="curve" smooth="yes"/>
      <point x="393" y="-385" type="line" smooth="yes"/>
      <point x="432" y="-381"/>
      <point x="458" y="-378"/>
      <point x="482" y="-373" type="curve" smooth="yes"/>
      <point x="482" y="-340"/>
      <point x="482" y="-308"/>
      <point x="482" y="-273" type="curve" smooth="yes"/>
      <point x="482" y="-204"/>
      <point x="498" y="24"/>
      <point x="498" y="93" type="curve"/>
      <point x="573" y="-5"/>
      <point x="677" y="-49"/>
      <point x="797" y="-49" type="curve" smooth="yes"/>
      <point x="1088" y="-49"/>
      <point x="1318" y="232"/>
    </contour>
    <contour>
      <point x="935" y="565" type="curve" smooth="yes"/>
      <point x="935" y="396"/>
      <point x="886" y="199"/>
      <point x="716" y="199" type="curve" smooth="yes"/>
      <point x="624" y="199"/>
      <point x="566" y="250"/>
      <point x="534" y="323" type="curve"/>
      <point x="517" y="377"/>
      <point x="514" y="442"/>
      <point x="518" y="543" type="curve" smooth="yes"/>
      <point x="520" y="604"/>
      <point x="523" y="681"/>
      <point x="548" y="750" type="curve"/>
      <point x="585" y="816"/>
      <point x="657" y="878"/>
      <point x="751" y="878" type="curve" smooth="yes"/>
      <point x="910" y="878"/>
      <point x="935" y="702"/>
    </contour>
  </outline>
</glyph>
<glyph name="q" format="1">
  <advance width="1333"/>
  <unicode hex="0071"/>
  <outline>
    <contour>
      <point x="450" y="502" type="curve" smooth="yes"/>
      <point x="450" y="671"/>
      <point x="500" y="880"/>
      <point x="662" y="880" type="curve" smooth="yes"/>
      <point x="752" y="880"/>
      <point x="814" y="816"/>
      <point x="842" y="749" type="curve"/>
      <point x="859" y="707"/>
      <point x="862" y="655"/>
      <point x="862" y="615" type="curve" smooth="yes"/>
      <point x="853" y="478"/>
      <point x="847" y="389"/>
      <point x="829" y="326" type="curve"/>
      <point x="790" y="252"/>
      <point x="729" y="201"/>
      <point x="640" y="201" type="curve" smooth="yes"/>
      <point x="489" y="201"/>
      <point x="450" y="357"/>
    </contour>
    <contour>
      <point x="70" y="501" type="curve" smooth="yes"/>
      <point x="70" y="174"/>
      <point x="267" y="-49"/>
      <point x="529" y="-49" type="curve" smooth="yes"/>
      <point x="649" y="-49"/>
      <point x="756" y="-2"/>
      <point x="838" y="95" type="curve"/>
      <point x="836" y="26"/>
      <point x="820" y="-245"/>
      <point x="818" y="-314" type="curve" smooth="yes"/>
      <point x="817" y="-315"/>
      <point x="817" y="-316"/>
      <point x="817" y="-318" type="curve" smooth="yes"/>
      <point x="817" y="-357"/>
      <point x="825" y="-390"/>
      <point x="833" y="-420" type="curve" smooth="yes"/>
      <point x="868" y="-420"/>
      <point x="902" y="-414"/>
      <point x="933" y="-413" type="curve"/>
      <point x="1122" y="-369" type="line"/>
      <point x="1161" y="-365"/>
      <point x="1186" y="-362"/>
      <point x="1210" y="-357" type="curve" smooth="yes"/>
      <point x="1210" y="-326"/>
      <point x="1210" y="-294"/>
      <point x="1210" y="-262" type="curve" smooth="yes"/>
      <point x="1210" y="-260"/>
      <point x="1210" y="-258"/>
      <point x="1210" y="-257" type="curve"/>
      <point x="1268" y="992" type="line" smooth="yes"/>
      <point x="1268" y="995"/>
      <point x="1268" y="998"/>
      <point x="1268" y="1001" type="curve" smooth="yes"/>
      <point x="1268" y="1036"/>
      <point x="1267" y="1070"/>
      <point x="1265" y="1103" type="curve" smooth="yes"/>
      <point x="1235" y="1106"/>
      <point x="1203" y="1108"/>
      <point x="1171" y="1108" type="curve" smooth="yes"/>
      <point x="1168" y="1108"/>
      <point x="1165" y="1107"/>
      <point x="1161" y="1106" type="curve" smooth="yes"/>
      <point x="1076" y="1093"/>
      <point x="988" y="1080"/>
      <point x="947" y="1078" type="curve"/>
      <point x="917" y="1036"/>
      <point x="912" y="998"/>
      <point x="902" y="939" type="curve"/>
      <point x="838" y="1049"/>
      <point x="712" y="1129"/>
      <point x="581" y="1129" type="curve" smooth="yes"/>
      <point x="296" y="1129"/>
      <point x="70" y="902"/>
    </contour>
  </outline>
</glyph>
<glyph name="r" format="1">
  <advance width="1060"/>
  <unicode hex="0072"/>
  <outline>
    <contour>
      <point x="143" y="1041" type="curve"/>
      <point x="105" y="46" type="line"/>
      <point x="105" y="22"/>
      <point x="106" y="0"/>
      <point x="109" y="-20" type="curve" smooth="yes"/>
      <point x="130" y="-22"/>
      <point x="151" y="-23"/>
      <point x="173" y="-23" type="curve" smooth="yes"/>
      <point x="184" y="-23"/>
      <point x="195" y="-18"/>
      <point x="202" y="-16" type="curve" smooth="yes"/>
      <point x="426" y="26" type="line"/>
      <point x="460" y="30"/>
      <point x="480" y="33"/>
      <point x="498" y="38" type="curve" smooth="yes"/>
      <point x="498" y="77"/>
      <point x="497" y="115"/>
      <point x="497" y="155" type="curve" smooth="yes"/>
      <point x="497" y="306"/>
      <point x="499" y="460"/>
      <point x="575" y="713" type="curve"/>
      <point x="599" y="777"/>
      <point x="645" y="816"/>
      <point x="705" y="829" type="curve" smooth="yes"/>
      <point x="734" y="836"/>
      <point x="793" y="825"/>
      <point x="806" y="743" type="curve" smooth="yes"/>
      <point x="820" y="722"/>
      <point x="830" y="695"/>
      <point x="835" y="659" type="curve" smooth="yes"/>
      <point x="903" y="659"/>
      <point x="969" y="657"/>
      <point x="1032" y="656" type="curve"/>
      <point x="1050" y="710"/>
      <point x="1063" y="773"/>
      <point x="1065" y="836" type="curve" smooth="yes"/>
      <point x="1072" y="969"/>
      <point x="1039" y="1098"/>
      <point x="926" y="1132" type="curve"/>
      <point x="787" y="1132"/>
      <point x="624" y="1045"/>
      <point x="531" y="919" type="curve"/>
      <point x="541" y="1005"/>
      <point x="541" y="1034"/>
      <point x="541" y="1062" type="curve" smooth="yes"/>
      <point x="541" y="1079"/>
      <point x="541" y="1093"/>
      <point x="537" y="1106" type="curve"/>
      <point x="447" y="1089"/>
      <point x="352" y="1079"/>
      <point x="262" y="1068" type="curve" smooth="yes"/>
      <point x="216" y="1066"/>
      <point x="180" y="1060"/>
    </contour>
  </outline>
</glyph>
<glyph name="s" format="1">
  <advance width="1066"/>
  <unicode hex="0073"/>
  <outline>
    <contour>
      <point x="100" y="84" type="line"/>
      <point x="199" y="21"/>
      <point x="304" y="-17"/>
      <point x="413" y="-33" type="curve" smooth="yes"/>
      <point x="494" y="-44"/>
      <point x="577" y="-43"/>
      <point x="659" y="-31" type="curve" smooth="yes"/>
      <point x="838" y="-6"/>
      <point x="1014" y="108"/>
      <point x="1014" y="312" type="curve" smooth="yes"/>
      <point x="1014" y="526"/>
      <point x="806" y="588"/>
      <point x="562" y="707" type="curve"/>
      <point x="487" y="737"/>
      <point x="441" y="765"/>
      <point x="441" y="814" type="curve" smooth="yes"/>
      <point x="441" y="870"/>
      <point x="499" y="886"/>
      <point x="567" y="886" type="curve" smooth="yes"/>
      <point x="668" y="886"/>
      <point x="780" y="839"/>
      <point x="867" y="785" type="curve" smooth="yes"/>
      <point x="888" y="775"/>
      <point x="907" y="764"/>
      <point x="922" y="754" type="curve" smooth="yes"/>
      <point x="937" y="774"/>
      <point x="951" y="797"/>
      <point x="962" y="825" type="curve"/>
      <point x="969" y="885"/>
      <point x="979" y="941"/>
      <point x="987" y="999" type="curve"/>
      <point x="880" y="1075"/>
      <point x="767" y="1112"/>
      <point x="648" y="1123" type="curve" smooth="yes"/>
      <point x="605" y="1126"/>
      <point x="562" y="1127"/>
      <point x="517" y="1123" type="curve" smooth="yes"/>
      <point x="293" y="1105"/>
      <point x="121" y="982"/>
      <point x="121" y="777" type="curve" smooth="yes"/>
      <point x="121" y="546"/>
      <point x="309" y="486"/>
      <point x="548" y="366" type="curve" smooth="yes"/>
      <point x="617" y="343"/>
      <point x="667" y="316"/>
      <point x="667" y="277" type="curve" smooth="yes"/>
      <point x="667" y="221"/>
      <point x="604" y="202"/>
      <point x="540" y="202" type="curve" smooth="yes"/>
      <point x="445" y="202"/>
      <point x="335" y="240"/>
      <point x="242" y="294" type="curve" smooth="yes"/>
      <point x="240" y="297"/>
      <point x="237" y="298"/>
      <point x="235" y="298" type="curve" smooth="yes"/>
      <point x="207" y="308"/>
      <point x="183" y="318"/>
      <point x="163" y="326" type="curve" smooth="yes"/>
      <point x="152" y="306"/>
      <point x="140" y="286"/>
      <point x="129" y="266" type="curve"/>
    </contour>
  </outline>
</glyph>
<glyph name="t" format="1">
  <advance width="984"/>
  <unicode hex="0074"/>
  <outline>
    <contour>
      <point x="252" y="854" type="line"/>
      <point x="245" y="687"/>
      <point x="234" y="501"/>
      <point x="234" y="322" type="curve" smooth="yes"/>
      <point x="234" y="287"/>
      <point x="235" y="254"/>
      <point x="237" y="222" type="curve" smooth="yes"/>
      <point x="250" y="45"/>
      <point x="410" y="-26"/>
      <point x="578" y="-35" type="curve" smooth="yes"/>
      <point x="613" y="-37"/>
      <point x="654" y="-33"/>
      <point x="694" y="-26" type="curve" smooth="yes"/>
      <point x="833" y="-16"/>
      <point x="962" y="16"/>
      <point x="962" y="31" type="curve" smooth="yes"/>
      <point x="962" y="50"/>
      <point x="962" y="69"/>
      <point x="961" y="89" type="curve"/>
      <point x="942" y="175"/>
      <point x="949" y="211"/>
      <point x="937" y="229" type="curve" smooth="yes"/>
      <point x="914" y="225"/>
      <point x="870" y="219"/>
      <point x="824" y="216" type="curve" smooth="yes"/>
      <point x="784" y="207"/>
      <point x="743" y="203"/>
      <point x="707" y="206" type="curve" smooth="yes"/>
      <point x="652" y="213"/>
      <point x="613" y="242"/>
      <point x="613" y="319" type="curve"/>
      <point x="615" y="491"/>
      <point x="623" y="675"/>
      <point x="632" y="855" type="curve"/>
      <point x="807" y="855" type="line"/>
      <point x="852" y="857"/>
      <point x="885" y="860"/>
      <point x="920" y="869" type="curve" smooth="yes"/>
      <point x="936" y="954" type="line" smooth="yes"/>
      <point x="949" y="1000"/>
      <point x="957" y="1036"/>
      <point x="957" y="1055" type="curve" smooth="yes"/>
      <point x="941" y="1063"/>
      <point x="921" y="1066"/>
      <point x="900" y="1066" type="curve" smooth="yes"/>
      <point x="642" y="1066" type="line"/>
      <point x="649" y="1204"/>
      <point x="659" y="1332"/>
      <point x="659" y="1427" type="curve" smooth="yes"/>
      <point x="659" y="1446"/>
      <point x="657" y="1463"/>
      <point x="654" y="1479" type="curve" smooth="yes"/>
      <point x="636" y="1479"/>
      <point x="620" y="1479"/>
      <point x="602" y="1479" type="curve"/>
      <point x="513" y="1467"/>
      <point x="350" y="1454"/>
      <point x="293" y="1441" type="curve"/>
      <point x="280" y="1353"/>
      <point x="275" y="1248"/>
      <point x="257" y="1066" type="curve"/>
      <point x="124" y="1066" type="line"/>
      <point x="119" y="1026"/>
      <point x="58" y="904"/>
      <point x="58" y="864" type="curve" smooth="yes"/>
      <point x="75" y="856"/>
      <point x="106" y="854"/>
      <point x="154" y="854" type="curve" smooth="yes"/>
    </contour>
  </outline>
</glyph>
<glyph name="u" format="1">
  <advance width="1359"/>
  <unicode hex="0075"/>
  <outline>
    <contour>
      <point x="1244" y="28" type="curve"/>
      <point x="1254" y="59"/>
      <point x="1256" y="94"/>
      <point x="1258" y="142" type="curve" smooth="yes"/>
      <point x="1300" y="1016" type="line" smooth="yes"/>
      <point x="1300" y="1046"/>
      <point x="1300" y="1077"/>
      <point x="1299" y="1106" type="curve" smooth="yes"/>
      <point x="1275" y="1107"/>
      <point x="1250" y="1107"/>
      <point x="1224" y="1107" type="curve"/>
      <point x="1123" y="1090"/>
      <point x="1018" y="1080"/>
      <point x="917" y="1070" type="curve"/>
      <point x="898" y="968"/>
      <point x="897" y="760"/>
      <point x="892" y="601" type="curve" smooth="yes"/>
      <point x="889" y="552"/>
      <point x="887" y="489"/>
      <point x="877" y="415" type="curve" smooth="yes"/>
      <point x="860" y="285"/>
      <point x="757" y="207"/>
      <point x="638" y="207" type="curve" smooth="yes"/>
      <point x="530" y="207"/>
      <point x="499" y="267"/>
      <point x="492" y="350" type="curve" smooth="yes"/>
      <point x="489" y="406"/>
      <point x="493" y="470"/>
      <point x="497" y="532" type="curve"/>
      <point x="515" y="760"/>
      <point x="522" y="874"/>
      <point x="522" y="1018" type="curve" smooth="yes"/>
      <point x="522" y="1048"/>
      <point x="521" y="1076"/>
      <point x="517" y="1104" type="curve" smooth="yes"/>
      <point x="492" y="1104"/>
      <point x="468" y="1103"/>
      <point x="443" y="1103" type="curve"/>
      <point x="339" y="1087"/>
      <point x="249" y="1080"/>
      <point x="146" y="1070" type="curve" smooth="yes"/>
      <point x="135" y="1035"/>
      <point x="135" y="997"/>
      <point x="132" y="946" type="curve" smooth="yes"/>
      <point x="129" y="821"/>
      <point x="128" y="706"/>
      <point x="108" y="398" type="curve"/>
      <point x="105" y="342"/>
      <point x="109" y="293"/>
      <point x="117" y="247" type="curve" smooth="yes"/>
      <point x="141" y="69"/>
      <point x="241" y="-24"/>
      <point x="417" y="-41" type="curve" smooth="yes"/>
      <point x="456" y="-46"/>
      <point x="498" y="-47"/>
      <point x="543" y="-43" type="curve" smooth="yes"/>
      <point x="684" y="-34"/>
      <point x="801" y="27"/>
      <point x="895" y="147" type="curve"/>
      <point x="897" y="81"/>
      <point x="905" y="56"/>
      <point x="915" y="36" type="curve" smooth="yes"/>
      <point x="924" y="16"/>
      <point x="933" y="-3"/>
      <point x="943" y="-22" type="curve" smooth="yes"/>
      <point x="966" y="-22"/>
      <point x="989" y="-23"/>
      <point x="1014" y="-23" type="curve" smooth="yes"/>
      <point x="1016" y="-23"/>
      <point x="1017" y="-23"/>
      <point x="1018" y="-23" type="curve" smooth="yes"/>
      <point x="1092" y="1"/>
      <point x="1171" y="13"/>
    </contour>
  </outline>
</glyph>
<glyph name="v" format="1">
  <advance width="1327"/>
  <unicode hex="0076"/>
  <outline>
    <contour>
      <point x="71" y="1061" type="curve" smooth="yes"/>
      <point x="85" y="1028"/>
      <point x="101" y="993"/>
      <point x="118" y="954" type="curve" smooth="yes"/>
      <point x="226" y="675"/>
      <point x="373" y="205"/>
      <point x="461" y="59" type="curve" smooth="yes"/>
      <point x="507" y="-29" type="line"/>
      <point x="537" y="-29"/>
      <point x="567" y="-28"/>
      <point x="598" y="-28" type="curve"/>
      <point x="678" y="-11"/>
      <point x="754" y="0"/>
      <point x="829" y="9" type="curve" smooth="yes"/>
      <point x="855" y="40"/>
      <point x="873" y="74"/>
      <point x="897" y="124" type="curve"/>
      <point x="1294" y="954" type="line" smooth="yes"/>
      <point x="1297" y="962"/>
      <point x="1299" y="968"/>
      <point x="1299" y="972" type="curve" smooth="yes"/>
      <point x="1313" y="1007"/>
      <point x="1325" y="1039"/>
      <point x="1333" y="1070" type="curve" smooth="yes"/>
      <point x="1255" y="1080"/>
      <point x="1176" y="1089"/>
      <point x="1099" y="1107" type="curve"/>
      <point x="1067" y="1107"/>
      <point x="1034" y="1107"/>
      <point x="1001" y="1107" type="curve" smooth="yes"/>
      <point x="935" y="975"/>
      <point x="772" y="568"/>
      <point x="700" y="407" type="curve"/>
      <point x="633" y="612"/>
      <point x="567" y="818"/>
      <point x="501" y="1024" type="curve" smooth="yes"/>
      <point x="489" y="1052"/>
      <point x="477" y="1079"/>
      <point x="464" y="1106" type="curve" smooth="yes"/>
      <point x="437" y="1107"/>
      <point x="409" y="1107"/>
      <point x="382" y="1107" type="curve" smooth="yes"/>
      <point x="380" y="1107"/>
      <point x="379" y="1107"/>
      <point x="378" y="1107" type="curve" smooth="yes"/>
      <point x="292" y="1094"/>
      <point x="122" y="1072"/>
    </contour>
  </outline>
</glyph>
<glyph name="w" format="1">
  <advance width="1827"/>
  <unicode hex="0077"/>
  <outline>
    <contour>
      <point x="90" y="1061" type="curve" smooth="yes"/>
      <point x="100" y="1028"/>
      <point x="109" y="993"/>
      <point x="123" y="954" type="curve"/>
      <point x="211" y="645"/>
      <point x="336" y="146"/>
      <point x="408" y="-29" type="curve" smooth="yes"/>
      <point x="504" y="-29" type="line"/>
      <point x="504" y="-29"/>
      <point x="505" y="-28"/>
      <point x="506" y="-28" type="curve"/>
      <point x="587" y="-11"/>
      <point x="664" y="0"/>
      <point x="740" y="9" type="curve" smooth="yes"/>
      <point x="762" y="42"/>
      <point x="778" y="76"/>
      <point x="794" y="129" type="curve" smooth="yes"/>
      <point x="936" y="608" type="line"/>
      <point x="995" y="381"/>
      <point x="1063" y="87"/>
      <point x="1114" y="-36" type="curve" smooth="yes"/>
      <point x="1212" y="-36" type="line"/>
      <point x="1212" y="-36"/>
      <point x="1213" y="-36"/>
      <point x="1214" y="-36" type="curve"/>
      <point x="1296" y="-18"/>
      <point x="1373" y="-8"/>
      <point x="1451" y="2" type="curve" smooth="yes"/>
      <point x="1472" y="33"/>
      <point x="1484" y="67"/>
      <point x="1502" y="117" type="curve"/>
      <point x="1781" y="954" type="line"/>
      <point x="1794" y="991"/>
      <point x="1804" y="1026"/>
      <point x="1813" y="1060" type="curve" smooth="yes"/>
      <point x="1756" y="1063"/>
      <point x="1579" y="1107"/>
      <point x="1492" y="1107" type="curve" smooth="yes"/>
      <point x="1482" y="1081"/>
      <point x="1474" y="1053"/>
      <point x="1466" y="1024" type="curve"/>
      <point x="1301" y="402" type="line"/>
      <point x="1172" y="1024" type="line" smooth="yes"/>
      <point x="1164" y="1052"/>
      <point x="1157" y="1079"/>
      <point x="1149" y="1106" type="curve" smooth="yes"/>
      <point x="1116" y="1107"/>
      <point x="1083" y="1107"/>
      <point x="1050" y="1107" type="curve"/>
      <point x="972" y="1091"/>
      <point x="888" y="1080"/>
      <point x="808" y="1070" type="curve" smooth="yes"/>
      <point x="797" y="1042"/>
      <point x="787" y="1014"/>
      <point x="778" y="984" type="curve" smooth="yes"/>
      <point x="620" y="398" type="line"/>
      <point x="493" y="1024" type="line" smooth="yes"/>
      <point x="486" y="1052"/>
      <point x="480" y="1079"/>
      <point x="472" y="1106" type="curve" smooth="yes"/>
      <point x="447" y="1107"/>
      <point x="420" y="1107"/>
      <point x="394" y="1107" type="curve" smooth="yes"/>
      <point x="392" y="1107"/>
      <point x="391" y="1107"/>
      <point x="390" y="1107" type="curve" smooth="yes"/>
      <point x="307" y="1094"/>
      <point x="139" y="1072"/>
    </contour>
  </outline>
</glyph>
<glyph name="x" format="1">
  <advance width="1360"/>
  <unicode hex="0078"/>
  <outline>
    <contour>
      <point x="116" y="1064" type="curve" smooth="yes"/>
      <point x="133" y="1038"/>
      <point x="154" y="1012"/>
      <point x="178" y="979" type="curve" smooth="yes"/>
      <point x="286" y="828"/>
      <point x="390" y="683"/>
      <point x="495" y="534" type="curve"/>
      <point x="372" y="388"/>
      <point x="249" y="241"/>
      <point x="126" y="94" type="curve" smooth="yes"/>
      <point x="98" y="60"/>
      <point x="74" y="36"/>
      <point x="56" y="12" type="curve" smooth="yes"/>
      <point x="104" y="12"/>
      <point x="274" y="-30"/>
      <point x="333" y="-30" type="curve" smooth="yes"/>
      <point x="359" y="-30"/>
      <point x="385" y="-30"/>
      <point x="410" y="-30" type="curve" smooth="yes"/>
      <point x="429" y="-9"/>
      <point x="448" y="11"/>
      <point x="468" y="33" type="curve" smooth="yes"/>
      <point x="505" y="73"/>
      <point x="589" y="176"/>
      <point x="670" y="276" type="curve"/>
      <point x="754" y="140"/>
      <point x="806" y="67"/>
      <point x="845" y="28" type="curve" smooth="yes"/>
      <point x="863" y="9"/>
      <point x="881" y="-11"/>
      <point x="898" y="-30" type="curve" smooth="yes"/>
      <point x="1011" y="-18"/>
      <point x="1210" y="6"/>
      <point x="1298" y="13" type="curve" smooth="yes"/>
      <point x="1279" y="39"/>
      <point x="1257" y="67"/>
      <point x="1233" y="100" type="curve" smooth="yes"/>
      <point x="907" y="560" type="line"/>
      <point x="1026" y="703"/>
      <point x="1146" y="841"/>
      <point x="1268" y="985" type="curve" smooth="yes"/>
      <point x="1296" y="1018"/>
      <point x="1318" y="1041"/>
      <point x="1336" y="1066" type="curve" smooth="yes"/>
      <point x="1289" y="1065"/>
      <point x="1115" y="1107"/>
      <point x="1061" y="1107" type="curve" smooth="yes"/>
      <point x="1035" y="1107"/>
      <point x="1010" y="1107"/>
      <point x="985" y="1106" type="curve" smooth="yes"/>
      <point x="967" y="1087"/>
      <point x="948" y="1067"/>
      <point x="930" y="1047" type="curve" smooth="yes"/>
      <point x="733" y="815" type="line"/>
      <point x="572" y="1047" type="line"/>
      <point x="571" y="1051"/>
      <point x="569" y="1052"/>
      <point x="565" y="1052" type="curve" smooth="yes"/>
      <point x="548" y="1070"/>
      <point x="531" y="1089"/>
      <point x="514" y="1107" type="curve" smooth="yes"/>
      <point x="402" y="1095"/>
      <point x="202" y="1070"/>
    </contour>
  </outline>
</glyph>
<glyph name="y" format="1">
  <advance width="1338"/>
  <unicode hex="0079"/>
  <outline>
    <contour>
      <point x="101" y="1070" type="curve" smooth="yes"/>
      <point x="107" y="1046"/>
      <point x="115" y="1021"/>
      <point x="126" y="994" type="curve" smooth="yes"/>
      <point x="126" y="990"/>
      <point x="126" y="984"/>
      <point x="130" y="974" type="curve"/>
      <point x="249" y="661"/>
      <point x="376" y="302"/>
      <point x="489" y="21" type="curve"/>
      <point x="507" y="-13"/>
      <point x="518" y="-46"/>
      <point x="518" y="-71" type="curve"/>
      <point x="522" y="-118"/>
      <point x="510" y="-152"/>
      <point x="481" y="-162" type="curve"/>
      <point x="440" y="-196"/>
      <point x="408" y="-204"/>
      <point x="399" y="-176" type="curve"/>
      <point x="399" y="-170"/>
      <point x="399" y="-141"/>
      <point x="400" y="-135" type="curve"/>
      <point x="344" y="-160"/>
      <point x="290" y="-179"/>
      <point x="239" y="-193" type="curve" smooth="yes"/>
      <point x="230" y="-214"/>
      <point x="206" y="-258"/>
      <point x="206" y="-298" type="curve" smooth="yes"/>
      <point x="206" y="-432"/>
      <point x="429" y="-465"/>
      <point x="550" y="-477" type="curve" smooth="yes"/>
      <point x="587" y="-477"/>
      <point x="618" y="-473"/>
      <point x="646" y="-466" type="curve" smooth="yes"/>
      <point x="787" y="-429"/>
      <point x="862" y="-124"/>
      <point x="922" y="23" type="curve" smooth="yes"/>
      <point x="1316" y="975" type="line" smooth="yes"/>
      <point x="1320" y="983"/>
      <point x="1321" y="989"/>
      <point x="1321" y="993" type="curve" smooth="yes"/>
      <point x="1330" y="1020"/>
      <point x="1336" y="1046"/>
      <point x="1339" y="1070" type="curve" smooth="yes"/>
      <point x="1248" y="1080"/>
      <point x="1155" y="1089"/>
      <point x="1066" y="1107" type="curve"/>
      <point x="1042" y="1107"/>
      <point x="1019" y="1107"/>
      <point x="996" y="1107" type="curve" smooth="yes"/>
      <point x="934" y="959"/>
      <point x="788" y="535"/>
      <point x="726" y="355" type="curve"/>
      <point x="512" y="1039" type="line" smooth="yes"/>
      <point x="502" y="1062"/>
      <point x="493" y="1084"/>
      <point x="483" y="1106" type="curve" smooth="yes"/>
      <point x="457" y="1107"/>
      <point x="429" y="1107"/>
      <point x="402" y="1107" type="curve" smooth="yes"/>
      <point x="400" y="1107"/>
      <point x="399" y="1107"/>
      <point x="398" y="1107" type="curve" smooth="yes"/>
      <point x="302" y="1089"/>
      <point x="199" y="1080"/>
    </contour>
  </outline>
</glyph>
<glyph name="z" format="1">
  <advance width="1124"/>
  <unicode hex="007A"/>
  <outline>
    <contour>
      <point x="115" y="127" type="line"/>
      <point x="115" y="92"/>
      <point x="114" y="56"/>
      <point x="114" y="22" type="curve" smooth="yes"/>
      <point x="145" y="4"/>
      <point x="210" y="0"/>
      <point x="265" y="0" type="curve" smooth="yes"/>
      <point x="707" y="0" type="line" smooth="yes"/>
      <point x="821" y="0"/>
      <point x="931" y="2"/>
      <point x="1005" y="25" type="curve" smooth="yes"/>
      <point x="1061" y="202" type="line"/>
      <point x="1061" y="222"/>
      <point x="1062" y="243"/>
      <point x="1062" y="263" type="curve" smooth="yes"/>
      <point x="1036" y="272"/>
      <point x="1005" y="274"/>
      <point x="973" y="274" type="curve" smooth="yes"/>
      <point x="911" y="274"/>
      <point x="851" y="272"/>
      <point x="787" y="272" type="curve" smooth="yes"/>
      <point x="729" y="272"/>
      <point x="662" y="272"/>
      <point x="610" y="274" type="curve"/>
      <point x="1010" y="906" type="line"/>
      <point x="1027" y="928"/>
      <point x="1045" y="950"/>
      <point x="1062" y="973" type="curve" smooth="yes"/>
      <point x="1062" y="1013"/>
      <point x="1053" y="1051"/>
      <point x="1047" y="1086" type="curve" smooth="yes"/>
      <point x="789" y="1086"/>
      <point x="535" y="1091"/>
      <point x="276" y="1091" type="curve" smooth="yes"/>
      <point x="232" y="1091"/>
      <point x="187" y="1088"/>
      <point x="151" y="1072" type="curve"/>
      <point x="106" y="851" type="line"/>
      <point x="131" y="846"/>
      <point x="161" y="842"/>
      <point x="193" y="842" type="curve" smooth="yes"/>
      <point x="311" y="842"/>
      <point x="469" y="845"/>
      <point x="598" y="845" type="curve"/>
    </contour>
  </outline>
</glyph>
<glyph name="braceleft" format="1">
  <advance width="893"/>
  <unicode hex="007B"/>
  <outline>
    <contour>
      <point x="211" y="421" type="curve" smooth="yes"/>
      <point x="211" y="157"/>
      <point x="318" y="-59"/>
      <point x="638" y="-90" type="curve" smooth="yes"/>
      <point x="680" y="-95"/>
      <point x="726" y="-96"/>
      <point x="779" y="-89" type="curve" smooth="yes"/>
      <point x="791" y="-5"/>
      <point x="811" y="61"/>
      <point x="811" y="149" type="curve" smooth="yes"/>
      <point x="746" y="158"/>
      <point x="716" y="187"/>
      <point x="701" y="225" type="curve"/>
      <point x="660" y="278"/>
      <point x="646" y="359"/>
      <point x="643" y="470" type="curve" smooth="yes"/>
      <point x="643" y="478"/>
      <point x="644" y="486"/>
      <point x="644" y="494" type="curve" smooth="yes"/>
      <point x="641" y="583"/>
      <point x="605" y="665"/>
      <point x="506" y="726" type="curve"/>
      <point x="719" y="803"/>
      <point x="627" y="1083"/>
      <point x="738" y="1168" type="curve" smooth="yes"/>
      <point x="754" y="1206"/>
      <point x="787" y="1237"/>
      <point x="854" y="1253" type="curve"/>
      <point x="869" y="1338"/>
      <point x="866" y="1385"/>
      <point x="876" y="1470" type="curve"/>
      <point x="876" y="1494"/>
      <point x="873" y="1513"/>
      <point x="868" y="1531" type="curve" smooth="yes"/>
      <point x="309" y="1531"/>
      <point x="305" y="1182"/>
      <point x="228" y="989" type="curve" smooth="yes"/>
      <point x="203" y="921"/>
      <point x="159" y="872"/>
      <point x="67" y="856" type="curve"/>
      <point x="67" y="819"/>
      <point x="49" y="704"/>
      <point x="49" y="636" type="curve" smooth="yes"/>
      <point x="107" y="618"/>
      <point x="203" y="592"/>
      <point x="209" y="494" type="curve" smooth="yes"/>
      <point x="212" y="470"/>
      <point x="211" y="446"/>
    </contour>
  </outline>
</glyph>
<glyph name="braceright" format="1">
  <advance width="893"/>
  <unicode hex="007D"/>
  <outline>
    <contour>
      <point x="706" y="383" type="curve"/>
      <point x="720" y="498"/>
      <point x="747" y="585"/>
      <point x="862" y="596" type="curve"/>
      <point x="874" y="597"/>
      <point x="881" y="599"/>
      <point x="885" y="612" type="curve"/>
      <point x="896" y="687"/>
      <point x="901" y="810"/>
      <point x="901" y="847" type="curve" smooth="yes"/>
      <point x="843" y="859"/>
      <point x="815" y="882"/>
      <point x="791" y="914" type="curve"/>
      <point x="753" y="934"/>
      <point x="735" y="972"/>
      <point x="723" y="1016" type="curve" smooth="yes"/>
      <point x="691" y="1208"/>
      <point x="707" y="1493"/>
      <point x="299" y="1524" type="curve" smooth="yes"/>
      <point x="257" y="1529"/>
      <point x="210" y="1530"/>
      <point x="158" y="1523" type="curve"/>
      <point x="148" y="1443"/>
      <point x="135" y="1395"/>
      <point x="135" y="1313" type="curve" smooth="yes"/>
      <point x="135" y="1285"/>
      <point x="139" y="1264"/>
      <point x="144" y="1245" type="curve"/>
      <point x="436" y="1233"/>
      <point x="177" y="839"/>
      <point x="441" y="730" type="curve"/>
      <point x="346" y="669"/>
      <point x="309" y="587"/>
      <point x="296" y="498" type="curve"/>
      <point x="274" y="321"/>
      <point x="268" y="188"/>
      <point x="97" y="163" type="curve"/>
      <point x="83" y="141"/>
      <point x="82" y="89"/>
      <point x="82" y="48" type="curve" smooth="yes"/>
      <point x="82" y="27"/>
      <point x="83" y="15"/>
      <point x="83" y="-3" type="curve" smooth="yes"/>
      <point x="83" y="-14"/>
      <point x="82" y="-23"/>
      <point x="82" y="-36" type="curve" smooth="yes"/>
      <point x="82" y="-59"/>
      <point x="85" y="-80"/>
      <point x="90" y="-98" type="curve" smooth="yes"/>
      <point x="543" y="-98"/>
      <point x="680" y="116"/>
    </contour>
  </outline>
</glyph>
<glyph name="section" format="1">
  <advance width="1061"/>
  <unicode hex="00A7"/>
  <outline>
    <contour>
      <point x="278" y="-136" type="line"/>
      <point x="367" y="-184"/>
      <point x="461" y="-187"/>
      <point x="564" y="-187" type="curve" smooth="yes"/>
      <point x="739" y="-187"/>
      <point x="912" y="-70"/>
      <point x="912" y="110" type="curve" smooth="yes"/>
      <point x="912" y="166"/>
      <point x="897" y="230"/>
      <point x="854" y="294" type="curve"/>
      <point x="962" y="332"/>
      <point x="1051" y="434"/>
      <point x="1051" y="576" type="curve" smooth="yes"/>
      <point x="1051" y="677"/>
      <point x="1026" y="798"/>
      <point x="644" y="1035" type="curve" smooth="yes"/>
      <point x="603" y="1060"/>
      <point x="583" y="1094"/>
      <point x="583" y="1137" type="curve" smooth="yes"/>
      <point x="583" y="1187"/>
      <point x="635" y="1200"/>
      <point x="684" y="1200" type="curve" smooth="yes"/>
      <point x="776" y="1200"/>
      <point x="855" y="1140"/>
      <point x="930" y="1081" type="curve" smooth="yes"/>
      <point x="933" y="1078"/>
      <point x="938" y="1076"/>
      <point x="943" y="1076" type="curve" smooth="yes"/>
      <point x="954" y="1076"/>
      <point x="959" y="1081"/>
      <point x="959" y="1090" type="curve" smooth="yes"/>
      <point x="959" y="1094"/>
      <point x="959" y="1097"/>
      <point x="958" y="1098" type="curve"/>
      <point x="931" y="1187"/>
      <point x="912" y="1266"/>
      <point x="887" y="1350" type="curve"/>
      <point x="863" y="1422"/>
      <point x="660" y="1438"/>
      <point x="639" y="1438" type="curve" smooth="yes"/>
      <point x="402" y="1438"/>
      <point x="259" y="1319"/>
      <point x="259" y="1165" type="curve" smooth="yes"/>
      <point x="259" y="1097"/>
      <point x="287" y="1013"/>
      <point x="316" y="955" type="curve"/>
      <point x="191" y="914"/>
      <point x="121" y="806"/>
      <point x="121" y="669" type="curve" smooth="yes"/>
      <point x="121" y="419"/>
      <point x="338" y="309"/>
      <point x="528" y="205" type="curve"/>
      <point x="560" y="186"/>
      <point x="585" y="154"/>
      <point x="585" y="122" type="curve" smooth="yes"/>
      <point x="585" y="78"/>
      <point x="520" y="64"/>
      <point x="480" y="64" type="curve" smooth="yes"/>
      <point x="388" y="64"/>
      <point x="301" y="99"/>
      <point x="228" y="150" type="curve" smooth="yes"/>
      <point x="221" y="155"/>
      <point x="215" y="157"/>
      <point x="210" y="157" type="curve" smooth="yes"/>
      <point x="202" y="157"/>
      <point x="198" y="154"/>
      <point x="198" y="147" type="curve" smooth="yes"/>
      <point x="198" y="144"/>
      <point x="201" y="142"/>
      <point x="201" y="141" type="curve"/>
    </contour>
    <contour>
      <point x="673" y="673" type="line"/>
      <point x="699" y="655" type="line"/>
      <point x="718" y="638"/>
      <point x="734" y="613"/>
      <point x="734" y="589" type="curve" smooth="yes"/>
      <point x="734" y="544"/>
      <point x="668" y="530"/>
      <point x="628" y="530" type="curve" smooth="yes"/>
      <point x="556" y="530"/>
      <point x="488" y="556"/>
      <point x="428" y="599" type="curve"/>
      <point x="413" y="618"/>
      <point x="404" y="647"/>
      <point x="404" y="672" type="curve" smooth="yes"/>
      <point x="404" y="720"/>
      <point x="456" y="734"/>
      <point x="505" y="734" type="curve" smooth="yes"/>
      <point x="548" y="734"/>
      <point x="585" y="722"/>
      <point x="624" y="703" type="curve"/>
    </contour>
  </outline>
</glyph>
<glyph name="dieresis" format="1">
  <advance width="1189"/>
  <unicode hex="00A8"/>
  <outline>
    <contour>
      <point x="89" y="1225" type="line"/>
      <point x="89" y="1218"/>
      <point x="92" y="1218"/>
      <point x="99" y="1218" type="curve" smooth="yes"/>
      <point x="216" y="1218"/>
      <point x="323" y="1219"/>
      <point x="424" y="1220" type="curve"/>
      <point x="444" y="1223"/>
      <point x="446" y="1235"/>
      <point x="450" y="1274" type="curve" smooth="yes"/>
      <point x="475" y="1552" type="line"/>
      <point x="475" y="1572"/>
      <point x="470" y="1578"/>
      <point x="457" y="1578" type="curve" smooth="yes"/>
      <point x="357" y="1578"/>
      <point x="233" y="1576"/>
      <point x="129" y="1576" type="curve"/>
      <point x="109" y="1573"/>
      <point x="105" y="1561"/>
      <point x="102" y="1521" type="curve"/>
      <point x="90" y="1261"/>
      <point x="101" y="1455"/>
      <point x="89" y="1228" type="curve" smooth="yes"/>
    </contour>
    <contour>
      <point x="715" y="1222" type="line"/>
      <point x="715" y="1215"/>
      <point x="716" y="1216"/>
      <point x="720" y="1216" type="curve" smooth="yes"/>
      <point x="839" y="1216"/>
      <point x="946" y="1218"/>
      <point x="1049" y="1219" type="curve"/>
      <point x="1072" y="1222"/>
      <point x="1072" y="1233"/>
      <point x="1077" y="1273" type="curve"/>
      <point x="1101" y="1556" type="line"/>
      <point x="1101" y="1572"/>
      <point x="1093" y="1576"/>
      <point x="1082" y="1576" type="curve" smooth="yes"/>
      <point x="982" y="1575"/>
      <point x="859" y="1574"/>
      <point x="754" y="1574" type="curve"/>
      <point x="734" y="1571"/>
      <point x="732" y="1559"/>
      <point x="729" y="1520" type="curve" smooth="yes"/>
      <point x="714" y="1284"/>
      <point x="729" y="1480"/>
      <point x="715" y="1226" type="curve" smooth="yes"/>
    </contour>
  </outline>
</glyph>
<glyph name="guillemotleft" format="1">
  <advance width="2032"/>
  <unicode hex="00AB"/>
  <outline>
    <contour>
      <point x="1004" y="324" type="curve" smooth="yes"/>
      <point x="938" y="359"/>
      <point x="601" y="531"/>
      <point x="558" y="555" type="curve"/>
      <point x="1004" y="717" type="line"/>
      <point x="1012" y="718"/>
      <point x="1017" y="724"/>
      <point x="1017" y="740" type="curve"/>
      <point x="996" y="840"/>
      <point x="995" y="958"/>
      <point x="992" y="1061" type="curve"/>
      <point x="990" y="1072"/>
      <point x="985" y="1077"/>
      <point x="976" y="1077" type="curve" smooth="yes"/>
      <point x="967" y="1077"/>
      <point x="952" y="1074"/>
      <point x="931" y="1068" type="curve"/>
      <point x="647" y="960"/>
      <point x="258" y="825"/>
      <point x="122" y="761" type="curve"/>
      <point x="118" y="761"/>
      <point x="111" y="756"/>
      <point x="110" y="749" type="curve" smooth="yes"/>
      <point x="108" y="742" type="line"/>
      <point x="108" y="741"/>
      <point x="109" y="740"/>
      <point x="109" y="737" type="curve" smooth="yes"/>
      <point x="117" y="625"/>
      <point x="116" y="522"/>
      <point x="116" y="421" type="curve" smooth="yes"/>
      <point x="116" y="394"/>
      <point x="125" y="386"/>
      <point x="168" y="365" type="curve"/>
      <point x="808" y="-17" type="line"/>
      <point x="827" y="-25"/>
      <point x="835" y="-29"/>
      <point x="846" y="-29" type="curve" smooth="yes"/>
      <point x="859" y="-29"/>
      <point x="867" y="-23"/>
      <point x="872" y="-10" type="curve" smooth="yes"/>
      <point x="915" y="93"/>
      <point x="950" y="201"/>
      <point x="1009" y="301" type="curve"/>
      <point x="1011" y="306"/>
      <point x="1012" y="310"/>
      <point x="1012" y="313" type="curve" smooth="yes"/>
      <point x="1012" y="317"/>
      <point x="1009" y="321"/>
    </contour>
    <contour>
      <point x="1994" y="324" type="curve" smooth="yes"/>
      <point x="1928" y="359"/>
      <point x="1591" y="531"/>
      <point x="1548" y="555" type="curve"/>
      <point x="1994" y="717" type="line"/>
      <point x="2002" y="718"/>
      <point x="2007" y="724"/>
      <point x="2007" y="740" type="curve"/>
      <point x="1986" y="840"/>
      <point x="1985" y="958"/>
      <point x="1982" y="1061" type="curve"/>
      <point x="1980" y="1072"/>
      <point x="1975" y="1077"/>
      <point x="1966" y="1077" type="curve" smooth="yes"/>
      <point x="1957" y="1077"/>
      <point x="1942" y="1074"/>
      <point x="1921" y="1068" type="curve"/>
      <point x="1637" y="960"/>
      <point x="1248" y="825"/>
      <point x="1112" y="761" type="curve"/>
      <point x="1108" y="761"/>
      <point x="1101" y="756"/>
      <point x="1100" y="749" type="curve" smooth="yes"/>
      <point x="1098" y="742" type="line"/>
      <point x="1098" y="741"/>
      <point x="1099" y="740"/>
      <point x="1099" y="737" type="curve" smooth="yes"/>
      <point x="1107" y="625"/>
      <point x="1106" y="522"/>
      <point x="1106" y="421" type="curve" smooth="yes"/>
      <point x="1106" y="394"/>
      <point x="1115" y="386"/>
      <point x="1158" y="365" type="curve"/>
      <point x="1798" y="-17" type="line"/>
      <point x="1817" y="-25"/>
      <point x="1825" y="-29"/>
      <point x="1836" y="-29" type="curve" smooth="yes"/>
      <point x="1849" y="-29"/>
      <point x="1857" y="-23"/>
      <point x="1862" y="-10" type="curve" smooth="yes"/>
      <point x="1905" y="93"/>
      <point x="1940" y="201"/>
      <point x="1999" y="301" type="curve"/>
      <point x="2001" y="306"/>
      <point x="2002" y="310"/>
      <point x="2002" y="313" type="curve" smooth="yes"/>
      <point x="2002" y="317"/>
      <point x="1999" y="321"/>
    </contour>
  </outline>
</glyph>
<glyph name="acute" format="1">
  <advance width="670"/>
  <unicode hex="00B4"/>
  <outline>
    <contour>
      <point x="216" y="1206" type="curve"/>
      <point x="218" y="1204"/>
      <point x="219" y="1204"/>
      <point x="221" y="1204" type="curve" smooth="yes"/>
      <point x="289" y="1235"/>
      <point x="411" y="1351"/>
      <point x="582" y="1509" type="curve"/>
      <point x="608" y="1527"/>
      <point x="631" y="1544"/>
      <point x="652" y="1560" type="curve" smooth="yes"/>
      <point x="608" y="1576"/>
      <point x="456" y="1620"/>
      <point x="373" y="1647" type="curve" smooth="yes"/>
      <point x="348" y="1649"/>
      <point x="323" y="1651"/>
      <point x="298" y="1651" type="curve" smooth="yes"/>
      <point x="277" y="1636"/>
      <point x="258" y="1620"/>
      <point x="237" y="1597" type="curve" smooth="yes"/>
      <point x="103" y="1314" type="line" smooth="yes"/>
      <point x="82" y="1289"/>
      <point x="65" y="1269"/>
      <point x="47" y="1250" type="curve"/>
      <point x="81" y="1240"/>
      <point x="158" y="1221"/>
    </contour>
  </outline>
</glyph>
<glyph name="mu" format="1">
  <advance width="1375"/>
  <unicode hex="00B5"/>
  <unicode hex="03BC"/>
  <outline>
    <contour>
      <point x="98" y="-249" type="curve" smooth="yes"/>
      <point x="98" y="-305"/>
      <point x="128" y="-336"/>
      <point x="166" y="-351" type="curve" smooth="yes"/>
      <point x="224" y="-358"/>
      <point x="286" y="-351"/>
      <point x="346" y="-345" type="curve"/>
      <point x="413" y="-341"/>
      <point x="463" y="-311"/>
      <point x="463" y="-252" type="curve" smooth="yes"/>
      <point x="463" y="-240"/>
      <point x="462" y="-226"/>
      <point x="460" y="-216" type="curve"/>
      <point x="430" y="89" type="line"/>
      <point x="464" y="4"/>
      <point x="535" y="-30"/>
      <point x="613" y="-30" type="curve" smooth="yes"/>
      <point x="733" y="-30"/>
      <point x="872" y="51"/>
      <point x="921" y="147" type="curve"/>
      <point x="922" y="72"/>
      <point x="932" y="47"/>
      <point x="941" y="28" type="curve" smooth="yes"/>
      <point x="951" y="8"/>
      <point x="960" y="-11"/>
      <point x="970" y="-29" type="curve" smooth="yes"/>
      <point x="992" y="-30"/>
      <point x="1014" y="-30"/>
      <point x="1037" y="-30" type="curve" smooth="yes"/>
      <point x="1039" y="-30"/>
      <point x="1041" y="-30"/>
      <point x="1041" y="-30" type="curve" smooth="yes"/>
      <point x="1092" y="-6"/>
      <point x="1151" y="6"/>
      <point x="1201" y="21" type="curve"/>
      <point x="1233" y="24"/>
      <point x="1254" y="28"/>
      <point x="1278" y="48" type="curve"/>
      <point x="1320" y="1026" type="line" smooth="yes"/>
      <point x="1320" y="1053"/>
      <point x="1320" y="1079"/>
      <point x="1319" y="1105" type="curve" smooth="yes"/>
      <point x="1296" y="1106"/>
      <point x="1271" y="1106"/>
      <point x="1246" y="1106" type="curve"/>
      <point x="1147" y="1089"/>
      <point x="1043" y="1079"/>
      <point x="943" y="1068" type="curve"/>
      <point x="925" y="967"/>
      <point x="923" y="759"/>
      <point x="917" y="586" type="curve" smooth="yes"/>
      <point x="913" y="463"/>
      <point x="911" y="213"/>
      <point x="671" y="213" type="curve" smooth="yes"/>
      <point x="568" y="213"/>
      <point x="526" y="268"/>
      <point x="519" y="363" type="curve"/>
      <point x="516" y="414"/>
      <point x="520" y="475"/>
      <point x="524" y="532" type="curve" smooth="yes"/>
      <point x="540" y="767"/>
      <point x="542" y="883"/>
      <point x="550" y="1032" type="curve"/>
      <point x="550" y="1058"/>
      <point x="548" y="1080"/>
      <point x="544" y="1102" type="curve" smooth="yes"/>
      <point x="519" y="1102"/>
      <point x="495" y="1102"/>
      <point x="470" y="1102" type="curve"/>
      <point x="389" y="1085"/>
      <point x="324" y="1079"/>
      <point x="243" y="1068" type="curve" smooth="yes"/>
      <point x="209" y="1066"/>
      <point x="185" y="1060"/>
      <point x="159" y="1041" type="curve" smooth="yes"/>
      <point x="159" y="890"/>
      <point x="150" y="653"/>
      <point x="133" y="329" type="curve" smooth="yes"/>
      <point x="122" y="156"/>
      <point x="109" y="-9"/>
      <point x="98" y="-174" type="curve"/>
      <point x="98" y="-199"/>
      <point x="98" y="-224"/>
    </contour>
  </outline>
</glyph>
